Blinker-SemiBold.ufo
<glyph name="exclam" format="1">
  <advance width="232"/>
  <unicode hex="0021"/>
  <outline>
    <contour>
      <point x="182" y="627" type="line"/>
      <point x="50" y="627" type="line"/>
      <point x="65" y="187" type="line"/>
      <point x="167" y="187" type="line"/>
    </contour>
    <contour>
      <point x="176" y="0" type="line"/>
      <point x="176" y="108" type="line"/>
      <point x="56" y="108" type="line"/>
      <point x="56" y="0" type="line"/>
    </contour>
  </outline>
</glyph>
<glyph name="quotedbl" format="1">
  <advance width="318"/>
  <unicode hex="0022"/>
  <outline>
    <contour>
      <point x="121" y="627" type="line"/>
      <point x="42" y="627" type="line"/>
      <point x="42" y="399" type="line"/>
      <point x="121" y="399" type="line"/>
    </contour>
    <contour>
      <point x="276" y="627" type="line"/>
      <point x="197" y="627" type="line"/>
      <point x="197" y="399" type="line"/>
      <point x="276" y="399" type="line"/>
    </contour>
  </outline>
</glyph>
<glyph name="numbersign" format="1">
  <advance width="562"/>
  <unicode hex="0023"/>
  <outline>
    <contour>
      <point x="541" y="416" type="line"/>
      <point x="541" y="493" type="line"/>
      <point x="459" y="493" type="line"/>
      <point x="481" y="627" type="line"/>
      <point x="400" y="627" type="line"/>
      <point x="378" y="493" type="line"/>
      <point x="246" y="493" type="line"/>
      <point x="268" y="627" type="line"/>
      <point x="187" y="627" type="line"/>
      <point x="166" y="493" type="line"/>
      <point x="57" y="493" type="line"/>
      <point x="57" y="416" type="line"/>
      <point x="151" y="416" type="line"/>
      <point x="120" y="222" type="line"/>
      <point x="22" y="222" type="line"/>
      <point x="22" y="144" type="line"/>
      <point x="107" y="144" type="line"/>
      <point x="83" y="0" type="line"/>
      <point x="165" y="0" type="line"/>
      <point x="188" y="144" type="line"/>
      <point x="320" y="144" type="line"/>
      <point x="297" y="0" type="line"/>
      <point x="378" y="0" type="line"/>
      <point x="402" y="144" type="line"/>
      <point x="506" y="144" type="line"/>
      <point x="506" y="222" type="line"/>
      <point x="415" y="222" type="line"/>
      <point x="445" y="416" type="line"/>
    </contour>
    <contour>
      <point x="364" y="416" type="line"/>
      <point x="333" y="222" type="line"/>
      <point x="201" y="222" type="line"/>
      <point x="233" y="416" type="line"/>
    </contour>
  </outline>
</glyph>
<glyph name="dollar" format="1">
  <advance width="480"/>
  <unicode hex="0024"/>
  <outline>
    <contour>
      <point x="279" y="593" type="line"/>
      <point x="279" y="720" type="line"/>
      <point x="198" y="720" type="line"/>
      <point x="198" y="593" type="line"/>
    </contour>
    <contour>
      <point x="279" y="-93" type="line"/>
      <point x="279" y="42" type="line"/>
      <point x="198" y="42" type="line"/>
      <point x="198" y="-93" type="line"/>
    </contour>
    <contour>
      <point x="158" y="282" type="curve" smooth="yes"/>
      <point x="280" y="250" type="line" smooth="yes"/>
      <point x="318" y="239"/>
      <point x="333" y="229"/>
      <point x="333" y="185" type="curve"/>
      <point x="333" y="130"/>
      <point x="316" y="104"/>
      <point x="233" y="104" type="curve"/>
      <point x="146" y="104"/>
      <point x="73" y="120"/>
      <point x="34" y="132" type="curve"/>
      <point x="34" y="19" type="line"/>
      <point x="67" y="6"/>
      <point x="142" y="-9"/>
      <point x="233" y="-9" type="curve"/>
      <point x="422" y="-9"/>
      <point x="457" y="85"/>
      <point x="457" y="189" type="curve"/>
      <point x="457" y="314"/>
      <point x="407" y="332"/>
      <point x="319" y="356" type="curve" smooth="yes"/>
      <point x="198" y="389" type="line" smooth="yes"/>
      <point x="164" y="398"/>
      <point x="152" y="413"/>
      <point x="152" y="446" type="curve"/>
      <point x="152" y="502"/>
      <point x="179" y="529"/>
      <point x="254" y="529" type="curve" smooth="yes"/>
      <point x="329" y="529"/>
      <point x="375" y="517"/>
      <point x="410" y="511" type="curve"/>
      <point x="410" y="619" type="line"/>
      <point x="376" y="628"/>
      <point x="332" y="637"/>
      <point x="256" y="637" type="curve" smooth="yes"/>
      <point x="105" y="637"/>
      <point x="33" y="575"/>
      <point x="33" y="437" type="curve"/>
      <point x="33" y="331"/>
      <point x="85" y="302"/>
    </contour>
  </outline>
</glyph>
<glyph name="percent" format="1">
  <advance width="654"/>
  <unicode hex="0025"/>
  <outline>
    <contour>
      <point x="152" y="566" type="curve"/>
      <point x="189" y="566"/>
      <point x="202" y="543"/>
      <point x="202" y="477" type="curve"/>
      <point x="202" y="412"/>
      <point x="189" y="391"/>
      <point x="152" y="391" type="curve"/>
      <point x="115" y="391"/>
      <point x="102" y="412"/>
      <point x="102" y="477" type="curve"/>
      <point x="102" y="543"/>
      <point x="115" y="566"/>
    </contour>
    <contour>
      <point x="152" y="320" type="curve"/>
      <point x="245" y="320"/>
      <point x="282" y="364"/>
      <point x="282" y="477" type="curve"/>
      <point x="282" y="590"/>
      <point x="245" y="633"/>
      <point x="152" y="633" type="curve"/>
      <point x="58" y="633"/>
      <point x="21" y="590"/>
      <point x="21" y="477" type="curve"/>
      <point x="21" y="364"/>
      <point x="58" y="320"/>
    </contour>
    <contour>
      <point x="503" y="241" type="curve"/>
      <point x="540" y="241"/>
      <point x="553" y="218"/>
      <point x="553" y="152" type="curve"/>
      <point x="553" y="87"/>
      <point x="540" y="66"/>
      <point x="503" y="66" type="curve"/>
      <point x="466" y="66"/>
      <point x="453" y="87"/>
      <point x="453" y="152" type="curve"/>
      <point x="453" y="218"/>
      <point x="466" y="241"/>
    </contour>
    <contour>
      <point x="503" y="-5" type="curve"/>
      <point x="597" y="-5"/>
      <point x="633" y="39"/>
      <point x="633" y="152" type="curve"/>
      <point x="633" y="264"/>
      <point x="597" y="308"/>
      <point x="503" y="308" type="curve"/>
      <point x="409" y="308"/>
      <point x="373" y="264"/>
      <point x="373" y="152" type="curve"/>
      <point x="373" y="39"/>
      <point x="409" y="-5"/>
    </contour>
    <component base="fraction" xOffset="243"/>
  </outline>
</glyph>
<glyph name="ampersand" format="1">
  <advance width="690"/>
  <unicode hex="0026"/>
  <outline>
    <contour>
      <point x="435" y="119" type="line"/>
      <point x="418" y="108"/>
      <point x="374" y="101"/>
      <point x="323" y="101" type="curve" smooth="yes"/>
      <point x="198" y="101"/>
      <point x="156" y="164"/>
      <point x="156" y="337" type="curve"/>
      <point x="156" y="477"/>
      <point x="196" y="531"/>
      <point x="300" y="531" type="curve"/>
      <point x="373" y="531"/>
      <point x="402" y="497"/>
      <point x="402" y="453" type="curve" smooth="yes"/>
      <point x="402" y="379"/>
      <point x="345" y="340"/>
      <point x="115" y="342" type="curve"/>
      <point x="115" y="251" type="line"/>
      <point x="383" y="246"/>
      <point x="515" y="308"/>
      <point x="515" y="460" type="curve" smooth="yes"/>
      <point x="515" y="567"/>
      <point x="445" y="637"/>
      <point x="308" y="637" type="curve"/>
      <point x="128" y="637"/>
      <point x="35" y="534"/>
      <point x="35" y="326" type="curve"/>
      <point x="35" y="90"/>
      <point x="125" y="-9"/>
      <point x="321" y="-9" type="curve"/>
      <point x="428" y="-9"/>
      <point x="510" y="19"/>
      <point x="548" y="51" type="curve"/>
      <point x="548" y="262" type="line"/>
      <point x="677" y="262" type="line"/>
      <point x="677" y="360" type="line"/>
      <point x="435" y="360" type="line"/>
    </contour>
  </outline>
</glyph>
<glyph name="parenleft" format="1">
  <advance width="220"/>
  <unicode hex="0028"/>
  <outline>
    <contour>
      <point x="128" y="313" type="curve"/>
      <point x="128" y="427"/>
      <point x="143" y="581"/>
      <point x="195" y="685" type="curve"/>
      <point x="126" y="707" type="line"/>
      <point x="60" y="594"/>
      <point x="35" y="450"/>
      <point x="35" y="313" type="curve"/>
      <point x="35" y="177"/>
      <point x="62" y="33"/>
      <point x="126" y="-80" type="curve"/>
      <point x="197" y="-58" type="line"/>
      <point x="145" y="46"/>
      <point x="128" y="199"/>
    </contour>
  </outline>
</glyph>
<glyph name="asterisk" format="1">
  <advance width="372"/>
  <unicode hex="002A"/>
  <outline>
    <contour>
      <point x="175" y="433" type="line"/>
      <point x="199" y="495" type="line"/>
      <point x="46" y="556" type="line"/>
      <point x="19" y="480" type="line"/>
    </contour>
    <contour>
      <point x="213" y="444" type="line"/>
      <point x="161" y="487" type="line"/>
      <point x="57" y="359" type="line"/>
      <point x="122" y="311" type="line"/>
    </contour>
    <contour>
      <point x="212" y="487" type="line"/>
      <point x="159" y="445" type="line"/>
      <point x="247" y="310" type="line"/>
      <point x="314" y="357" type="line"/>
    </contour>
    <contour>
      <point x="173" y="497" type="line"/>
      <point x="195" y="434" type="line"/>
      <point x="353" y="477" type="line"/>
      <point x="328" y="554" type="line"/>
    </contour>
    <contour>
      <point x="152" y="464" type="line"/>
      <point x="219" y="464" type="line"/>
      <point x="226" y="627" type="line"/>
      <point x="145" y="627" type="line"/>
    </contour>
  </outline>
</glyph>
<glyph name="plus" format="1">
  <advance width="500"/>
  <unicode hex="002B"/>
  <outline>
    <contour>
      <point x="463" y="268" type="line"/>
      <point x="463" y="377" type="line"/>
      <point x="37" y="377" type="line"/>
      <point x="37" y="268" type="line"/>
    </contour>
    <contour>
      <point x="307" y="532" type="line"/>
      <point x="195" y="532" type="line"/>
      <point x="195" y="110" type="line"/>
      <point x="307" y="110" type="line"/>
    </contour>
  </outline>
</glyph>
<glyph name="comma" format="1">
  <advance width="182"/>
  <unicode hex="002C"/>
  <outline>
    <contour>
      <point x="124" y="-55" type="curve" smooth="yes"/>
      <point x="151" y="112" type="line"/>
      <point x="38" y="112" type="line"/>
      <point x="36" y="-95" type="line"/>
      <point x="75" y="-95" type="line" smooth="yes"/>
      <point x="102" y="-95"/>
      <point x="120" y="-80"/>
    </contour>
  </outline>
</glyph>
<glyph name="slash" format="1">
  <advance width="327"/>
  <unicode hex="002F"/>
  <outline>
    <contour>
      <point x="103" y="-80" type="line"/>
      <point x="312" y="707" type="line"/>
      <point x="225" y="707" type="line"/>
      <point x="15" y="-80" type="line"/>
    </contour>
  </outline>
</glyph>
<glyph name="zero" format="1">
  <advance width="569"/>
  <unicode hex="0030"/>
  <outline>
    <contour>
      <point x="285" y="529" type="curve"/>
      <point x="384" y="529"/>
      <point x="408" y="492"/>
      <point x="408" y="315" type="curve"/>
      <point x="408" y="143"/>
      <point x="382" y="104"/>
      <point x="285" y="104" type="curve"/>
      <point x="186" y="104"/>
      <point x="162" y="140"/>
      <point x="162" y="315" type="curve"/>
      <point x="162" y="489"/>
      <point x="188" y="529"/>
    </contour>
    <contour>
      <point x="285" y="-9" type="curve"/>
      <point x="457" y="-9"/>
      <point x="529" y="63"/>
      <point x="529" y="315" type="curve"/>
      <point x="529" y="569"/>
      <point x="475" y="637"/>
      <point x="285" y="637" type="curve"/>
      <point x="113" y="637"/>
      <point x="40" y="566"/>
      <point x="40" y="315" type="curve"/>
      <point x="40" y="59"/>
      <point x="95" y="-9"/>
    </contour>
  </outline>
</glyph>
<glyph name="one" format="1">
  <advance width="366"/>
  <unicode hex="0031"/>
  <outline>
    <contour>
      <point x="179" y="0" type="line"/>
      <point x="299" y="0" type="line"/>
      <point x="299" y="637" type="line"/>
      <point x="179" y="598" type="line"/>
    </contour>
    <contour>
      <point x="12" y="501" type="line"/>
      <point x="182" y="522" type="line"/>
      <point x="299" y="637" type="line"/>
      <point x="12" y="603" type="line"/>
    </contour>
  </outline>
</glyph>
<glyph name="two" format="1">
  <advance width="456"/>
  <unicode hex="0032"/>
  <outline>
    <contour>
      <point x="420" y="0" type="line"/>
      <point x="420" y="113" type="line"/>
      <point x="167" y="113" type="line"/>
      <point x="342" y="302" type="line" smooth="yes"/>
      <point x="391" y="355"/>
      <point x="416" y="404"/>
      <point x="416" y="476" type="curve"/>
      <point x="416" y="570"/>
      <point x="361" y="637"/>
      <point x="244" y="637" type="curve"/>
      <point x="172" y="637"/>
      <point x="102" y="627"/>
      <point x="55" y="614" type="curve"/>
      <point x="55" y="509" type="line"/>
      <point x="67" y="513"/>
      <point x="161" y="529"/>
      <point x="223" y="529" type="curve"/>
      <point x="278" y="529"/>
      <point x="296" y="496"/>
      <point x="296" y="460" type="curve"/>
      <point x="296" y="419"/>
      <point x="278" y="388"/>
      <point x="245" y="352" type="curve" smooth="yes"/>
      <point x="25" y="113" type="line"/>
      <point x="25" y="0" type="line"/>
    </contour>
  </outline>
</glyph>
<glyph name="three" format="1">
  <advance width="455"/>
  <unicode hex="0033"/>
  <outline>
    <contour>
      <point x="295" y="331" type="line"/>
      <point x="356" y="348"/>
      <point x="395" y="394"/>
      <point x="395" y="476" type="curve"/>
      <point x="395" y="580"/>
      <point x="339" y="637"/>
      <point x="227" y="637" type="curve"/>
      <point x="158" y="637"/>
      <point x="85" y="626"/>
      <point x="46" y="613" type="curve"/>
      <point x="46" y="514" type="line"/>
      <point x="55" y="517"/>
      <point x="140" y="531"/>
      <point x="193" y="531" type="curve"/>
      <point x="261" y="531"/>
      <point x="283" y="506"/>
      <point x="283" y="454" type="curve"/>
      <point x="283" y="400"/>
      <point x="249" y="372"/>
      <point x="183" y="372" type="curve"/>
      <point x="100" y="372" type="line"/>
      <point x="100" y="271" type="line"/>
      <point x="205" y="271" type="line"/>
      <point x="281" y="271"/>
      <point x="308" y="242"/>
      <point x="308" y="188" type="curve"/>
      <point x="308" y="127"/>
      <point x="273" y="101"/>
      <point x="188" y="101" type="curve"/>
      <point x="118" y="101"/>
      <point x="75" y="106"/>
      <point x="30" y="116" type="curve"/>
      <point x="30" y="12" type="line"/>
      <point x="64" y="-1"/>
      <point x="127" y="-9"/>
      <point x="208" y="-9" type="curve"/>
      <point x="341" y="-9"/>
      <point x="420" y="53"/>
      <point x="420" y="178" type="curve"/>
      <point x="420" y="272"/>
      <point x="377" y="323"/>
      <point x="295" y="329" type="curve"/>
    </contour>
  </outline>
</glyph>
<glyph name="five" format="1">
  <advance width="458"/>
  <unicode hex="0035"/>
  <outline>
    <contour>
      <point x="226" y="-9" type="curve"/>
      <point x="353" y="-9"/>
      <point x="429" y="56"/>
      <point x="429" y="187" type="curve" smooth="yes"/>
      <point x="429" y="340"/>
      <point x="351" y="371"/>
      <point x="255" y="371" type="curve" smooth="yes"/>
      <point x="229" y="371"/>
      <point x="203" y="369"/>
      <point x="182" y="367" type="curve"/>
      <point x="182" y="519" type="line"/>
      <point x="389" y="519" type="line"/>
      <point x="389" y="627" type="line"/>
      <point x="62" y="627" type="line"/>
      <point x="62" y="261" type="line"/>
      <point x="104" y="269"/>
      <point x="146" y="271"/>
      <point x="189" y="271" type="curve" smooth="yes"/>
      <point x="274" y="271"/>
      <point x="309" y="257"/>
      <point x="309" y="189" type="curve" smooth="yes"/>
      <point x="309" y="127"/>
      <point x="277" y="104"/>
      <point x="193" y="104" type="curve"/>
      <point x="130" y="104"/>
      <point x="80" y="109"/>
      <point x="35" y="118" type="curve"/>
      <point x="35" y="12" type="line"/>
      <point x="72" y="-2"/>
      <point x="139" y="-9"/>
    </contour>
  </outline>
</glyph>
<glyph name="six" format="1">
  <advance width="512"/>
  <unicode hex="0036"/>
  <outline>
    <contour>
      <point x="39" y="297" type="curve"/>
      <point x="39" y="69"/>
      <point x="99" y="-9"/>
      <point x="269" y="-9" type="curve"/>
      <point x="405" y="-9"/>
      <point x="485" y="73"/>
      <point x="485" y="212" type="curve"/>
      <point x="485" y="348"/>
      <point x="429" y="409"/>
      <point x="318" y="409" type="curve"/>
      <point x="236" y="409"/>
      <point x="189" y="385"/>
      <point x="150" y="363" type="curve"/>
      <point x="150" y="275" type="line"/>
      <point x="177" y="292"/>
      <point x="228" y="309"/>
      <point x="274" y="309" type="curve"/>
      <point x="342" y="309"/>
      <point x="369" y="288"/>
      <point x="369" y="207" type="curve"/>
      <point x="369" y="135"/>
      <point x="335" y="99"/>
      <point x="265" y="99" type="curve"/>
      <point x="181" y="99"/>
      <point x="158" y="140"/>
      <point x="158" y="287" type="curve"/>
      <point x="158" y="476"/>
      <point x="192" y="532"/>
      <point x="324" y="532" type="curve"/>
      <point x="367" y="532"/>
      <point x="401" y="529"/>
      <point x="420" y="527" type="curve"/>
      <point x="420" y="629" type="line"/>
      <point x="403" y="633"/>
      <point x="360" y="637"/>
      <point x="324" y="637" type="curve"/>
      <point x="122" y="637"/>
      <point x="39" y="531"/>
    </contour>
  </outline>
</glyph>
<glyph name="seven" format="1">
  <advance width="447"/>
  <unicode hex="0037"/>
  <outline>
    <contour>
      <point x="426" y="519" type="line"/>
      <point x="426" y="627" type="line"/>
      <point x="27" y="627" type="line"/>
      <point x="27" y="519" type="line"/>
      <point x="298" y="519" type="line"/>
      <point x="26" y="0" type="line"/>
      <point x="161" y="0" type="line"/>
    </contour>
  </outline>
</glyph>
<glyph name="eight" format="1">
  <advance width="519"/>
  <unicode hex="0038"/>
  <outline>
    <contour>
      <point x="259" y="-9" type="curve"/>
      <point x="414" y="-9"/>
      <point x="482" y="46"/>
      <point x="482" y="170" type="curve"/>
      <point x="482" y="249"/>
      <point x="443" y="307"/>
      <point x="366" y="323" type="curve"/>
      <point x="441" y="344"/>
      <point x="471" y="398"/>
      <point x="471" y="473" type="curve"/>
      <point x="471" y="590"/>
      <point x="411" y="637"/>
      <point x="259" y="637" type="curve"/>
      <point x="113" y="637"/>
      <point x="49" y="585"/>
      <point x="49" y="472" type="curve"/>
      <point x="48" y="398"/>
      <point x="77" y="343"/>
      <point x="153" y="323" type="curve"/>
      <point x="75" y="306"/>
      <point x="38" y="246"/>
      <point x="38" y="167" type="curve"/>
      <point x="38" y="42"/>
      <point x="101" y="-9"/>
    </contour>
    <contour>
      <point x="259" y="536" type="curve"/>
      <point x="334" y="536"/>
      <point x="364" y="512"/>
      <point x="364" y="455" type="curve"/>
      <point x="364" y="397"/>
      <point x="338" y="366"/>
      <point x="259" y="366" type="curve"/>
      <point x="180" y="366"/>
      <point x="156" y="397"/>
      <point x="156" y="454" type="curve"/>
      <point x="156" y="512"/>
      <point x="185" y="536"/>
    </contour>
    <contour>
      <point x="259" y="271" type="curve"/>
      <point x="337" y="271"/>
      <point x="370" y="246"/>
      <point x="370" y="186" type="curve"/>
      <point x="370" y="122"/>
      <point x="338" y="96"/>
      <point x="259" y="96" type="curve"/>
      <point x="182" y="96"/>
      <point x="150" y="121"/>
      <point x="150" y="184" type="curve"/>
      <point x="150" y="245"/>
      <point x="182" y="271"/>
    </contour>
  </outline>
</glyph>
<glyph name="nine" format="1">
  <advance width="512"/>
  <unicode hex="0039"/>
  <outline>
    <contour>
      <point x="473" y="331" type="curve"/>
      <point x="473" y="562"/>
      <point x="414" y="637"/>
      <point x="247" y="637" type="curve"/>
      <point x="108" y="637"/>
      <point x="27" y="557"/>
      <point x="27" y="419" type="curve"/>
      <point x="27" y="282"/>
      <point x="85" y="221"/>
      <point x="200" y="221" type="curve"/>
      <point x="273" y="221"/>
      <point x="323" y="244"/>
      <point x="362" y="267" type="curve"/>
      <point x="362" y="357" type="line"/>
      <point x="336" y="340"/>
      <point x="300" y="321"/>
      <point x="242" y="321" type="curve"/>
      <point x="171" y="321"/>
      <point x="144" y="342"/>
      <point x="144" y="425" type="curve"/>
      <point x="144" y="494"/>
      <point x="177" y="531"/>
      <point x="247" y="531" type="curve"/>
      <point x="332" y="531"/>
      <point x="353" y="490"/>
      <point x="353" y="342" type="curve"/>
      <point x="353" y="155"/>
      <point x="318" y="99"/>
      <point x="187" y="99" type="curve"/>
      <point x="142" y="99"/>
      <point x="108" y="101"/>
      <point x="87" y="104" type="curve"/>
      <point x="87" y="-1" type="line"/>
      <point x="105" y="-5"/>
      <point x="150" y="-9"/>
      <point x="187" y="-9" type="curve"/>
      <point x="389" y="-9"/>
      <point x="473" y="97"/>
    </contour>
  </outline>
</glyph>
<glyph name="less" format="1">
  <advance width="500"/>
  <unicode hex="003C"/>
  <outline>
    <contour>
      <point x="463" y="432" type="line"/>
      <point x="463" y="545" type="line"/>
      <point x="37" y="378" type="line"/>
      <point x="37" y="280" type="line"/>
    </contour>
    <contour>
      <point x="463" y="80" type="line"/>
      <point x="463" y="195" type="line"/>
      <point x="37" y="347" type="line"/>
      <point x="37" y="247" type="line"/>
    </contour>
  </outline>
</glyph>
<glyph name="question" format="1">
  <advance width="375"/>
  <unicode hex="003F"/>
  <outline>
    <contour>
      <point x="356" y="501" type="curve" smooth="yes"/>
      <point x="356" y="597"/>
      <point x="279" y="637"/>
      <point x="185" y="637" type="curve"/>
      <point x="121" y="637"/>
      <point x="70" y="628"/>
      <point x="20" y="609" type="curve"/>
      <point x="20" y="506" type="line"/>
      <point x="55" y="519"/>
      <point x="118" y="532"/>
      <point x="167" y="532" type="curve"/>
      <point x="209" y="532"/>
      <point x="243" y="518"/>
      <point x="243" y="474" type="curve" smooth="yes"/>
      <point x="243" y="418"/>
      <point x="176" y="375"/>
      <point x="108" y="338" type="curve"/>
      <point x="108" y="188" type="line"/>
      <point x="214" y="188" type="line"/>
      <point x="214" y="298" type="line"/>
      <point x="292" y="348"/>
      <point x="356" y="408"/>
    </contour>
    <contour>
      <point x="221" y="0" type="line"/>
      <point x="221" y="108" type="line"/>
      <point x="100" y="108" type="line"/>
      <point x="100" y="0" type="line"/>
    </contour>
  </outline>
</glyph>
<glyph name="at" format="1">
  <advance width="631"/>
  <unicode hex="0040"/>
  <outline>
    <contour>
      <point x="197" y="178" type="curve"/>
      <point x="197" y="111"/>
      <point x="227" y="79"/>
      <point x="290" y="79" type="curve"/>
      <point x="338" y="79"/>
      <point x="393" y="99"/>
      <point x="416" y="139" type="curve"/>
      <point x="390" y="172" type="line"/>
      <point x="381" y="161"/>
      <point x="348" y="146"/>
      <point x="313" y="146" type="curve"/>
      <point x="282" y="146"/>
      <point x="272" y="157"/>
      <point x="272" y="183" type="curve"/>
      <point x="272" y="211"/>
      <point x="284" y="218"/>
      <point x="327" y="218" type="curve"/>
      <point x="362" y="218"/>
      <point x="378" y="214"/>
      <point x="391" y="211" type="curve"/>
      <point x="391" y="264" type="line"/>
      <point x="379" y="268"/>
      <point x="347" y="273"/>
      <point x="315" y="273" type="curve"/>
      <point x="230" y="273"/>
      <point x="197" y="249"/>
    </contour>
    <contour>
      <point x="607" y="296" type="curve"/>
      <point x="607" y="456"/>
      <point x="520" y="557"/>
      <point x="336" y="557" type="curve"/>
      <point x="142" y="557"/>
      <point x="34" y="453"/>
      <point x="34" y="236" type="curve" smooth="yes"/>
      <point x="34" y="8"/>
      <point x="157" y="-76"/>
      <point x="338" y="-76" type="curve"/>
      <point x="420" y="-76"/>
      <point x="481" y="-60"/>
      <point x="523" y="-36" type="curve"/>
      <point x="523" y="43" type="line"/>
      <point x="474" y="16"/>
      <point x="411" y="5"/>
      <point x="359" y="5" type="curve"/>
      <point x="209" y="5"/>
      <point x="121" y="58"/>
      <point x="121" y="236" type="curve" smooth="yes"/>
      <point x="121" y="419"/>
      <point x="183" y="479"/>
      <point x="337" y="479" type="curve"/>
      <point x="486" y="479"/>
      <point x="526" y="385"/>
      <point x="526" y="286" type="curve"/>
      <point x="526" y="199"/>
      <point x="500" y="149"/>
      <point x="472" y="149" type="curve"/>
      <point x="459" y="149"/>
      <point x="456" y="159"/>
      <point x="456" y="173" type="curve" smooth="yes"/>
      <point x="456" y="299" type="line" smooth="yes"/>
      <point x="456" y="365"/>
      <point x="424" y="405"/>
      <point x="343" y="405" type="curve"/>
      <point x="296" y="405"/>
      <point x="259" y="402"/>
      <point x="226" y="394" type="curve"/>
      <point x="226" y="324" type="line"/>
      <point x="242" y="328"/>
      <point x="270" y="333"/>
      <point x="322" y="333" type="curve" smooth="yes"/>
      <point x="369" y="333"/>
      <point x="381" y="312"/>
      <point x="381" y="287" type="curve" smooth="yes"/>
      <point x="381" y="149" type="line"/>
      <point x="393" y="149" type="line"/>
      <point x="395" y="115"/>
      <point x="410" y="79"/>
      <point x="460" y="79" type="curve"/>
      <point x="550" y="79"/>
      <point x="607" y="168"/>
    </contour>
  </outline>
</glyph>
<glyph name="A" format="1">
  <advance width="607"/>
  <unicode hex="0041"/>
  <outline>
    <contour>
      <point x="3" y="0" type="line"/>
      <point x="129" y="0" type="line"/>
      <point x="252" y="354" type="line" smooth="yes"/>
      <point x="271" y="411"/>
      <point x="313" y="539"/>
      <point x="333" y="627" type="curve"/>
      <point x="243" y="627" type="line"/>
    </contour>
    <contour>
      <point x="603" y="0" type="line"/>
      <point x="367" y="627" type="line"/>
      <point x="271" y="627" type="line"/>
      <point x="292" y="536"/>
      <point x="333" y="412"/>
      <point x="353" y="354" type="curve" smooth="yes"/>
      <point x="477" y="0" type="line"/>
    </contour>
    <contour>
      <point x="131" y="128" type="line"/>
      <point x="466" y="128" type="line"/>
      <point x="466" y="227" type="line"/>
      <point x="131" y="227" type="line"/>
    </contour>
    <contour>
      <point x="304" y="645" type="move" name="top"/>
    </contour>
    <contour>
      <point x="600" y="0" type="move" name="ogonek"/>
    </contour>
  </outline>
</glyph>
<glyph name="B" format="1">
  <advance width="559"/>
  <unicode hex="0042"/>
  <outline>
    <contour>
      <point x="305" y="0" type="line" smooth="yes"/>
      <point x="467" y="0"/>
      <point x="530" y="59"/>
      <point x="530" y="182" type="curve"/>
      <point x="530" y="282"/>
      <point x="482" y="322"/>
      <point x="416" y="333" type="curve"/>
      <point x="464" y="347"/>
      <point x="500" y="371"/>
      <point x="500" y="468" type="curve"/>
      <point x="500" y="582"/>
      <point x="448" y="627"/>
      <point x="305" y="627" type="curve" smooth="yes"/>
      <point x="114" y="627" type="line"/>
      <point x="114" y="527" type="line"/>
      <point x="305" y="527" type="line" smooth="yes"/>
      <point x="369" y="527"/>
      <point x="389" y="506"/>
      <point x="389" y="451" type="curve"/>
      <point x="389" y="390"/>
      <point x="366" y="365"/>
      <point x="305" y="365" type="curve" smooth="yes"/>
      <point x="114" y="365" type="line"/>
      <point x="114" y="272" type="line"/>
      <point x="305" y="272" type="line" smooth="yes"/>
      <point x="388" y="272"/>
      <point x="414" y="249"/>
      <point x="414" y="190" type="curve"/>
      <point x="414" y="129"/>
      <point x="388" y="104"/>
      <point x="305" y="104" type="curve" smooth="yes"/>
      <point x="114" y="104" type="line"/>
      <point x="114" y="0" type="line"/>
    </contour>
    <contour>
      <point x="180" y="0" type="line"/>
      <point x="180" y="627" type="line"/>
      <point x="60" y="627" type="line"/>
      <point x="60" y="0" type="line"/>
    </contour>
  </outline>
</glyph>
<glyph name="C" format="1">
  <advance width="513"/>
  <unicode hex="0043"/>
  <outline>
    <contour>
      <point x="492" y="137" type="line"/>
      <point x="443" y="117"/>
      <point x="376" y="104"/>
      <point x="321" y="104" type="curve" smooth="yes"/>
      <point x="207" y="104"/>
      <point x="159" y="136"/>
      <point x="159" y="315" type="curve" smooth="yes"/>
      <point x="159" y="492"/>
      <point x="210" y="529"/>
      <point x="331" y="529" type="curve"/>
      <point x="383" y="529"/>
      <point x="429" y="527"/>
      <point x="478" y="523" type="curve"/>
      <point x="478" y="628" type="line"/>
      <point x="434" y="635"/>
      <point x="383" y="637"/>
      <point x="331" y="637" type="curve"/>
      <point x="138" y="637"/>
      <point x="36" y="552"/>
      <point x="36" y="315" type="curve" smooth="yes"/>
      <point x="36" y="55"/>
      <point x="126" y="-9"/>
      <point x="303" y="-9" type="curve" smooth="yes"/>
      <point x="389" y="-9"/>
      <point x="447" y="12"/>
      <point x="492" y="30" type="curve"/>
    </contour>
    <contour>
      <point x="306" y="655" type="move" name="top"/>
    </contour>
    <contour>
      <point x="296" y="0" type="move" name="bottom"/>
    </contour>
  </outline>
</glyph>
<glyph name="D" format="1">
  <advance width="604"/>
  <unicode hex="0044"/>
  <outline>
    <contour>
      <point x="76" y="519" type="line"/>
      <point x="261" y="519" type="line" smooth="yes"/>
      <point x="397" y="519"/>
      <point x="445" y="489"/>
      <point x="445" y="314" type="curve"/>
      <point x="445" y="148"/>
      <point x="391" y="113"/>
      <point x="261" y="113" type="curve" smooth="yes"/>
      <point x="78" y="113" type="line"/>
      <point x="78" y="0" type="line"/>
      <point x="261" y="0" type="line" smooth="yes"/>
      <point x="463" y="0"/>
      <point x="569" y="83"/>
      <point x="569" y="314" type="curve"/>
      <point x="569" y="572"/>
      <point x="479" y="627"/>
      <point x="261" y="627" type="curve" smooth="yes"/>
      <point x="76" y="627" type="line"/>
    </contour>
    <contour>
      <point x="180" y="0" type="line"/>
      <point x="180" y="627" type="line"/>
      <point x="60" y="627" type="line"/>
      <point x="60" y="0" type="line"/>
    </contour>
    <contour>
      <point x="286" y="645" type="move" name="top"/>
    </contour>
  </outline>
</glyph>
<glyph name="E" format="1">
  <advance width="514"/>
  <unicode hex="0045"/>
  <outline>
    <contour>
      <point x="484" y="0" type="line"/>
      <point x="484" y="113" type="line"/>
      <point x="180" y="113" type="line"/>
      <point x="180" y="268" type="line"/>
      <point x="438" y="268" type="line"/>
      <point x="438" y="371" type="line"/>
      <point x="180" y="371" type="line"/>
      <point x="180" y="519" type="line"/>
      <point x="475" y="519" type="line"/>
      <point x="475" y="627" type="line"/>
      <point x="60" y="627" type="line"/>
      <point x="60" y="0" type="line"/>
    </contour>
    <contour>
      <point x="278" y="645" type="move" name="top"/>
    </contour>
    <contour>
      <point x="440" y="0" type="move" name="ogonek"/>
    </contour>
  </outline>
</glyph>
<glyph name="F" format="1">
  <advance width="494"/>
  <unicode hex="0046"/>
  <outline>
    <contour>
      <point x="180" y="0" type="line"/>
      <point x="180" y="243" type="line"/>
      <point x="436" y="243" type="line"/>
      <point x="436" y="346" type="line"/>
      <point x="180" y="346" type="line"/>
      <point x="180" y="519" type="line"/>
      <point x="473" y="519" type="line"/>
      <point x="473" y="627" type="line"/>
      <point x="60" y="627" type="line"/>
      <point x="60" y="0" type="line"/>
    </contour>
  </outline>
</glyph>
<glyph name="G" format="1">
  <advance width="587"/>
  <unicode hex="0047"/>
  <outline>
    <contour>
      <point x="437" y="29" type="line"/>
      <point x="549" y="29" type="line"/>
      <point x="549" y="313" type="line"/>
      <point x="437" y="313" type="line"/>
    </contour>
    <contour>
      <point x="518" y="134" type="line"/>
      <point x="487" y="118"/>
      <point x="392" y="100"/>
      <point x="328" y="100" type="curve"/>
      <point x="208" y="100"/>
      <point x="160" y="129"/>
      <point x="160" y="314" type="curve" smooth="yes"/>
      <point x="160" y="488"/>
      <point x="211" y="529"/>
      <point x="338" y="529" type="curve" smooth="yes"/>
      <point x="406" y="529"/>
      <point x="471" y="526"/>
      <point x="515" y="522" type="curve"/>
      <point x="515" y="627" type="line"/>
      <point x="478" y="634"/>
      <point x="409" y="637"/>
      <point x="338" y="637" type="curve"/>
      <point x="140" y="637"/>
      <point x="36" y="549"/>
      <point x="36" y="314" type="curve" smooth="yes"/>
      <point x="36" y="51"/>
      <point x="133" y="-9"/>
      <point x="318" y="-9" type="curve"/>
      <point x="408" y="-9"/>
      <point x="519" y="15"/>
      <point x="549" y="29" type="curve"/>
    </contour>
    <contour>
      <point x="301" y="245" type="line"/>
      <point x="549" y="245" type="line"/>
      <point x="549" y="345" type="line"/>
      <point x="301" y="345" type="line"/>
    </contour>
    <contour>
      <point x="328" y="655" type="move" name="top"/>
    </contour>
    <contour>
      <point x="323" y="0" type="move" name="bottom"/>
    </contour>
  </outline>
</glyph>
<glyph name="J" format="1">
  <advance width="423"/>
  <unicode hex="004A"/>
  <outline>
    <contour>
      <point x="247" y="627" type="line"/>
      <point x="247" y="239" type="line" smooth="yes"/>
      <point x="247" y="131"/>
      <point x="215" y="104"/>
      <point x="115" y="104" type="curve"/>
      <point x="66" y="104"/>
      <point x="37" y="108"/>
      <point x="15" y="113" type="curve"/>
      <point x="15" y="3" type="line"/>
      <point x="36" y="-3"/>
      <point x="71" y="-9"/>
      <point x="129" y="-9" type="curve"/>
      <point x="294" y="-9"/>
      <point x="367" y="57"/>
      <point x="367" y="232" type="curve" smooth="yes"/>
      <point x="367" y="627" type="line"/>
    </contour>
    <contour>
      <point x="308" y="645" type="move" name="top"/>
    </contour>
  </outline>
</glyph>
<glyph name="K" format="1">
  <advance width="590"/>
  <unicode hex="004B"/>
  <outline>
    <contour>
      <point x="595" y="0" type="line"/>
      <point x="345" y="322" type="line"/>
      <point x="586" y="627" type="line"/>
      <point x="441" y="627" type="line"/>
      <point x="242" y="368" type="line"/>
      <point x="180" y="368" type="line"/>
      <point x="180" y="627" type="line"/>
      <point x="60" y="627" type="line"/>
      <point x="60" y="0" type="line"/>
      <point x="180" y="0" type="line"/>
      <point x="180" y="269" type="line"/>
      <point x="242" y="269" type="line"/>
      <point x="442" y="0" type="line"/>
    </contour>
    <contour>
      <point x="287" y="0" type="move" name="bottom"/>
    </contour>
  </outline>
</glyph>
<glyph name="M" format="1">
  <advance width="730"/>
  <unicode hex="004D"/>
  <outline>
    <contour>
      <point x="670" y="0" type="line"/>
      <point x="670" y="627" type="line"/>
      <point x="527" y="627" type="line"/>
      <point x="367" y="270" type="line"/>
      <point x="208" y="627" type="line"/>
      <point x="60" y="627" type="line"/>
      <point x="60" y="0" type="line"/>
      <point x="173" y="0" type="line"/>
      <point x="173" y="436" type="line"/>
      <point x="315" y="123" type="line"/>
      <point x="414" y="123" type="line"/>
      <point x="557" y="435" type="line"/>
      <point x="557" y="0" type="line"/>
    </contour>
  </outline>
</glyph>
<glyph name="N" format="1">
  <advance width="647"/>
  <unicode hex="004E"/>
  <outline>
    <contour>
      <point x="587" y="0" type="line"/>
      <point x="587" y="627" type="line"/>
      <point x="475" y="627" type="line"/>
      <point x="475" y="192" type="line"/>
      <point x="177" y="627" type="line"/>
      <point x="60" y="627" type="line"/>
      <point x="60" y="0" type="line"/>
      <point x="173" y="0" type="line"/>
      <point x="173" y="425" type="line"/>
      <point x="470" y="0" type="line"/>
    </contour>
    <contour>
      <point x="330" y="645" type="move" name="top"/>
    </contour>
    <contour>
      <point x="323" y="0" type="move" name="bottom"/>
    </contour>
  </outline>
</glyph>
<glyph name="O" format="1">
  <advance width="647"/>
  <unicode hex="004F"/>
  <outline>
    <contour>
      <point x="324" y="-9" type="curve"/>
      <point x="524" y="-9"/>
      <point x="611" y="84"/>
      <point x="611" y="315" type="curve"/>
      <point x="611" y="558"/>
      <point x="535" y="637"/>
      <point x="324" y="637" type="curve"/>
      <point x="123" y="637"/>
      <point x="36" y="544"/>
      <point x="36" y="315" type="curve"/>
      <point x="36" y="70"/>
      <point x="112" y="-9"/>
    </contour>
    <contour>
      <point x="324" y="104" type="curve" smooth="yes"/>
      <point x="198" y="104"/>
      <point x="158" y="132"/>
      <point x="158" y="315" type="curve"/>
      <point x="158" y="494"/>
      <point x="202" y="529"/>
      <point x="324" y="529" type="curve"/>
      <point x="449" y="529"/>
      <point x="489" y="500"/>
      <point x="489" y="315" type="curve"/>
      <point x="489" y="139"/>
      <point x="445" y="104"/>
    </contour>
    <contour>
      <point x="324" y="655" type="move" name="top"/>
    </contour>
  </outline>
</glyph>
<glyph name="P" format="1">
  <advance width="562"/>
  <unicode hex="0050"/>
  <outline>
    <contour>
      <point x="284" y="190" type="line" smooth="yes"/>
      <point x="452" y="190"/>
      <point x="539" y="257"/>
      <point x="539" y="415" type="curve"/>
      <point x="539" y="570"/>
      <point x="463" y="627"/>
      <point x="281" y="627" type="curve" smooth="yes"/>
      <point x="142" y="627" type="line"/>
      <point x="142" y="519" type="line"/>
      <point x="281" y="519" type="line" smooth="yes"/>
      <point x="377" y="519"/>
      <point x="417" y="493"/>
      <point x="417" y="415" type="curve"/>
      <point x="417" y="323"/>
      <point x="374" y="295"/>
      <point x="281" y="295" type="curve" smooth="yes"/>
      <point x="142" y="295" type="line"/>
      <point x="142" y="190" type="line"/>
    </contour>
    <contour>
      <point x="180" y="0" type="line"/>
      <point x="180" y="627" type="line"/>
      <point x="60" y="627" type="line"/>
      <point x="60" y="0" type="line"/>
    </contour>
  </outline>
</glyph>
<glyph name="Q" format="1">
  <advance width="647"/>
  <unicode hex="0051"/>
  <outline>
    <contour>
      <point x="317" y="62" type="line"/>
      <point x="462" y="-128" type="line"/>
      <point x="601" y="-128" type="line"/>
      <point x="452" y="62" type="line"/>
    </contour>
    <component base="O"/>
  </outline>
</glyph>
<glyph name="R" format="1">
  <advance width="578"/>
  <unicode hex="0052"/>
  <outline>
    <contour>
      <point x="284" y="214" type="line" smooth="yes"/>
      <point x="452" y="214"/>
      <point x="539" y="277"/>
      <point x="539" y="423" type="curve"/>
      <point x="539" y="572"/>
      <point x="463" y="627"/>
      <point x="281" y="627" type="curve" smooth="yes"/>
      <point x="142" y="627" type="line"/>
      <point x="142" y="519" type="line"/>
      <point x="281" y="519" type="line" smooth="yes"/>
      <point x="377" y="519"/>
      <point x="417" y="495"/>
      <point x="417" y="423" type="curve"/>
      <point x="417" y="339"/>
      <point x="374" y="314"/>
      <point x="281" y="314" type="curve" smooth="yes"/>
      <point x="142" y="314" type="line"/>
      <point x="142" y="214" type="line"/>
    </contour>
    <contour>
      <point x="180" y="0" type="line"/>
      <point x="180" y="627" type="line"/>
      <point x="60" y="627" type="line"/>
      <point x="60" y="0" type="line"/>
    </contour>
    <contour>
      <point x="259" y="236" type="line"/>
      <point x="414" y="0" type="line"/>
      <point x="558" y="0" type="line"/>
      <point x="394" y="236" type="line"/>
    </contour>
    <contour>
      <point x="277" y="645" type="move" name="top"/>
    </contour>
    <contour>
      <point x="287" y="0" type="move" name="bottom"/>
    </contour>
  </outline>
</glyph>
<glyph name="S" format="1">
  <advance width="497"/>
  <unicode hex="0053"/>
  <outline>
    <contour>
      <point x="161" y="282" type="curve" smooth="yes"/>
      <point x="300" y="249" type="line" smooth="yes"/>
      <point x="336" y="240"/>
      <point x="349" y="229"/>
      <point x="349" y="185" type="curve"/>
      <point x="349" y="130"/>
      <point x="334" y="104"/>
      <point x="243" y="104" type="curve"/>
      <point x="152" y="104"/>
      <point x="77" y="120"/>
      <point x="37" y="132" type="curve"/>
      <point x="37" y="19" type="line"/>
      <point x="71" y="6"/>
      <point x="148" y="-9"/>
      <point x="243" y="-9" type="curve"/>
      <point x="440" y="-9"/>
      <point x="473" y="85"/>
      <point x="473" y="189" type="curve"/>
      <point x="473" y="313"/>
      <point x="423" y="335"/>
      <point x="335" y="356" type="curve" smooth="yes"/>
      <point x="200" y="388" type="line" smooth="yes"/>
      <point x="166" y="396"/>
      <point x="154" y="413"/>
      <point x="154" y="447" type="curve"/>
      <point x="154" y="504"/>
      <point x="180" y="529"/>
      <point x="264" y="529" type="curve" smooth="yes"/>
      <point x="341" y="529"/>
      <point x="390" y="518"/>
      <point x="425" y="511" type="curve"/>
      <point x="425" y="619" type="line"/>
      <point x="390" y="629"/>
      <point x="344" y="637"/>
      <point x="266" y="637" type="curve" smooth="yes"/>
      <point x="107" y="637"/>
      <point x="36" y="574"/>
      <point x="36" y="439" type="curve"/>
      <point x="36" y="331"/>
      <point x="87" y="299"/>
    </contour>
    <contour>
      <point x="252" y="655" type="move" name="top"/>
    </contour>
    <contour>
      <point x="238" y="0" type="move" name="bottom"/>
    </contour>
  </outline>
</glyph>
<glyph name="T" format="1">
  <advance width="526"/>
  <unicode hex="0054"/>
  <outline>
    <contour>
      <point x="513" y="519" type="line"/>
      <point x="513" y="627" type="line"/>
      <point x="14" y="627" type="line"/>
      <point x="14" y="519" type="line"/>
      <point x="203" y="519" type="line"/>
      <point x="203" y="0" type="line"/>
      <point x="323" y="0" type="line"/>
      <point x="323" y="519" type="line"/>
    </contour>
    <contour>
      <point x="264" y="645" type="move" name="top"/>
    </contour>
    <contour>
      <point x="264" y="0" type="move" name="bottom"/>
    </contour>
  </outline>
</glyph>
<glyph name="U" format="1">
  <advance width="629"/>
  <unicode hex="0055"/>
  <outline>
    <contour>
      <point x="454" y="627" type="line"/>
      <point x="454" y="257" type="line" smooth="yes"/>
      <point x="454" y="141"/>
      <point x="421" y="104"/>
      <point x="314" y="104" type="curve"/>
      <point x="207" y="104"/>
      <point x="175" y="142"/>
      <point x="175" y="257" type="curve" smooth="yes"/>
      <point x="175" y="627" type="line"/>
      <point x="55" y="627" type="line"/>
      <point x="55" y="257" type="line" smooth="yes"/>
      <point x="55" y="79"/>
      <point x="126" y="-9"/>
      <point x="314" y="-9" type="curve"/>
      <point x="492" y="-9"/>
      <point x="574" y="80"/>
      <point x="574" y="257" type="curve" smooth="yes"/>
      <point x="574" y="627" type="line"/>
    </contour>
    <contour>
      <point x="313" y="645" type="move" name="top"/>
    </contour>
    <contour>
      <point x="475" y="29" type="move" name="ogonekalt"/>
    </contour>
  </outline>
</glyph>
<glyph name="V" format="1">
  <advance width="601"/>
  <unicode hex="0056"/>
  <outline>
    <contour>
      <point x="598" y="627" type="line"/>
      <point x="468" y="627" type="line"/>
      <point x="350" y="273" type="line" smooth="yes"/>
      <point x="332" y="216"/>
      <point x="299" y="88"/>
      <point x="280" y="0" type="curve"/>
      <point x="372" y="0" type="line"/>
    </contour>
    <contour>
      <point x="3" y="627" type="line"/>
      <point x="229" y="0" type="line"/>
      <point x="327" y="0" type="line"/>
      <point x="306" y="92"/>
      <point x="274" y="216"/>
      <point x="255" y="274" type="curve" smooth="yes"/>
      <point x="137" y="627" type="line"/>
    </contour>
  </outline>
</glyph>
<glyph name="W" format="1">
  <advance width="852"/>
  <unicode hex="0057"/>
  <outline>
    <contour>
      <point x="457" y="627" type="curve"/>
      <point x="365" y="627" type="line"/>
      <point x="276" y="273" type="line" smooth="yes"/>
      <point x="262" y="216"/>
      <point x="245" y="88"/>
      <point x="225" y="0" type="curve"/>
      <point x="314" y="0" type="line"/>
      <point x="384" y="263" type="line" smooth="yes"/>
      <point x="414" y="388"/>
      <point x="433" y="507"/>
    </contour>
    <contour>
      <point x="7" y="627" type="line"/>
      <point x="176" y="0" type="line"/>
      <point x="272" y="0" type="line"/>
      <point x="252" y="92"/>
      <point x="236" y="215"/>
      <point x="222" y="274" type="curve" smooth="yes"/>
      <point x="137" y="627" type="line"/>
    </contour>
    <contour>
      <point x="845" y="627" type="line"/>
      <point x="719" y="627" type="line"/>
      <point x="636" y="273" type="line" smooth="yes"/>
      <point x="622" y="215"/>
      <point x="605" y="88"/>
      <point x="586" y="0" type="curve"/>
      <point x="676" y="0" type="line"/>
    </contour>
    <contour>
      <point x="395" y="627" type="line"/>
      <point x="420" y="507"/>
      <point x="437" y="388"/>
      <point x="468" y="263" type="curve" smooth="yes"/>
      <point x="539" y="0" type="line"/>
      <point x="633" y="0" type="line"/>
      <point x="613" y="92"/>
      <point x="596" y="215"/>
      <point x="581" y="274" type="curve" smooth="yes"/>
      <point x="491" y="627" type="line"/>
    </contour>
    <contour>
      <point x="427" y="645" type="move" name="top"/>
    </contour>
  </outline>
</glyph>
<glyph name="X" format="1">
  <advance width="561"/>
  <unicode hex="0058"/>
  <outline>
    <contour>
      <point x="568" y="0" type="line"/>
      <point x="351" y="326" type="line"/>
      <point x="547" y="627" type="line"/>
      <point x="418" y="627" type="line"/>
      <point x="284" y="417" type="line"/>
      <point x="154" y="627" type="line"/>
      <point x="8" y="627" type="line"/>
      <point x="209" y="321" type="line"/>
      <point x="-3" y="0" type="line"/>
      <point x="129" y="0" type="line"/>
      <point x="273" y="229" type="line"/>
      <point x="421" y="0" type="line"/>
    </contour>
    <contour>
      <point x="285" y="645" type="move" name="top"/>
    </contour>
  </outline>
</glyph>
<glyph name="Y" format="1">
  <advance width="586"/>
  <unicode hex="0059"/>
  <outline>
    <contour>
      <point x="581" y="627" type="line"/>
      <point x="457" y="627" type="line"/>
      <point x="296" y="340" type="line"/>
      <point x="139" y="627" type="line"/>
      <point x="3" y="627" type="line"/>
      <point x="235" y="233" type="line"/>
      <point x="235" y="0" type="line"/>
      <point x="355" y="0" type="line"/>
      <point x="355" y="233" type="line"/>
    </contour>
    <contour>
      <point x="297" y="645" type="move" name="top"/>
    </contour>
  </outline>
</glyph>
<glyph name="Z" format="1">
  <advance width="506"/>
  <unicode hex="005A"/>
  <outline>
    <contour>
      <point x="485" y="0" type="line"/>
      <point x="485" y="113" type="line"/>
      <point x="158" y="113" type="line"/>
      <point x="466" y="519" type="line"/>
      <point x="466" y="627" type="line"/>
      <point x="50" y="627" type="line"/>
      <point x="50" y="519" type="line"/>
      <point x="331" y="519" type="line"/>
      <point x="21" y="113" type="line"/>
      <point x="21" y="0" type="line"/>
    </contour>
    <contour>
      <point x="261" y="645" type="move" name="top"/>
    </contour>
  </outline>
</glyph>
<glyph name="bracketleft" format="1">
  <advance width="253"/>
  <unicode hex="005B"/>
  <outline>
    <contour>
      <point x="230" y="-82" type="line"/>
      <point x="230" y="-4" type="line"/>
      <point x="144" y="-4" type="line"/>
      <point x="144" y="631" type="line"/>
      <point x="230" y="631" type="line"/>
      <point x="230" y="707" type="line"/>
      <point x="59" y="707" type="line"/>
      <point x="59" y="-82" type="line"/>
    </contour>
  </outline>
</glyph>
<glyph name="backslash" format="1">
  <advance width="326"/>
  <unicode hex="005C"/>
  <outline>
    <contour>
      <point x="311" y="-80" type="line"/>
      <point x="102" y="707" type="line"/>
      <point x="14" y="707" type="line"/>
      <point x="224" y="-80" type="line"/>
    </contour>
  </outline>
</glyph>
<glyph name="asciicircum" format="1">
  <advance width="500"/>
  <unicode hex="005E"/>
  <outline>
    <contour>
      <point x="319" y="365" type="line"/>
      <point x="425" y="365" type="line"/>
      <point x="299" y="627" type="line"/>
      <point x="207" y="627" type="line"/>
    </contour>
    <contour>
      <point x="75" y="365" type="line"/>
      <point x="182" y="365" type="line"/>
      <point x="295" y="627" type="line"/>
      <point x="202" y="627" type="line"/>
    </contour>
  </outline>
</glyph>
<glyph name="a" format="1">
  <advance width="492"/>
  <unicode hex="0061"/>
  <outline>
    <contour>
      <point x="24" y="146" type="curve"/>
      <point x="24" y="40"/>
      <point x="69" y="-9"/>
      <point x="171" y="-9" type="curve"/>
      <point x="236" y="-9"/>
      <point x="303" y="22"/>
      <point x="339" y="55" type="curve"/>
      <point x="339" y="131" type="line"/>
      <point x="321" y="114"/>
      <point x="262" y="90"/>
      <point x="206" y="90" type="curve"/>
      <point x="152" y="90"/>
      <point x="133" y="108"/>
      <point x="133" y="153" type="curve"/>
      <point x="133" y="198"/>
      <point x="154" y="213"/>
      <point x="227" y="213" type="curve"/>
      <point x="283" y="213"/>
      <point x="315" y="207"/>
      <point x="341" y="201" type="curve"/>
      <point x="341" y="281" type="line"/>
      <point x="320" y="288"/>
      <point x="268" y="296"/>
      <point x="213" y="296" type="curve"/>
      <point x="75" y="296"/>
      <point x="24" y="256"/>
    </contour>
    <contour>
      <point x="333" y="0" type="line"/>
      <point x="440" y="0" type="line"/>
      <point x="440" y="338" type="line" smooth="yes"/>
      <point x="440" y="449"/>
      <point x="380" y="504"/>
      <point x="259" y="504" type="curve" smooth="yes"/>
      <point x="181" y="504"/>
      <point x="123" y="499"/>
      <point x="71" y="486" type="curve"/>
      <point x="71" y="389" type="line"/>
      <point x="104" y="396"/>
      <point x="146" y="402"/>
      <point x="224" y="402" type="curve" smooth="yes"/>
      <point x="297" y="402"/>
      <point x="324" y="376"/>
      <point x="324" y="327" type="curve" smooth="yes"/>
      <point x="324" y="44" type="line"/>
      <point x="328" y="44" type="line"/>
    </contour>
    <contour>
      <point x="248" y="530" type="move" name="top"/>
    </contour>
    <contour>
      <point x="440" y="0" type="move" name="ogonek"/>
    </contour>
  </outline>
</glyph>
<glyph name="b" format="1">
  <advance width="541"/>
  <unicode hex="0062"/>
  <outline>
    <contour>
      <point x="54" y="18" type="line"/>
      <point x="170" y="12" type="line"/>
      <point x="170" y="665" type="line"/>
      <point x="54" y="665" type="line"/>
    </contour>
    <contour>
      <point x="144" y="360" type="line"/>
      <point x="167" y="378"/>
      <point x="219" y="400"/>
      <point x="281" y="400" type="curve"/>
      <point x="363" y="400"/>
      <point x="391" y="376"/>
      <point x="391" y="251" type="curve" smooth="yes"/>
      <point x="391" y="125"/>
      <point x="362" y="99"/>
      <point x="265" y="99" type="curve"/>
      <point x="203" y="99"/>
      <point x="166" y="106"/>
      <point x="142" y="119" type="curve"/>
      <point x="54" y="18" type="line"/>
      <point x="107" y="2"/>
      <point x="181" y="-9"/>
      <point x="273" y="-9" type="curve"/>
      <point x="434" y="-9"/>
      <point x="507" y="62"/>
      <point x="507" y="251" type="curve" smooth="yes"/>
      <point x="507" y="439"/>
      <point x="451" y="504"/>
      <point x="323" y="504" type="curve"/>
      <point x="247" y="504"/>
      <point x="179" y="474"/>
      <point x="143" y="448" type="curve"/>
    </contour>
  </outline>
</glyph>
<glyph name="c" format="1">
  <advance width="434"/>
  <unicode hex="0063"/>
  <outline>
    <contour>
      <point x="411" y="28" type="curve"/>
      <point x="411" y="125" type="line"/>
      <point x="386" y="116"/>
      <point x="323" y="99"/>
      <point x="252" y="99" type="curve"/>
      <point x="170" y="99"/>
      <point x="151" y="127"/>
      <point x="151" y="248" type="curve" smooth="yes"/>
      <point x="151" y="375"/>
      <point x="175" y="400"/>
      <point x="282" y="400" type="curve"/>
      <point x="345" y="400"/>
      <point x="372" y="396"/>
      <point x="398" y="394" type="curve"/>
      <point x="398" y="497" type="line"/>
      <point x="376" y="500"/>
      <point x="346" y="504"/>
      <point x="282" y="504" type="curve"/>
      <point x="103" y="504"/>
      <point x="35" y="438"/>
      <point x="35" y="248" type="curve" smooth="yes"/>
      <point x="35" y="58"/>
      <point x="85" y="-9"/>
      <point x="227" y="-9" type="curve"/>
      <point x="313" y="-9"/>
      <point x="384" y="12"/>
    </contour>
    <contour>
      <point x="262" y="530" type="move" name="top"/>
    </contour>
    <contour>
      <point x="246" y="0" type="move" name="bottom"/>
    </contour>
  </outline>
</glyph>
<glyph name="d" format="1">
  <advance width="541"/>
  <unicode hex="0064"/>
  <outline>
    <contour>
      <point x="487" y="665" type="line"/>
      <point x="371" y="665" type="line"/>
      <point x="371" y="46" type="line"/>
      <point x="378" y="46" type="line"/>
      <point x="385" y="0" type="line"/>
      <point x="487" y="0" type="line"/>
    </contour>
    <contour>
      <point x="396" y="142" type="line"/>
      <point x="372" y="122"/>
      <point x="329" y="99"/>
      <point x="260" y="99" type="curve"/>
      <point x="178" y="99"/>
      <point x="150" y="122"/>
      <point x="150" y="248" type="curve" smooth="yes"/>
      <point x="150" y="374"/>
      <point x="179" y="400"/>
      <point x="276" y="400" type="curve"/>
      <point x="340" y="400"/>
      <point x="367" y="386"/>
      <point x="391" y="373" type="curve"/>
      <point x="416" y="455" type="line"/>
      <point x="393" y="488"/>
      <point x="332" y="504"/>
      <point x="260" y="504" type="curve"/>
      <point x="107" y="504"/>
      <point x="34" y="437"/>
      <point x="34" y="248" type="curve" smooth="yes"/>
      <point x="34" y="59"/>
      <point x="90" y="-9"/>
      <point x="218" y="-9" type="curve"/>
      <point x="303" y="-9"/>
      <point x="372" y="21"/>
      <point x="412" y="101" type="curve"/>
    </contour>
    <contour>
      <point x="547" y="665" type="move" name="caronalt"/>
    </contour>
  </outline>
</glyph>
<glyph name="e" format="1">
  <advance width="499"/>
  <unicode hex="0065"/>
  <outline>
    <contour>
      <point x="259" y="403" type="curve"/>
      <point x="336" y="403"/>
      <point x="359" y="379"/>
      <point x="360" y="313" type="curve"/>
      <point x="360" y="306"/>
      <point x="360" y="297"/>
      <point x="360" y="292" type="curve"/>
      <point x="151" y="292" type="line"/>
      <point x="151" y="375"/>
      <point x="176" y="403"/>
    </contour>
    <contour>
      <point x="445" y="27" type="curve"/>
      <point x="445" y="121" type="line"/>
      <point x="417" y="112"/>
      <point x="347" y="97"/>
      <point x="273" y="97" type="curve" smooth="yes"/>
      <point x="189" y="97"/>
      <point x="152" y="120"/>
      <point x="151" y="209" type="curve"/>
      <point x="461" y="209" type="line"/>
      <point x="464" y="238"/>
      <point x="466" y="258"/>
      <point x="466" y="296" type="curve"/>
      <point x="466" y="444"/>
      <point x="413" y="504"/>
      <point x="259" y="504" type="curve"/>
      <point x="104" y="504"/>
      <point x="34" y="427"/>
      <point x="34" y="249" type="curve" smooth="yes"/>
      <point x="34" y="64"/>
      <point x="99" y="-9"/>
      <point x="255" y="-9" type="curve" smooth="yes"/>
      <point x="342" y="-9"/>
      <point x="417" y="10"/>
    </contour>
    <contour>
      <point x="260" y="530" type="move" name="top"/>
    </contour>
    <contour>
      <point x="407" y="13" type="move" name="ogonekalt"/>
    </contour>
  </outline>
</glyph>
<glyph name="f" format="1">
  <advance width="357"/>
  <unicode hex="0066"/>
  <outline>
    <contour>
      <point x="360" y="666" type="line"/>
      <point x="345" y="669"/>
      <point x="309" y="675"/>
      <point x="269" y="675" type="curve"/>
      <point x="146" y="675"/>
      <point x="88" y="615"/>
      <point x="88" y="499" type="curve"/>
      <point x="88" y="0" type="line"/>
      <point x="204" y="0" type="line"/>
      <point x="204" y="508" type="line"/>
      <point x="204" y="564"/>
      <point x="223" y="579"/>
      <point x="290" y="579" type="curve"/>
      <point x="317" y="579"/>
      <point x="346" y="576"/>
      <point x="360" y="574" type="curve"/>
    </contour>
    <contour>
      <point x="22" y="397" type="line"/>
      <point x="345" y="397" type="line"/>
      <point x="345" y="494" type="line"/>
      <point x="22" y="494" type="line"/>
    </contour>
  </outline>
</glyph>
<glyph name="g" format="1">
  <advance width="540"/>
  <unicode hex="0067"/>
  <outline>
    <contour>
      <point x="94" y="-138" type="line"/>
      <point x="125" y="-150"/>
      <point x="186" y="-162"/>
      <point x="267" y="-162" type="curve"/>
      <point x="431" y="-162"/>
      <point x="486" y="-96"/>
      <point x="486" y="83" type="curve" smooth="yes"/>
      <point x="486" y="485" type="line"/>
      <point x="370" y="485" type="line"/>
      <point x="370" y="48" type="line" smooth="yes"/>
      <point x="369" y="-32"/>
      <point x="340" y="-57"/>
      <point x="256" y="-57" type="curve"/>
      <point x="184" y="-57"/>
      <point x="118" y="-46"/>
      <point x="94" y="-38" type="curve"/>
    </contour>
    <contour>
      <point x="398" y="178" type="line"/>
      <point x="358" y="158"/>
      <point x="301" y="142"/>
      <point x="253" y="142" type="curve"/>
      <point x="173" y="142"/>
      <point x="151" y="162"/>
      <point x="151" y="269" type="curve" smooth="yes"/>
      <point x="151" y="382"/>
      <point x="173" y="400"/>
      <point x="278" y="400" type="curve"/>
      <point x="335" y="400"/>
      <point x="380" y="391"/>
      <point x="401" y="383" type="curve"/>
      <point x="486" y="485" type="line"/>
      <point x="449" y="493"/>
      <point x="355" y="504"/>
      <point x="278" y="504" type="curve"/>
      <point x="105" y="504"/>
      <point x="35" y="442"/>
      <point x="35" y="269" type="curve" smooth="yes"/>
      <point x="35" y="96"/>
      <point x="88" y="34"/>
      <point x="214" y="34" type="curve"/>
      <point x="284" y="34"/>
      <point x="350" y="61"/>
      <point x="398" y="92" type="curve"/>
    </contour>
    <contour>
      <point x="277" y="530" type="move" name="top"/>
    </contour>
  </outline>
</glyph>
<glyph name="h" format="1">
  <advance width="553"/>
  <unicode hex="0068"/>
  <outline>
    <contour>
      <point x="55" y="0" type="line"/>
      <point x="171" y="0" type="line"/>
      <point x="171" y="665" type="line"/>
      <point x="55" y="665" type="line"/>
    </contour>
    <contour>
      <point x="148" y="363" type="line"/>
      <point x="176" y="379"/>
      <point x="238" y="400"/>
      <point x="300" y="400" type="curve" smooth="yes"/>
      <point x="361" y="400"/>
      <point x="386" y="377"/>
      <point x="386" y="327" type="curve" smooth="yes"/>
      <point x="386" y="0" type="line"/>
      <point x="502" y="0" type="line"/>
      <point x="502" y="342" type="line" smooth="yes"/>
      <point x="502" y="451"/>
      <point x="445" y="504"/>
      <point x="336" y="504" type="curve" smooth="yes"/>
      <point x="262" y="504"/>
      <point x="194" y="472"/>
      <point x="148" y="443" type="curve"/>
    </contour>
    <contour>
      <point x="113" y="682" type="move" name="top"/>
    </contour>
  </outline>
</glyph>
<glyph name="j" format="1">
  <advance width="233"/>
  <unicode hex="006A"/>
  <outline>
    <contour>
      <point x="-59" y="-156" type="line"/>
      <point x="-42" y="-158"/>
      <point x="-26" y="-162"/>
      <point x="15" y="-162" type="curve"/>
      <point x="117" y="-162"/>
      <point x="179" y="-109"/>
      <point x="179" y="5" type="curve"/>
      <point x="179" y="494" type="line"/>
      <point x="63" y="494" type="line"/>
      <point x="63" y="19" type="line"/>
      <point x="63" y="-41"/>
      <point x="42" y="-61"/>
      <point x="-23" y="-61" type="curve"/>
      <point x="-36" y="-61"/>
      <point x="-47" y="-60"/>
      <point x="-59" y="-58" type="curve"/>
    </contour>
    <contour>
      <point x="59" y="564" type="line"/>
      <point x="182" y="564" type="line"/>
      <point x="182" y="665" type="line"/>
      <point x="59" y="665" type="line"/>
    </contour>
  </outline>
</glyph>
<glyph name="k" format="1">
  <advance width="506"/>
  <unicode hex="006B"/>
  <outline>
    <contour>
      <point x="366" y="0" type="line"/>
      <point x="509" y="0" type="line"/>
      <point x="310" y="255" type="line"/>
      <point x="178" y="251" type="line"/>
    </contour>
    <contour>
      <point x="361" y="494" type="line"/>
      <point x="178" y="251" type="line"/>
      <point x="310" y="255" type="line"/>
      <point x="499" y="494" type="line"/>
    </contour>
    <contour>
      <point x="133" y="203" type="line"/>
      <point x="290" y="203" type="line"/>
      <point x="290" y="297" type="line"/>
      <point x="133" y="297" type="line"/>
    </contour>
    <component base="l"/>
    <contour>
      <point x="260" y="0" type="move" name="bottom"/>
    </contour>
  </outline>
</glyph>
<glyph name="l" format="1">
  <advance width="225"/>
  <unicode hex="006C"/>
  <outline>
    <contour>
      <point x="171" y="0" type="line"/>
      <point x="171" y="665" type="line"/>
      <point x="55" y="665" type="line"/>
      <point x="55" y="0" type="line"/>
    </contour>
    <contour>
      <point x="113" y="682" type="move" name="top"/>
    </contour>
    <contour>
      <point x="231" y="665" type="move" name="caronalt"/>
    </contour>
    <contour>
      <point x="113" y="0" type="move" name="bottom"/>
    </contour>
  </outline>
</glyph>
<glyph name="m" format="1">
  <advance width="796"/>
  <unicode hex="006D"/>
  <outline>
    <contour>
      <point x="55" y="0" type="line"/>
      <point x="171" y="0" type="line"/>
      <point x="171" y="421" type="line"/>
      <point x="162" y="494" type="line"/>
      <point x="55" y="494" type="line"/>
    </contour>
    <contour>
      <point x="148" y="365" type="line"/>
      <point x="172" y="378"/>
      <point x="218" y="400"/>
      <point x="265" y="400" type="curve" smooth="yes"/>
      <point x="319" y="400"/>
      <point x="342" y="379"/>
      <point x="342" y="334" type="curve" smooth="yes"/>
      <point x="342" y="0" type="line"/>
      <point x="458" y="0" type="line"/>
      <point x="458" y="349" type="line" smooth="yes"/>
      <point x="458" y="453"/>
      <point x="409" y="504"/>
      <point x="314" y="504" type="curve" smooth="yes"/>
      <point x="259" y="504"/>
      <point x="209" y="481"/>
      <point x="170" y="457" type="curve"/>
      <point x="148" y="457" type="line"/>
    </contour>
    <contour>
      <point x="431" y="365" type="line"/>
      <point x="455" y="380"/>
      <point x="504" y="400"/>
      <point x="552" y="400" type="curve" smooth="yes"/>
      <point x="606" y="400"/>
      <point x="629" y="379"/>
      <point x="629" y="334" type="curve" smooth="yes"/>
      <point x="629" y="0" type="line"/>
      <point x="745" y="0" type="line"/>
      <point x="745" y="349" type="line" smooth="yes"/>
      <point x="745" y="453"/>
      <point x="696" y="504"/>
      <point x="601" y="504" type="curve" smooth="yes"/>
      <point x="535" y="504"/>
      <point x="475" y="479"/>
      <point x="435" y="453" type="curve"/>
      <point x="431" y="453" type="line"/>
    </contour>
  </outline>
</glyph>
<glyph name="n" format="1">
  <advance width="554"/>
  <unicode hex="006E"/>
  <outline>
    <contour>
      <point x="55" y="0" type="line"/>
      <point x="171" y="0" type="line"/>
      <point x="171" y="444" type="line"/>
      <point x="160" y="444" type="line"/>
      <point x="155" y="494" type="line"/>
      <point x="55" y="494" type="line"/>
    </contour>
    <contour>
      <point x="148" y="350" type="line"/>
      <point x="179" y="375"/>
      <point x="231" y="400"/>
      <point x="293" y="400" type="curve" smooth="yes"/>
      <point x="353" y="400"/>
      <point x="386" y="377"/>
      <point x="386" y="327" type="curve" smooth="yes"/>
      <point x="386" y="0" type="line"/>
      <point x="502" y="0" type="line"/>
      <point x="502" y="342" type="line" smooth="yes"/>
      <point x="502" y="451"/>
      <point x="441" y="504"/>
      <point x="334" y="504" type="curve" smooth="yes"/>
      <point x="258" y="504"/>
      <point x="202" y="484"/>
      <point x="148" y="430" type="curve"/>
    </contour>
    <contour>
      <point x="279" y="530" type="move" name="top"/>
    </contour>
    <contour>
      <point x="-55" y="665" type="move" name="caronalt"/>
    </contour>
    <contour>
      <point x="278" y="0" type="move" name="bottom"/>
    </contour>
  </outline>
</glyph>
<glyph name="q" format="1">
  <advance width="541"/>
  <unicode hex="0071"/>
  <outline>
    <contour>
      <point x="487" y="-152" type="line"/>
      <point x="487" y="485" type="line"/>
      <point x="371" y="485" type="line"/>
      <point x="371" y="-152" type="line"/>
    </contour>
    <contour>
      <point x="399" y="134" type="line"/>
      <point x="359" y="114"/>
      <point x="301" y="99"/>
      <point x="253" y="99" type="curve"/>
      <point x="173" y="99"/>
      <point x="150" y="122"/>
      <point x="150" y="248" type="curve" smooth="yes"/>
      <point x="150" y="380"/>
      <point x="173" y="400"/>
      <point x="278" y="400" type="curve"/>
      <point x="335" y="400"/>
      <point x="380" y="391"/>
      <point x="402" y="383" type="curve"/>
      <point x="487" y="485" type="line"/>
      <point x="449" y="494"/>
      <point x="356" y="504"/>
      <point x="278" y="504" type="curve"/>
      <point x="105" y="504"/>
      <point x="34" y="437"/>
      <point x="34" y="248" type="curve" smooth="yes"/>
      <point x="34" y="58"/>
      <point x="87" y="-9"/>
      <point x="213" y="-9" type="curve"/>
      <point x="284" y="-9"/>
      <point x="352" y="17"/>
      <point x="399" y="48" type="curve"/>
    </contour>
  </outline>
</glyph>
<glyph name="r" format="1">
  <advance width="354"/>
  <unicode hex="0072"/>
  <outline>
    <contour>
      <point x="55" y="0" type="line"/>
      <point x="171" y="0" type="line"/>
      <point x="171" y="421" type="line"/>
      <point x="162" y="494" type="line"/>
      <point x="55" y="494" type="line"/>
    </contour>
    <contour>
      <point x="148" y="355" type="line"/>
      <point x="174" y="372"/>
      <point x="220" y="390"/>
      <point x="290" y="390" type="curve"/>
      <point x="310" y="390"/>
      <point x="326" y="390"/>
      <point x="338" y="387" type="curve"/>
      <point x="338" y="499" type="line"/>
      <point x="334" y="500"/>
      <point x="328" y="500"/>
      <point x="319" y="500" type="curve"/>
      <point x="263" y="500"/>
      <point x="210" y="478"/>
      <point x="170" y="454" type="curve"/>
      <point x="148" y="454" type="line"/>
    </contour>
    <contour>
      <point x="196" y="523" type="move" name="top"/>
    </contour>
    <contour>
      <point x="112" y="0" type="move" name="bottom"/>
    </contour>
  </outline>
</glyph>
<glyph name="s" format="1">
  <advance width="440"/>
  <unicode hex="0073"/>
  <outline>
    <contour>
      <point x="148" y="348" type="curve" smooth="yes"/>
      <point x="148" y="388"/>
      <point x="159" y="404"/>
      <point x="240" y="404" type="curve" smooth="yes"/>
      <point x="297" y="404"/>
      <point x="347" y="400"/>
      <point x="378" y="395" type="curve"/>
      <point x="378" y="494" type="line"/>
      <point x="352" y="498"/>
      <point x="311" y="504"/>
      <point x="233" y="504" type="curve" smooth="yes"/>
      <point x="76" y="504"/>
      <point x="33" y="434"/>
      <point x="33" y="345" type="curve" smooth="yes"/>
      <point x="33" y="267"/>
      <point x="62" y="224"/>
      <point x="132" y="215" type="curve" smooth="yes"/>
      <point x="257" y="197" type="line" smooth="yes"/>
      <point x="284" y="193"/>
      <point x="296" y="182"/>
      <point x="296" y="157" type="curve" smooth="yes"/>
      <point x="296" y="108"/>
      <point x="274" y="95"/>
      <point x="207" y="95" type="curve" smooth="yes"/>
      <point x="129" y="95"/>
      <point x="66" y="107"/>
      <point x="40" y="114" type="curve"/>
      <point x="40" y="11" type="line"/>
      <point x="74" y="1"/>
      <point x="135" y="-9"/>
      <point x="227" y="-9" type="curve" smooth="yes"/>
      <point x="339" y="-9"/>
      <point x="412" y="23"/>
      <point x="412" y="164" type="curve" smooth="yes"/>
      <point x="412" y="249"/>
      <point x="383" y="282"/>
      <point x="306" y="293" type="curve" smooth="yes"/>
      <point x="183" y="311" type="line" smooth="yes"/>
      <point x="161" y="314"/>
      <point x="148" y="323"/>
    </contour>
    <contour>
      <point x="222" y="530" type="move" name="top"/>
    </contour>
    <contour>
      <point x="215" y="0" type="move" name="bottom"/>
    </contour>
  </outline>
</glyph>
<glyph name="t" format="1">
  <advance width="376"/>
  <unicode hex="0074"/>
  <outline>
    <contour>
      <point x="364" y="9" type="curve"/>
      <point x="364" y="108" type="line"/>
      <point x="348" y="104"/>
      <point x="313" y="99"/>
      <point x="287" y="99" type="curve" smooth="yes"/>
      <point x="217" y="99"/>
      <point x="200" y="120"/>
      <point x="200" y="175" type="curve" smooth="yes"/>
      <point x="200" y="612" type="line"/>
      <point x="103" y="612" type="line"/>
      <point x="84" y="472" type="line"/>
      <point x="84" y="171" type="line" smooth="yes"/>
      <point x="84" y="44"/>
      <point x="132" y="-9"/>
      <point x="261" y="-9" type="curve" smooth="yes"/>
      <point x="301" y="-9"/>
      <point x="347" y="2"/>
    </contour>
    <contour>
      <point x="18" y="397" type="line"/>
      <point x="358" y="397" type="line"/>
      <point x="358" y="494" type="line"/>
      <point x="18" y="494" type="line"/>
    </contour>
    <contour>
      <point x="260" y="723" type="move" name="caronalt"/>
    </contour>
    <contour>
      <point x="232" y="0" type="move" name="bottom"/>
    </contour>
  </outline>
</glyph>
<glyph name="u" format="1">
  <advance width="535"/>
  <unicode hex="0075"/>
  <outline>
    <contour>
      <point x="52" y="157" type="line" smooth="yes"/>
      <point x="52" y="46"/>
      <point x="107" y="-9"/>
      <point x="217" y="-9" type="curve" smooth="yes"/>
      <point x="277" y="-9"/>
      <point x="342" y="19"/>
      <point x="394" y="49" type="curve"/>
      <point x="394" y="136" type="line"/>
      <point x="367" y="120"/>
      <point x="312" y="100"/>
      <point x="253" y="100" type="curve" smooth="yes"/>
      <point x="192" y="100"/>
      <point x="168" y="122"/>
      <point x="168" y="172" type="curve" smooth="yes"/>
      <point x="168" y="494" type="line"/>
      <point x="52" y="494" type="line"/>
    </contour>
    <contour>
      <point x="480" y="494" type="line"/>
      <point x="364" y="494" type="line"/>
      <point x="364" y="34" type="line"/>
      <point x="369" y="34" type="line"/>
      <point x="373" y="0" type="line"/>
      <point x="480" y="0" type="line"/>
    </contour>
    <contour>
      <point x="270" y="520" type="move" name="top"/>
    </contour>
    <contour>
      <point x="480" y="0" type="move" name="ogonek"/>
    </contour>
  </outline>
</glyph>
<glyph name="v" format="1">
  <advance width="504"/>
  <unicode hex="0076"/>
  <outline>
    <contour>
      <point x="499" y="494" type="line"/>
      <point x="372" y="494" type="line"/>
      <point x="253" y="106" type="line"/>
      <point x="133" y="494" type="line"/>
      <point x="5" y="494" type="line"/>
      <point x="186" y="0" type="line"/>
      <point x="319" y="0" type="line"/>
    </contour>
  </outline>
</glyph>
<glyph name="w" format="1">
  <advance width="727"/>
  <unicode hex="0077"/>
  <outline>
    <contour>
      <point x="717" y="494" type="line"/>
      <point x="590" y="494" type="line"/>
      <point x="513" y="107" type="line"/>
      <point x="417" y="494" type="line"/>
      <point x="306" y="494" type="line"/>
      <point x="214" y="107" type="line"/>
      <point x="137" y="494" type="line"/>
      <point x="10" y="494" type="line"/>
      <point x="145" y="0" type="line"/>
      <point x="279" y="0" type="line"/>
      <point x="358" y="334" type="line"/>
      <point x="446" y="0" type="line"/>
      <point x="582" y="0" type="line"/>
    </contour>
    <contour>
      <point x="360" y="520" type="move" name="top"/>
    </contour>
  </outline>
</glyph>
<glyph name="x" format="1">
  <advance width="460"/>
  <unicode hex="0078"/>
  <outline>
    <contour>
      <point x="456" y="0" type="line"/>
      <point x="298" y="257" type="line"/>
      <point x="451" y="494" type="line"/>
      <point x="330" y="494" type="line"/>
      <point x="235" y="333" type="line"/>
      <point x="145" y="494" type="line"/>
      <point x="9" y="494" type="line"/>
      <point x="163" y="257" type="line"/>
      <point x="4" y="0" type="line"/>
      <point x="125" y="0" type="line"/>
      <point x="226" y="177" type="line"/>
      <point x="328" y="0" type="line"/>
    </contour>
    <contour>
      <point x="236" y="520" type="move" name="top"/>
    </contour>
  </outline>
</glyph>
<glyph name="y" format="1">
  <advance width="503"/>
  <unicode hex="0079"/>
  <outline>
    <contour>
      <point x="197" y="9" type="line"/>
      <point x="182" y="-40"/>
      <point x="168" y="-61"/>
      <point x="111" y="-61" type="curve"/>
      <point x="89" y="-61"/>
      <point x="71" y="-61"/>
      <point x="56" y="-58" type="curve"/>
      <point x="56" y="-155" type="line"/>
      <point x="76" y="-159"/>
      <point x="105" y="-162"/>
      <point x="134" y="-162" type="curve"/>
      <point x="229" y="-162"/>
      <point x="275" y="-115"/>
      <point x="309" y="-22" type="curve" smooth="yes"/>
      <point x="498" y="494" type="line"/>
      <point x="373" y="494" type="line"/>
      <point x="256" y="123" type="line"/>
      <point x="133" y="494" type="line"/>
      <point x="3" y="494" type="line"/>
    </contour>
    <contour>
      <point x="257" y="520" type="move" name="top"/>
    </contour>
  </outline>
</glyph>
<glyph name="z" format="1">
  <advance width="426"/>
  <unicode hex="007A"/>
  <outline>
    <contour>
      <point x="403" y="0" type="line"/>
      <point x="403" y="101" type="line"/>
      <point x="158" y="101" type="line"/>
      <point x="386" y="397" type="line"/>
      <point x="386" y="494" type="line"/>
      <point x="44" y="494" type="line"/>
      <point x="44" y="397" type="line"/>
      <point x="256" y="397" type="line"/>
      <point x="26" y="101" type="line"/>
      <point x="26" y="0" type="line"/>
    </contour>
    <contour>
      <point x="214" y="520" type="move" name="top"/>
    </contour>
  </outline>
</glyph>
<glyph name="braceleft" format="1">
  <advance width="294"/>
  <unicode hex="007B"/>
  <outline>
    <contour>
      <point x="105" y="318" type="line"/>
      <point x="147" y="326"/>
      <point x="192" y="371"/>
      <point x="192" y="473" type="curve" smooth="yes"/>
      <point x="192" y="574" type="line"/>
      <point x="192" y="620"/>
      <point x="206" y="641"/>
      <point x="274" y="641" type="curve"/>
      <point x="274" y="718" type="line"/>
      <point x="164" y="718"/>
      <point x="107" y="671"/>
      <point x="107" y="576" type="curve"/>
      <point x="107" y="473" type="line" smooth="yes"/>
      <point x="107" y="376"/>
      <point x="51" y="350"/>
      <point x="22" y="350" type="curve"/>
      <point x="7" y="350" type="line"/>
      <point x="7" y="281" type="line"/>
      <point x="22" y="281" type="line"/>
      <point x="51" y="281"/>
      <point x="107" y="255"/>
      <point x="107" y="157" type="curve" smooth="yes"/>
      <point x="107" y="50" type="line"/>
      <point x="107" y="-45"/>
      <point x="164" y="-92"/>
      <point x="274" y="-92" type="curve"/>
      <point x="274" y="-15" type="line"/>
      <point x="208" y="-15"/>
      <point x="192" y="5"/>
      <point x="192" y="53" type="curve"/>
      <point x="192" y="157" type="line"/>
      <point x="192" y="258"/>
      <point x="148" y="306"/>
      <point x="106" y="314" type="curve"/>
    </contour>
  </outline>
</glyph>
<glyph name="asciitilde" format="1">
  <advance width="626"/>
  <unicode hex="007E"/>
  <outline>
    <contour>
      <point x="595" y="451" type="curve"/>
      <point x="482" y="451" type="line"/>
      <point x="482" y="399"/>
      <point x="471" y="331"/>
      <point x="425" y="331" type="curve"/>
      <point x="366" y="331"/>
      <point x="294" y="459"/>
      <point x="186" y="459" type="curve"/>
      <point x="65" y="459"/>
      <point x="32" y="329"/>
      <point x="32" y="217" type="curve"/>
      <point x="145" y="217" type="line"/>
      <point x="145" y="268"/>
      <point x="154" y="339"/>
      <point x="205" y="339" type="curve"/>
      <point x="265" y="339"/>
      <point x="336" y="209"/>
      <point x="444" y="209" type="curve"/>
      <point x="563" y="209"/>
      <point x="595" y="338"/>
    </contour>
  </outline>
</glyph>
<glyph name="cent" format="1">
  <advance width="437"/>
  <unicode hex="00A2"/>
  <outline>
    <contour>
      <point x="293" y="532" type="line"/>
      <point x="293" y="659" type="line"/>
      <point x="212" y="659" type="line"/>
      <point x="212" y="532" type="line"/>
    </contour>
    <contour>
      <point x="293" y="-21" type="line"/>
      <point x="293" y="115" type="line"/>
      <point x="212" y="115" type="line"/>
      <point x="212" y="-21" type="line"/>
    </contour>
    <component base="c" xOffset="-1" yOffset="72"/>
  </outline>
</glyph>
<glyph name="sterling" format="1">
  <advance width="486"/>
  <unicode hex="00A3"/>
  <outline>
    <contour>
      <point x="459" y="0" type="line"/>
      <point x="459" y="113" type="line"/>
      <point x="150" y="113" type="line"/>
      <point x="150" y="116" type="line"/>
      <point x="201" y="137"/>
      <point x="226" y="180"/>
      <point x="226" y="243" type="curve"/>
      <point x="226" y="436" type="line" smooth="yes"/>
      <point x="226" y="501"/>
      <point x="254" y="531"/>
      <point x="319" y="531" type="curve" smooth="yes"/>
      <point x="360" y="531"/>
      <point x="403" y="524"/>
      <point x="443" y="516" type="curve"/>
      <point x="443" y="620" type="line"/>
      <point x="400" y="629"/>
      <point x="363" y="637"/>
      <point x="300" y="637" type="curve" smooth="yes"/>
      <point x="201" y="637"/>
      <point x="106" y="599"/>
      <point x="106" y="453" type="curve" smooth="yes"/>
      <point x="106" y="243" type="line"/>
      <point x="106" y="193"/>
      <point x="82" y="141"/>
      <point x="33" y="114" type="curve"/>
      <point x="33" y="0" type="line"/>
    </contour>
    <contour>
      <point x="33" y="345" type="line"/>
      <point x="33" y="263" type="line"/>
      <point x="409" y="263" type="line"/>
      <point x="409" y="345" type="line"/>
    </contour>
  </outline>
</glyph>
<glyph name="currency" format="1">
  <advance width="621"/>
  <unicode hex="00A4"/>
  <outline>
    <contour>
      <point x="586" y="534" type="line"/>
      <point x="527" y="593" type="line"/>
      <point x="439" y="505" type="line"/>
      <point x="499" y="447" type="line"/>
    </contour>
    <contour>
      <point x="529" y="39" type="line"/>
      <point x="588" y="98" type="line"/>
      <point x="499" y="187" type="line"/>
      <point x="440" y="128" type="line"/>
    </contour>
    <contour>
      <point x="33" y="98" type="line"/>
      <point x="92" y="39" type="line"/>
      <point x="180" y="127" type="line"/>
      <point x="121" y="186" type="line"/>
    </contour>
    <contour>
      <point x="93" y="593" type="line"/>
      <point x="34" y="534" type="line"/>
      <point x="122" y="447" type="line"/>
      <point x="180" y="505" type="line"/>
    </contour>
    <contour>
      <point x="309" y="575" type="curve" smooth="yes"/>
      <point x="162" y="576"/>
      <point x="49" y="464"/>
      <point x="50" y="316" type="curve" smooth="yes"/>
      <point x="49" y="168"/>
      <point x="162" y="56"/>
      <point x="311" y="56" type="curve" smooth="yes"/>
      <point x="458" y="56"/>
      <point x="572" y="168"/>
      <point x="572" y="315" type="curve" smooth="yes"/>
      <point x="572" y="464"/>
      <point x="458" y="576"/>
    </contour>
    <contour>
      <point x="156" y="318" type="curve" smooth="yes"/>
      <point x="157" y="410"/>
      <point x="220" y="474"/>
      <point x="311" y="474" type="curve" smooth="yes"/>
      <point x="403" y="472"/>
      <point x="465" y="408"/>
      <point x="465" y="318" type="curve" smooth="yes"/>
      <point x="465" y="225"/>
      <point x="403" y="161"/>
      <point x="311" y="162" type="curve" smooth="yes"/>
      <point x="220" y="161"/>
      <point x="157" y="225"/>
    </contour>
  </outline>
</glyph>
<glyph name="yen" format="1">
  <advance width="554"/>
  <unicode hex="00A5"/>
  <outline>
    <contour>
      <point x="66" y="297" type="line"/>
      <point x="66" y="226" type="line"/>
      <point x="493" y="226" type="line"/>
      <point x="493" y="297" type="line"/>
    </contour>
    <contour>
      <point x="66" y="176" type="line"/>
      <point x="66" y="104" type="line"/>
      <point x="493" y="104" type="line"/>
      <point x="493" y="176" type="line"/>
    </contour>
    <contour>
      <point x="537" y="627" type="line"/>
      <point x="413" y="627" type="line"/>
      <point x="280" y="342" type="line"/>
      <point x="152" y="627" type="line"/>
      <point x="15" y="627" type="line"/>
      <point x="219" y="236" type="line"/>
      <point x="219" y="0" type="line"/>
      <point x="339" y="0" type="line"/>
      <point x="339" y="236" type="line"/>
    </contour>
  </outline>
</glyph>
<glyph name="section" format="1">
  <advance width="463"/>
  <unicode hex="00A7"/>
  <outline>
    <contour>
      <point x="112" y="457" type="line"/>
      <point x="47" y="422"/>
      <point x="24" y="365"/>
      <point x="24" y="317" type="curve"/>
      <point x="24" y="265"/>
      <point x="54" y="232"/>
      <point x="108" y="212" type="curve" smooth="yes"/>
      <point x="238" y="162" type="line" smooth="yes"/>
      <point x="273" y="148"/>
      <point x="291" y="138"/>
      <point x="291" y="116" type="curve"/>
      <point x="291" y="88"/>
      <point x="262" y="77"/>
      <point x="206" y="77" type="curve"/>
      <point x="154" y="76"/>
      <point x="112" y="85"/>
      <point x="75" y="97" type="curve"/>
      <point x="75" y="9" type="line"/>
      <point x="108" y="-1"/>
      <point x="154" y="-10"/>
      <point x="234" y="-10" type="curve"/>
      <point x="347" y="-10"/>
      <point x="405" y="39"/>
      <point x="405" y="117" type="curve"/>
      <point x="405" y="174"/>
      <point x="379" y="202"/>
      <point x="318" y="227" type="curve" smooth="yes"/>
      <point x="174" y="284" type="line" smooth="yes"/>
      <point x="140" y="297"/>
      <point x="129" y="308"/>
      <point x="129" y="339" type="curve"/>
      <point x="129" y="364"/>
      <point x="147" y="396"/>
      <point x="178" y="415" type="curve"/>
    </contour>
    <contour>
      <point x="257" y="550" type="curve"/>
      <point x="308" y="551"/>
      <point x="351" y="542"/>
      <point x="388" y="531" type="curve"/>
      <point x="388" y="619" type="line"/>
      <point x="354" y="628"/>
      <point x="309" y="637"/>
      <point x="229" y="637" type="curve"/>
      <point x="116" y="637"/>
      <point x="59" y="587"/>
      <point x="59" y="511" type="curve"/>
      <point x="59" y="454"/>
      <point x="84" y="425"/>
      <point x="145" y="401" type="curve" smooth="yes"/>
      <point x="289" y="344" type="line" smooth="yes"/>
      <point x="323" y="331"/>
      <point x="335" y="320"/>
      <point x="335" y="289" type="curve"/>
      <point x="335" y="264"/>
      <point x="316" y="231"/>
      <point x="285" y="212" type="curve"/>
      <point x="351" y="171" type="line"/>
      <point x="415" y="205"/>
      <point x="439" y="263"/>
      <point x="439" y="310" type="curve"/>
      <point x="439" y="361"/>
      <point x="409" y="393"/>
      <point x="359" y="413" type="curve" smooth="yes"/>
      <point x="225" y="466" type="line" smooth="yes"/>
      <point x="190" y="479"/>
      <point x="172" y="489"/>
      <point x="172" y="511" type="curve"/>
      <point x="172" y="540"/>
      <point x="201" y="550"/>
    </contour>
  </outline>
</glyph>
<glyph name="dieresis" format="1">
  <advance width="385"/>
  <unicode hex="00A8"/>
  <outline>
    <contour>
      <point x="335" y="558" type="line"/>
      <point x="335" y="653" type="line"/>
      <point x="232" y="653" type="line"/>
      <point x="232" y="558" type="line"/>
    </contour>
    <contour>
      <point x="154" y="558" type="line"/>
      <point x="154" y="653" type="line"/>
      <point x="50" y="653" type="line"/>
      <point x="50" y="558" type="line"/>
    </contour>
    <contour>
      <point x="193" y="530" type="move" name="_top"/>
    </contour>
  </outline>
</glyph>
<glyph name="copyright" format="1">
  <advance width="688"/>
  <unicode hex="00A9"/>
  <outline>
    <contour>
      <point x="345" y="-10" type="curve"/>
      <point x="545" y="-10"/>
      <point x="655" y="106"/>
      <point x="655" y="314" type="curve"/>
      <point x="655" y="528"/>
      <point x="549" y="637"/>
      <point x="345" y="637" type="curve"/>
      <point x="144" y="637"/>
      <point x="34" y="523"/>
      <point x="34" y="314" type="curve"/>
      <point x="34" y="101"/>
      <point x="140" y="-10"/>
    </contour>
    <contour>
      <point x="346" y="566" type="curve"/>
      <point x="504" y="566"/>
      <point x="579" y="483"/>
      <point x="579" y="314" type="curve"/>
      <point x="579" y="146"/>
      <point x="504" y="67"/>
      <point x="346" y="67" type="curve"/>
      <point x="187" y="67"/>
      <point x="110" y="146"/>
      <point x="110" y="314" type="curve"/>
      <point x="110" y="483"/>
      <point x="187" y="566"/>
    </contour>
    <contour>
      <point x="461" y="237" type="line"/>
      <point x="432" y="226"/>
      <point x="398" y="219"/>
      <point x="367" y="219" type="curve"/>
      <point x="308" y="219"/>
      <point x="278" y="242"/>
      <point x="278" y="316" type="curve" smooth="yes"/>
      <point x="278" y="393"/>
      <point x="307" y="415"/>
      <point x="365" y="415" type="curve"/>
      <point x="402" y="415"/>
      <point x="421" y="413"/>
      <point x="452" y="408" type="curve"/>
      <point x="452" y="484" type="line"/>
      <point x="423" y="490"/>
      <point x="397" y="494"/>
      <point x="361" y="494" type="curve"/>
      <point x="247" y="494"/>
      <point x="179" y="446"/>
      <point x="179" y="316" type="curve" smooth="yes"/>
      <point x="179" y="179"/>
      <point x="242" y="137"/>
      <point x="352" y="137" type="curve"/>
      <point x="401" y="137"/>
      <point x="439" y="148"/>
      <point x="461" y="159" type="curve"/>
    </contour>
  </outline>
</glyph>
<glyph name="ordfeminine" format="1">
  <advance width="339"/>
  <unicode hex="00AA"/>
  <outline>
    <contour>
      <point x="42" y="243" type="line"/>
      <point x="294" y="243" type="line"/>
      <point x="294" y="310" type="line"/>
      <point x="42" y="310" type="line"/>
    </contour>
    <contour>
      <point x="41" y="437" type="curve"/>
      <point x="41" y="378"/>
      <point x="69" y="349"/>
      <point x="129" y="349" type="curve"/>
      <point x="162" y="349"/>
      <point x="193" y="362"/>
      <point x="223" y="385" type="curve"/>
      <point x="223" y="433" type="line"/>
      <point x="216" y="426"/>
      <point x="185" y="412"/>
      <point x="152" y="412" type="curve"/>
      <point x="125" y="412"/>
      <point x="113" y="420"/>
      <point x="113" y="441" type="curve"/>
      <point x="113" y="463"/>
      <point x="126" y="470"/>
      <point x="162" y="470" type="curve"/>
      <point x="192" y="470"/>
      <point x="212" y="467"/>
      <point x="224" y="464" type="curve"/>
      <point x="224" y="513" type="line"/>
      <point x="213" y="517"/>
      <point x="181" y="521"/>
      <point x="153" y="521" type="curve"/>
      <point x="73" y="521"/>
      <point x="41" y="498"/>
    </contour>
    <contour>
      <point x="219" y="355" type="line"/>
      <point x="290" y="355" type="line"/>
      <point x="290" y="545" type="line" smooth="yes"/>
      <point x="290" y="604"/>
      <point x="255" y="637"/>
      <point x="181" y="637" type="curve"/>
      <point x="131" y="637"/>
      <point x="101" y="634"/>
      <point x="69" y="627" type="curve"/>
      <point x="69" y="563" type="line"/>
      <point x="87" y="567"/>
      <point x="112" y="570"/>
      <point x="158" y="570" type="curve" smooth="yes"/>
      <point x="202" y="570"/>
      <point x="214" y="556"/>
      <point x="214" y="533" type="curve" smooth="yes"/>
      <point x="214" y="379" type="line"/>
      <point x="217" y="379" type="line"/>
    </contour>
  </outline>
</glyph>
<glyph name="guillemotleft" format="1">
  <advance width="509"/>
  <unicode hex="00AB"/>
  <outline>
    <contour>
      <point x="275" y="494" type="line"/>
      <point x="166" y="494" type="line"/>
      <point x="17" y="281" type="line"/>
      <point x="105" y="250" type="line"/>
    </contour>
    <contour>
      <point x="166" y="64" type="line"/>
      <point x="275" y="64" type="line"/>
      <point x="105" y="315" type="line"/>
      <point x="17" y="281" type="line"/>
    </contour>
    <contour>
      <point x="488" y="494" type="line"/>
      <point x="379" y="494" type="line"/>
      <point x="230" y="281" type="line"/>
      <point x="319" y="250" type="line"/>
    </contour>
    <contour>
      <point x="379" y="64" type="line"/>
      <point x="488" y="64" type="line"/>
      <point x="319" y="315" type="line"/>
      <point x="230" y="281" type="line"/>
    </contour>
  </outline>
</glyph>
<glyph name="registered" format="1">
  <advance width="419"/>
  <unicode hex="00AE"/>
  <outline>
    <contour>
      <point x="210" y="270" type="curve"/>
      <point x="328" y="270"/>
      <point x="390" y="334"/>
      <point x="390" y="454" type="curve"/>
      <point x="390" y="578"/>
      <point x="328" y="637"/>
      <point x="211" y="637" type="curve"/>
      <point x="92" y="637"/>
      <point x="29" y="574"/>
      <point x="29" y="454" type="curve"/>
      <point x="29" y="329"/>
      <point x="91" y="270"/>
    </contour>
    <contour>
      <point x="211" y="590" type="curve"/>
      <point x="297" y="590"/>
      <point x="337" y="547"/>
      <point x="337" y="454" type="curve"/>
      <point x="337" y="363"/>
      <point x="297" y="321"/>
      <point x="211" y="321" type="curve"/>
      <point x="124" y="321"/>
      <point x="83" y="363"/>
      <point x="83" y="454" type="curve"/>
      <point x="83" y="547"/>
      <point x="124" y="590"/>
    </contour>
    <contour>
      <point x="210" y="421" type="line" smooth="yes"/>
      <point x="253" y="421"/>
      <point x="294" y="433"/>
      <point x="294" y="489" type="curve"/>
      <point x="294" y="555"/>
      <point x="243" y="557"/>
      <point x="209" y="557" type="curve" smooth="yes"/>
      <point x="170" y="557" type="line"/>
      <point x="170" y="513" type="line"/>
      <point x="209" y="513" type="line" smooth="yes"/>
      <point x="224" y="513"/>
      <point x="244" y="512"/>
      <point x="244" y="489" type="curve"/>
      <point x="244" y="462"/>
      <point x="226" y="460"/>
      <point x="209" y="460" type="curve" smooth="yes"/>
      <point x="170" y="460" type="line"/>
      <point x="170" y="421" type="line"/>
    </contour>
    <contour>
      <point x="184" y="355" type="line"/>
      <point x="184" y="557" type="line"/>
      <point x="136" y="557" type="line"/>
      <point x="136" y="355" type="line"/>
    </contour>
    <contour>
      <point x="196" y="429" type="line"/>
      <point x="238" y="355" type="line"/>
      <point x="298" y="355" type="line"/>
      <point x="250" y="429" type="line"/>
    </contour>
  </outline>
</glyph>
<glyph name="degree" format="1">
  <advance width="323"/>
  <unicode hex="00B0"/>
  <outline>
    <contour>
      <point x="162" y="366" type="curve" smooth="yes"/>
      <point x="243" y="366"/>
      <point x="297" y="417"/>
      <point x="297" y="500" type="curve" smooth="yes"/>
      <point x="297" y="581"/>
      <point x="243" y="634"/>
      <point x="162" y="634" type="curve" smooth="yes"/>
      <point x="81" y="634"/>
      <point x="26" y="581"/>
      <point x="26" y="500" type="curve" smooth="yes"/>
      <point x="26" y="417"/>
      <point x="81" y="366"/>
    </contour>
    <contour>
      <point x="162" y="438" type="curve" smooth="yes"/>
      <point x="125" y="438"/>
      <point x="101" y="462"/>
      <point x="101" y="501" type="curve" smooth="yes"/>
      <point x="101" y="539"/>
      <point x="125" y="562"/>
      <point x="162" y="562" type="curve" smooth="yes"/>
      <point x="199" y="562"/>
      <point x="223" y="539"/>
      <point x="223" y="501" type="curve" smooth="yes"/>
      <point x="223" y="462"/>
      <point x="199" y="438"/>
    </contour>
  </outline>
</glyph>
<glyph name="plusminus" format="1">
  <advance width="500"/>
  <unicode hex="00B1"/>
  <outline>
    <contour>
      <point x="463" y="357" type="line"/>
      <point x="463" y="466" type="line"/>
      <point x="37" y="466" type="line"/>
      <point x="37" y="357" type="line"/>
    </contour>
    <contour>
      <point x="307" y="601" type="line"/>
      <point x="194" y="601" type="line"/>
      <point x="194" y="219" type="line"/>
      <point x="307" y="219" type="line"/>
    </contour>
    <component base="minus" yOffset="-222"/>
  </outline>
</glyph>
<glyph name="uni00B2" format="1">
  <advance width="295"/>
  <unicode hex="00B2"/>
  <outline>
    <contour>
      <point x="267" y="270" type="line"/>
      <point x="267" y="352" type="line"/>
      <point x="126" y="352" type="line"/>
      <point x="224" y="445" type="line" smooth="yes"/>
      <point x="253" y="473"/>
      <point x="266" y="498"/>
      <point x="266" y="539" type="curve"/>
      <point x="266" y="593"/>
      <point x="232" y="633"/>
      <point x="159" y="633" type="curve"/>
      <point x="113" y="633"/>
      <point x="69" y="627"/>
      <point x="40" y="620" type="curve"/>
      <point x="40" y="544" type="line"/>
      <point x="43" y="544"/>
      <point x="105" y="554"/>
      <point x="144" y="554" type="curve"/>
      <point x="172" y="554"/>
      <point x="179" y="540"/>
      <point x="179" y="527" type="curve"/>
      <point x="179" y="511"/>
      <point x="171" y="497"/>
      <point x="154" y="480" type="curve" smooth="yes"/>
      <point x="22" y="352" type="line"/>
      <point x="22" y="270" type="line"/>
    </contour>
  </outline>
</glyph>
<glyph name="uni00B3" format="1">
  <advance width="288"/>
  <unicode hex="00B3"/>
  <outline>
    <contour>
      <point x="189" y="459" type="line"/>
      <point x="227" y="468"/>
      <point x="248" y="498"/>
      <point x="248" y="541" type="curve"/>
      <point x="248" y="601"/>
      <point x="213" y="633"/>
      <point x="146" y="633" type="curve"/>
      <point x="103" y="633"/>
      <point x="57" y="627"/>
      <point x="33" y="618" type="curve"/>
      <point x="33" y="550" type="line"/>
      <point x="35" y="550"/>
      <point x="89" y="559"/>
      <point x="120" y="559" type="curve"/>
      <point x="158" y="559"/>
      <point x="169" y="547"/>
      <point x="169" y="525" type="curve"/>
      <point x="169" y="500"/>
      <point x="149" y="488"/>
      <point x="115" y="488" type="curve"/>
      <point x="66" y="488" type="line"/>
      <point x="66" y="418" type="line"/>
      <point x="130" y="418" type="line"/>
      <point x="164" y="418"/>
      <point x="183" y="407"/>
      <point x="183" y="381" type="curve"/>
      <point x="183" y="352"/>
      <point x="166" y="342"/>
      <point x="117" y="342" type="curve"/>
      <point x="80" y="342"/>
      <point x="54" y="344"/>
      <point x="24" y="349" type="curve"/>
      <point x="24" y="277" type="line"/>
      <point x="45" y="269"/>
      <point x="86" y="265"/>
      <point x="133" y="265" type="curve"/>
      <point x="213" y="265"/>
      <point x="263" y="300"/>
      <point x="263" y="373" type="curve"/>
      <point x="263" y="424"/>
      <point x="239" y="454"/>
      <point x="189" y="458" type="curve"/>
    </contour>
  </outline>
</glyph>
<glyph name="paragraph" format="1">
  <advance width="483"/>
  <unicode hex="00B6"/>
  <outline>
    <contour>
      <point x="426" y="17" type="curve" smooth="yes"/>
      <point x="426" y="627" type="line"/>
      <point x="402" y="631"/>
      <point x="349" y="639"/>
      <point x="269" y="639" type="curve"/>
      <point x="90" y="639"/>
      <point x="22" y="573"/>
      <point x="22" y="383" type="curve" smooth="yes"/>
      <point x="22" y="195"/>
      <point x="72" y="129"/>
      <point x="215" y="129" type="curve"/>
      <point x="250" y="129"/>
      <point x="283" y="133"/>
      <point x="310" y="138" type="curve"/>
      <point x="310" y="17" type="line" smooth="yes"/>
      <point x="310" y="-41"/>
      <point x="289" y="-61"/>
      <point x="229" y="-61" type="curve"/>
      <point x="212" y="-61"/>
      <point x="201" y="-59"/>
      <point x="189" y="-58" type="curve"/>
      <point x="189" y="-157" type="line"/>
      <point x="206" y="-159"/>
      <point x="222" y="-162"/>
      <point x="265" y="-162" type="curve"/>
      <point x="358" y="-162"/>
      <point x="426" y="-100"/>
    </contour>
    <contour>
      <point x="138" y="383" type="curve" smooth="yes"/>
      <point x="138" y="509"/>
      <point x="165" y="532"/>
      <point x="264" y="532" type="curve"/>
      <point x="284" y="532"/>
      <point x="299" y="531"/>
      <point x="310" y="530" type="curve"/>
      <point x="310" y="241" type="line"/>
      <point x="290" y="238"/>
      <point x="264" y="235"/>
      <point x="239" y="235" type="curve"/>
      <point x="158" y="235"/>
      <point x="138" y="262"/>
    </contour>
  </outline>
</glyph>
<glyph name="cedilla" format="1">
  <advance width="328"/>
  <unicode hex="00B8"/>
  <outline>
    <contour>
      <point x="279" y="-112" type="curve"/>
      <point x="279" y="-63"/>
      <point x="236" y="-43"/>
      <point x="178" y="-44" type="curve"/>
      <point x="188" y="10" type="line"/>
      <point x="108" y="17" type="line"/>
      <point x="88" y="-86" type="line"/>
      <point x="110" y="-85"/>
      <point x="121" y="-85"/>
      <point x="137" y="-85" type="curve"/>
      <point x="165" y="-85"/>
      <point x="186" y="-89"/>
      <point x="186" y="-108" type="curve"/>
      <point x="186" y="-127"/>
      <point x="178" y="-135"/>
      <point x="145" y="-135" type="curve" smooth="yes"/>
      <point x="111" y="-135"/>
      <point x="69" y="-127"/>
      <point x="60" y="-124" type="curve"/>
      <point x="60" y="-184" type="line"/>
      <point x="66" y="-186"/>
      <point x="110" y="-195"/>
      <point x="165" y="-195" type="curve" smooth="yes"/>
      <point x="230" y="-195"/>
      <point x="279" y="-179"/>
    </contour>
    <contour>
      <point x="151" y="0" type="move" name="_bottom"/>
    </contour>
  </outline>
</glyph>
<glyph name="uni00B9" format="1">
  <advance width="244"/>
  <unicode hex="00B9"/>
  <outline>
    <contour>
      <point x="113" y="270" type="line"/>
      <point x="200" y="270" type="line"/>
      <point x="200" y="633" type="line"/>
      <point x="113" y="605" type="line"/>
    </contour>
    <contour>
      <point x="13" y="538" type="line"/>
      <point x="113" y="550" type="line"/>
      <point x="200" y="633" type="line"/>
      <point x="13" y="611" type="line"/>
    </contour>
  </outline>
</glyph>
<glyph name="ordmasculine" format="1">
  <advance width="363"/>
  <unicode hex="00BA"/>
  <outline>
    <contour>
      <point x="46" y="243" type="line"/>
      <point x="316" y="243" type="line"/>
      <point x="316" y="310" type="line"/>
      <point x="46" y="310" type="line"/>
    </contour>
    <contour>
      <point x="183" y="349" type="curve" smooth="yes"/>
      <point x="279" y="349"/>
      <point x="323" y="395"/>
      <point x="323" y="493" type="curve" smooth="yes"/>
      <point x="323" y="592"/>
      <point x="280" y="637"/>
      <point x="183" y="637" type="curve" smooth="yes"/>
      <point x="85" y="637"/>
      <point x="41" y="591"/>
      <point x="41" y="493" type="curve" smooth="yes"/>
      <point x="41" y="394"/>
      <point x="84" y="349"/>
    </contour>
    <contour>
      <point x="183" y="420" type="curve" smooth="yes"/>
      <point x="134" y="420"/>
      <point x="118" y="439"/>
      <point x="118" y="494" type="curve" smooth="yes"/>
      <point x="118" y="548"/>
      <point x="135" y="568"/>
      <point x="183" y="568" type="curve" smooth="yes"/>
      <point x="231" y="568"/>
      <point x="247" y="549"/>
      <point x="247" y="494" type="curve" smooth="yes"/>
      <point x="247" y="440"/>
      <point x="230" y="420"/>
    </contour>
  </outline>
</glyph>
<glyph name="AE" format="1">
  <advance width="740"/>
  <unicode hex="00C6"/>
  <outline>
    <contour>
      <point x="3" y="0" type="line"/>
      <point x="129" y="0" type="line"/>
      <point x="251" y="354" type="line" smooth="yes"/>
      <point x="269" y="411"/>
      <point x="303" y="539"/>
      <point x="323" y="627" type="curve"/>
      <point x="233" y="627" type="line"/>
    </contour>
    <contour>
      <point x="575" y="0" type="line"/>
      <point x="360" y="627" type="line"/>
      <point x="261" y="627" type="line"/>
      <point x="282" y="536"/>
      <point x="316" y="412"/>
      <point x="335" y="354" type="curve" smooth="yes"/>
      <point x="457" y="0" type="line"/>
    </contour>
    <contour>
      <point x="131" y="128" type="line"/>
      <point x="446" y="128" type="line"/>
      <point x="446" y="227" type="line"/>
      <point x="131" y="227" type="line"/>
    </contour>
    <contour>
      <point x="341" y="519" type="line"/>
      <point x="701" y="519" type="line"/>
      <point x="701" y="627" type="line"/>
      <point x="341" y="627" type="line"/>
    </contour>
    <contour>
      <point x="413" y="268" type="line"/>
      <point x="664" y="268" type="line"/>
      <point x="664" y="371" type="line"/>
      <point x="413" y="371" type="line"/>
    </contour>
    <contour>
      <point x="518" y="0" type="line"/>
      <point x="710" y="0" type="line"/>
      <point x="710" y="113" type="line"/>
      <point x="518" y="113" type="line"/>
    </contour>
    <contour>
      <point x="442" y="645" type="move" name="top"/>
    </contour>
  </outline>
</glyph>
<glyph name="multiply" format="1">
  <advance width="500"/>
  <unicode hex="00D7"/>
  <outline>
    <contour>
      <point x="464" y="460" type="line"/>
      <point x="387" y="537" type="line"/>
      <point x="35" y="185" type="line"/>
      <point x="112" y="108" type="line"/>
    </contour>
    <contour>
      <point x="116" y="536" type="line"/>
      <point x="37" y="457" type="line"/>
      <point x="386" y="107" type="line"/>
      <point x="466" y="186" type="line"/>
    </contour>
  </outline>
</glyph>
<glyph name="Oslash" format="1">
  <advance width="647"/>
  <unicode hex="00D8"/>
  <outline>
    <contour>
      <point x="45" y="-19" type="line"/>
      <point x="111" y="-62" type="line"/>
      <point x="204" y="75" type="line"/>
      <point x="140" y="122" type="line"/>
    </contour>
    <contour>
      <point x="501" y="514" type="line"/>
      <point x="597" y="656" type="line"/>
      <point x="530" y="699" type="line"/>
      <point x="442" y="568" type="line"/>
    </contour>
    <contour>
      <point x="204" y="75" type="line"/>
      <point x="501" y="514" type="line"/>
      <point x="442" y="568" type="line"/>
      <point x="140" y="122" type="line"/>
    </contour>
    <component base="O"/>
    <contour>
      <point x="324.0" y="655.0" type="move" name="top"/>
    </contour>
  </outline>
</glyph>
<glyph name="Thorn" format="1">
  <advance width="570"/>
  <unicode hex="00DE"/>
  <outline>
    <contour>
      <point x="284" y="98" type="line" smooth="yes"/>
      <point x="452" y="98"/>
      <point x="539" y="165"/>
      <point x="539" y="322" type="curve"/>
      <point x="539" y="477"/>
      <point x="463" y="535"/>
      <point x="281" y="535" type="curve" smooth="yes"/>
      <point x="142" y="535" type="line"/>
      <point x="142" y="426" type="line"/>
      <point x="281" y="426" type="line" smooth="yes"/>
      <point x="377" y="426"/>
      <point x="417" y="401"/>
      <point x="417" y="322" type="curve"/>
      <point x="417" y="231"/>
      <point x="374" y="203"/>
      <point x="281" y="203" type="curve" smooth="yes"/>
      <point x="142" y="203" type="line"/>
      <point x="142" y="98" type="line"/>
    </contour>
    <contour>
      <point x="180" y="0" type="line"/>
      <point x="180" y="627" type="line"/>
      <point x="60" y="627" type="line"/>
      <point x="60" y="0" type="line"/>
    </contour>
  </outline>
</glyph>
<glyph name="germandbls" format="1">
  <advance width="582"/>
  <unicode hex="00DF"/>
  <outline>
    <contour>
      <point x="260" y="677" type="curve"/>
      <point x="118" y="677"/>
      <point x="55" y="615"/>
      <point x="55" y="488" type="curve" smooth="yes"/>
      <point x="55" y="0" type="line"/>
      <point x="171" y="0" type="line"/>
      <point x="171" y="487" type="line" smooth="yes"/>
      <point x="171" y="548"/>
      <point x="193" y="573"/>
      <point x="260" y="573" type="curve"/>
      <point x="304" y="573"/>
      <point x="340" y="560"/>
      <point x="340" y="511" type="curve" smooth="yes"/>
      <point x="340" y="494"/>
      <point x="337" y="482"/>
      <point x="332" y="461" type="curve" smooth="yes"/>
      <point x="293" y="267" type="line"/>
      <point x="400" y="239" type="line" smooth="yes"/>
      <point x="431" y="230"/>
      <point x="442" y="218"/>
      <point x="442" y="176" type="curve" smooth="yes"/>
      <point x="442" y="113"/>
      <point x="417" y="94"/>
      <point x="360" y="94" type="curve" smooth="yes"/>
      <point x="316" y="94"/>
      <point x="283" y="99"/>
      <point x="260" y="105" type="curve"/>
      <point x="260" y="3" type="line"/>
      <point x="288" y="-5"/>
      <point x="330" y="-10"/>
      <point x="380" y="-10" type="curve" smooth="yes"/>
      <point x="481" y="-10"/>
      <point x="552" y="34"/>
      <point x="552" y="176" type="curve" smooth="yes"/>
      <point x="552" y="276"/>
      <point x="524" y="307"/>
      <point x="464" y="325" type="curve" smooth="yes"/>
      <point x="415" y="340" type="line"/>
      <point x="443" y="457" type="line" smooth="yes"/>
      <point x="450" y="483"/>
      <point x="456" y="514"/>
      <point x="456" y="538" type="curve" smooth="yes"/>
      <point x="456" y="620"/>
      <point x="412" y="677"/>
    </contour>
  </outline>
</glyph>
<glyph name="ae" format="1">
  <advance width="750"/>
  <unicode hex="00E6"/>
  <outline>
    <contour>
      <point x="520" y="403" type="curve"/>
      <point x="588" y="403"/>
      <point x="609" y="379"/>
      <point x="611" y="313" type="curve"/>
      <point x="611" y="306"/>
      <point x="611" y="297"/>
      <point x="610" y="291" type="curve"/>
      <point x="421" y="291" type="line"/>
      <point x="421" y="374"/>
      <point x="445" y="403"/>
    </contour>
    <contour>
      <point x="695" y="27" type="curve"/>
      <point x="695" y="121" type="line"/>
      <point x="669" y="112"/>
      <point x="603" y="97"/>
      <point x="534" y="97" type="curve" smooth="yes"/>
      <point x="457" y="97"/>
      <point x="422" y="120"/>
      <point x="421" y="209" type="curve"/>
      <point x="712" y="209" type="line"/>
      <point x="715" y="238"/>
      <point x="716" y="258"/>
      <point x="716" y="296" type="curve"/>
      <point x="716" y="444"/>
      <point x="665" y="504"/>
      <point x="520" y="504" type="curve"/>
      <point x="374" y="504"/>
      <point x="308" y="405"/>
      <point x="308" y="249" type="curve" smooth="yes"/>
      <point x="308" y="64"/>
      <point x="370" y="-9"/>
      <point x="515" y="-9" type="curve" smooth="yes"/>
      <point x="598" y="-9"/>
      <point x="669" y="11"/>
    </contour>
    <contour>
      <point x="24" y="145" type="curve"/>
      <point x="24" y="40"/>
      <point x="69" y="-9"/>
      <point x="171" y="-9" type="curve"/>
      <point x="254" y="-9"/>
      <point x="321" y="29"/>
      <point x="361" y="67" type="curve"/>
      <point x="331" y="136" type="line"/>
      <point x="312" y="117"/>
      <point x="259" y="90"/>
      <point x="202" y="90" type="curve"/>
      <point x="151" y="90"/>
      <point x="133" y="107"/>
      <point x="133" y="151" type="curve"/>
      <point x="133" y="196"/>
      <point x="152" y="209"/>
      <point x="221" y="209" type="curve" smooth="yes"/>
      <point x="325" y="209" type="line"/>
      <point x="325" y="291" type="line"/>
      <point x="214" y="291" type="line" smooth="yes"/>
      <point x="76" y="291"/>
      <point x="24" y="251"/>
    </contour>
    <contour>
      <point x="404" y="339" type="line"/>
      <point x="404" y="449"/>
      <point x="356" y="504"/>
      <point x="253" y="504" type="curve" smooth="yes"/>
      <point x="177" y="504"/>
      <point x="122" y="499"/>
      <point x="71" y="486" type="curve"/>
      <point x="71" y="389" type="line"/>
      <point x="102" y="396"/>
      <point x="143" y="402"/>
      <point x="218" y="402" type="curve" smooth="yes"/>
      <point x="284" y="402"/>
      <point x="308" y="376"/>
      <point x="308" y="327" type="curve" smooth="yes"/>
      <point x="308" y="229" type="line"/>
    </contour>
    <contour>
      <point x="381" y="530" type="move" name="top"/>
    </contour>
  </outline>
</glyph>
<glyph name="eth" format="1">
  <advance width="545"/>
  <unicode hex="00F0"/>
  <outline>
    <contour>
      <point x="501" y="587" type="line"/>
      <point x="501" y="654" type="line"/>
      <point x="154" y="575" type="line"/>
      <point x="154" y="509" type="line"/>
    </contour>
    <contour>
      <point x="271" y="-9" type="curve" smooth="yes"/>
      <point x="442" y="-9"/>
      <point x="507" y="58"/>
      <point x="507" y="237" type="curve" smooth="yes"/>
      <point x="507" y="418"/>
      <point x="424" y="482"/>
      <point x="271" y="482" type="curve" smooth="yes"/>
      <point x="99" y="482"/>
      <point x="34" y="415"/>
      <point x="34" y="237" type="curve" smooth="yes"/>
      <point x="34" y="55"/>
      <point x="97" y="-9"/>
    </contour>
    <contour>
      <point x="271" y="99" type="curve" smooth="yes"/>
      <point x="172" y="99"/>
      <point x="150" y="122"/>
      <point x="150" y="238" type="curve" smooth="yes"/>
      <point x="150" y="352"/>
      <point x="174" y="378"/>
      <point x="271" y="378" type="curve" smooth="yes"/>
      <point x="369" y="378"/>
      <point x="391" y="354"/>
      <point x="391" y="238" type="curve" smooth="yes"/>
      <point x="391" y="124"/>
      <point x="367" y="99"/>
    </contour>
    <contour>
      <point x="359" y="665" type="curve"/>
      <point x="233" y="665" type="line"/>
      <point x="330" y="561"/>
      <point x="393" y="444"/>
      <point x="384" y="311" type="curve"/>
      <point x="507" y="237" type="line"/>
      <point x="507" y="447"/>
      <point x="455" y="560"/>
    </contour>
  </outline>
</glyph>
<glyph name="oslash" format="1">
  <advance width="541"/>
  <unicode hex="00F8"/>
  <outline>
    <contour>
      <point x="35" y="-29" type="line"/>
      <point x="99" y="-74" type="line"/>
      <point x="173" y="33" type="line"/>
      <point x="201" y="80" type="line"/>
      <point x="404" y="376" type="line"/>
      <point x="435" y="414" type="line"/>
      <point x="508" y="521" type="line"/>
      <point x="444" y="565" type="line"/>
      <point x="376" y="467" type="line"/>
      <point x="356" y="433" type="line"/>
      <point x="141" y="121" type="line"/>
      <point x="100" y="68" type="line"/>
    </contour>
    <contour>
      <point x="271" y="-9" type="curve" smooth="yes"/>
      <point x="442" y="-9"/>
      <point x="507" y="61"/>
      <point x="507" y="248" type="curve" smooth="yes"/>
      <point x="507" y="437"/>
      <point x="444" y="504"/>
      <point x="271" y="504" type="curve" smooth="yes"/>
      <point x="99" y="504"/>
      <point x="34" y="434"/>
      <point x="34" y="248" type="curve" smooth="yes"/>
      <point x="34" y="58"/>
      <point x="97" y="-9"/>
    </contour>
    <contour>
      <point x="271" y="97" type="curve" smooth="yes"/>
      <point x="170" y="97"/>
      <point x="149" y="122"/>
      <point x="149" y="249" type="curve" smooth="yes"/>
      <point x="149" y="374"/>
      <point x="172" y="401"/>
      <point x="271" y="401" type="curve" smooth="yes"/>
      <point x="370" y="401"/>
      <point x="392" y="376"/>
      <point x="392" y="249" type="curve" smooth="yes"/>
      <point x="392" y="124"/>
      <point x="368" y="97"/>
    </contour>
    <contour>
      <point x="271.0" y="530.0" type="move" name="top"/>
    </contour>
  </outline>
</glyph>
<glyph name="thorn" format="1">
  <advance width="541"/>
  <unicode hex="00FE"/>
  <outline>
    <contour>
      <point x="55" y="-152" type="line"/>
      <point x="171" y="-152" type="line"/>
      <point x="171" y="665" type="line"/>
      <point x="55" y="665" type="line"/>
    </contour>
    <contour>
      <point x="145" y="357" type="line"/>
      <point x="169" y="376"/>
      <point x="212" y="400"/>
      <point x="282" y="400" type="curve"/>
      <point x="363" y="400"/>
      <point x="392" y="373"/>
      <point x="392" y="248" type="curve" smooth="yes"/>
      <point x="392" y="123"/>
      <point x="363" y="99"/>
      <point x="266" y="99" type="curve"/>
      <point x="202" y="99"/>
      <point x="174" y="112"/>
      <point x="151" y="126" type="curve"/>
      <point x="125" y="41" type="line"/>
      <point x="149" y="6"/>
      <point x="209" y="-9"/>
      <point x="281" y="-9" type="curve"/>
      <point x="435" y="-9"/>
      <point x="508" y="59"/>
      <point x="508" y="248" type="curve" smooth="yes"/>
      <point x="508" y="436"/>
      <point x="452" y="504"/>
      <point x="323" y="504" type="curve"/>
      <point x="239" y="504"/>
      <point x="165" y="474"/>
      <point x="130" y="414" type="curve"/>
    </contour>
  </outline>
</glyph>
<glyph name="dcroat" format="1">
  <advance width="542"/>
  <unicode hex="0111"/>
  <outline>
    <contour>
      <point x="557" y="551" type="line"/>
      <point x="557" y="617" type="line"/>
      <point x="210" y="617" type="line"/>
      <point x="210" y="551" type="line"/>
    </contour>
    <contour>
      <point x="487" y="665" type="line"/>
      <point x="371" y="665" type="line"/>
      <point x="371" y="47" type="line"/>
      <point x="378" y="47" type="line"/>
      <point x="385" y="0" type="line"/>
      <point x="487" y="0" type="line"/>
    </contour>
    <contour>
      <point x="396" y="142" type="line"/>
      <point x="372" y="122"/>
      <point x="329" y="99"/>
      <point x="260" y="99" type="curve"/>
      <point x="178" y="99"/>
      <point x="150" y="121"/>
      <point x="150" y="240" type="curve" smooth="yes"/>
      <point x="150" y="360"/>
      <point x="179" y="385"/>
      <point x="276" y="385" type="curve"/>
      <point x="340" y="385"/>
      <point x="367" y="371"/>
      <point x="391" y="358" type="curve"/>
      <point x="416" y="440" type="line"/>
      <point x="393" y="475"/>
      <point x="333" y="489"/>
      <point x="260" y="489" type="curve"/>
      <point x="107" y="489"/>
      <point x="34" y="424"/>
      <point x="34" y="240" type="curve" smooth="yes"/>
      <point x="34" y="57"/>
      <point x="90" y="-9"/>
      <point x="218" y="-9" type="curve"/>
      <point x="303" y="-9"/>
      <point x="372" y="22"/>
      <point x="412" y="102" type="curve"/>
    </contour>
  </outline>
</glyph>
<glyph name="Hbar" format="1">
  <advance width="683"/>
  <unicode hex="0126"/>
  <outline>
    <contour>
      <point x="659" y="458" type="line"/>
      <point x="659" y="535" type="line"/>
      <point x="24" y="535" type="line"/>
      <point x="24" y="458" type="line"/>
    </contour>
    <component base="H" xOffset="25"/>
  </outline>
</glyph>
<glyph name="hbar" format="1">
  <advance width="553"/>
  <unicode hex="0127"/>
  <outline>
    <contour>
      <point x="332" y="551" type="line"/>
      <point x="332" y="617" type="line"/>
      <point x="-16" y="617" type="line"/>
      <point x="-16" y="551" type="line"/>
    </contour>
    <contour>
      <point x="55" y="0" type="line"/>
      <point x="171" y="0" type="line"/>
      <point x="171" y="665" type="line"/>
      <point x="55" y="665" type="line"/>
    </contour>
    <contour>
      <point x="148" y="363" type="line"/>
      <point x="176" y="379"/>
      <point x="239" y="400"/>
      <point x="300" y="400" type="curve" smooth="yes"/>
      <point x="361" y="400"/>
      <point x="386" y="377"/>
      <point x="386" y="327" type="curve" smooth="yes"/>
      <point x="386" y="0" type="line"/>
      <point x="502" y="0" type="line"/>
      <point x="502" y="342" type="line" smooth="yes"/>
      <point x="502" y="451"/>
      <point x="445" y="504"/>
      <point x="336" y="504" type="curve" smooth="yes"/>
      <point x="262" y="504"/>
      <point x="194" y="472"/>
      <point x="148" y="443" type="curve"/>
    </contour>
  </outline>
</glyph>
<glyph name="dotlessi" format="1">
  <advance width="225"/>
  <unicode hex="0131"/>
  <outline>
    <contour>
      <point x="55" y="0" type="line"/>
      <point x="171" y="0" type="line"/>
      <point x="171" y="494" type="line"/>
      <point x="55" y="494" type="line"/>
    </contour>
    <contour>
      <point x="113" y="520" type="move" name="top"/>
    </contour>
  </outline>
</glyph>
<glyph name="Lslash" format="1">
  <advance width="504"/>
  <unicode hex="0141"/>
  <outline>
    <contour>
      <point x="377" y="346" type="line"/>
      <point x="377" y="429" type="line"/>
      <point x="27" y="329" type="line"/>
      <point x="27" y="246" type="line"/>
    </contour>
    <component base="L" xOffset="37"/>
  </outline>
</glyph>
<glyph name="lslash" format="1">
  <advance width="306"/>
  <unicode hex="0142"/>
  <outline>
    <contour>
      <point x="289" y="328" type="line"/>
      <point x="289" y="409" type="line"/>
      <point x="26" y="329" type="line"/>
      <point x="26" y="248" type="line"/>
    </contour>
    <component base="l" xOffset="33"/>
  </outline>
</glyph>
<glyph name="eng" format="1">
  <advance width="554"/>
  <unicode hex="014B"/>
  <outline>
    <contour>
      <point x="55" y="0" type="line"/>
      <point x="171" y="0" type="line"/>
      <point x="171" y="445" type="line"/>
      <point x="160" y="445" type="line"/>
      <point x="155" y="494" type="line"/>
      <point x="55" y="494" type="line"/>
    </contour>
    <contour>
      <point x="502" y="5" type="curve" smooth="yes"/>
      <point x="502" y="342" type="line" smooth="yes"/>
      <point x="502" y="451"/>
      <point x="442" y="504"/>
      <point x="334" y="504" type="curve" smooth="yes"/>
      <point x="258" y="504"/>
      <point x="203" y="485"/>
      <point x="148" y="431" type="curve"/>
      <point x="148" y="350" type="line"/>
      <point x="179" y="374"/>
      <point x="232" y="400"/>
      <point x="293" y="400" type="curve" smooth="yes"/>
      <point x="354" y="400"/>
      <point x="386" y="377"/>
      <point x="386" y="327" type="curve" smooth="yes"/>
      <point x="386" y="19" type="line" smooth="yes"/>
      <point x="386" y="-40"/>
      <point x="365" y="-61"/>
      <point x="301" y="-61" type="curve"/>
      <point x="288" y="-61"/>
      <point x="277" y="-60"/>
      <point x="265" y="-58" type="curve"/>
      <point x="265" y="-156" type="line"/>
      <point x="282" y="-158"/>
      <point x="297" y="-162"/>
      <point x="339" y="-162" type="curve"/>
      <point x="440" y="-162"/>
      <point x="502" y="-109"/>
    </contour>
  </outline>
</glyph>
<glyph name="OE" format="1">
  <advance width="866"/>
  <unicode hex="0152"/>
  <outline>
    <contour>
      <point x="310" y="-9" type="curve"/>
      <point x="503" y="-9"/>
      <point x="584" y="84"/>
      <point x="584" y="315" type="curve"/>
      <point x="584" y="558"/>
      <point x="514" y="637"/>
      <point x="310" y="637" type="curve"/>
      <point x="116" y="637"/>
      <point x="36" y="544"/>
      <point x="36" y="315" type="curve"/>
      <point x="36" y="70"/>
      <point x="105" y="-9"/>
    </contour>
    <contour>
      <point x="310" y="104" type="curve"/>
      <point x="191" y="104"/>
      <point x="158" y="132"/>
      <point x="158" y="315" type="curve"/>
      <point x="158" y="494"/>
      <point x="195" y="529"/>
      <point x="310" y="529" type="curve"/>
      <point x="428" y="529"/>
      <point x="462" y="501"/>
      <point x="462" y="315" type="curve"/>
      <point x="462" y="139"/>
      <point x="424" y="104"/>
    </contour>
    <contour>
      <point x="535" y="519" type="line"/>
      <point x="827" y="519" type="line"/>
      <point x="827" y="627" type="line"/>
      <point x="390" y="627" type="line"/>
    </contour>
    <contour>
      <point x="564" y="269" type="line"/>
      <point x="790" y="269" type="line"/>
      <point x="790" y="370" type="line"/>
      <point x="564" y="370" type="line"/>
    </contour>
    <contour>
      <point x="367" y="0" type="line"/>
      <point x="836" y="0" type="line"/>
      <point x="836" y="113" type="line"/>
      <point x="512" y="113" type="line"/>
    </contour>
  </outline>
</glyph>
<glyph name="oe" format="1">
  <advance width="823"/>
  <unicode hex="0153"/>
  <outline>
    <contour>
      <point x="264" y="-9" type="curve" smooth="yes"/>
      <point x="414" y="-9"/>
      <point x="471" y="61"/>
      <point x="471" y="248" type="curve" smooth="yes"/>
      <point x="471" y="437"/>
      <point x="417" y="504"/>
      <point x="264" y="504" type="curve" smooth="yes"/>
      <point x="97" y="504"/>
      <point x="34" y="434"/>
      <point x="34" y="248" type="curve" smooth="yes"/>
      <point x="34" y="58"/>
      <point x="95" y="-9"/>
    </contour>
    <contour>
      <point x="264" y="99" type="curve" smooth="yes"/>
      <point x="171" y="99"/>
      <point x="150" y="124"/>
      <point x="150" y="249" type="curve" smooth="yes"/>
      <point x="150" y="373"/>
      <point x="173" y="400"/>
      <point x="264" y="400" type="curve" smooth="yes"/>
      <point x="357" y="400"/>
      <point x="378" y="375"/>
      <point x="378" y="249" type="curve" smooth="yes"/>
      <point x="378" y="126"/>
      <point x="355" y="99"/>
    </contour>
    <contour>
      <point x="593" y="403" type="curve"/>
      <point x="661" y="403"/>
      <point x="682" y="379"/>
      <point x="684" y="313" type="curve"/>
      <point x="684" y="306"/>
      <point x="683" y="297"/>
      <point x="683" y="292" type="curve"/>
      <point x="494" y="292" type="line"/>
      <point x="494" y="374"/>
      <point x="518" y="403"/>
    </contour>
    <contour>
      <point x="768" y="27" type="curve"/>
      <point x="768" y="121" type="line"/>
      <point x="742" y="112"/>
      <point x="676" y="97"/>
      <point x="607" y="97" type="curve" smooth="yes"/>
      <point x="529" y="97"/>
      <point x="495" y="120"/>
      <point x="494" y="209" type="curve"/>
      <point x="785" y="209" type="line"/>
      <point x="788" y="238"/>
      <point x="789" y="258"/>
      <point x="789" y="296" type="curve"/>
      <point x="789" y="444"/>
      <point x="739" y="504"/>
      <point x="593" y="504" type="curve"/>
      <point x="460" y="504"/>
      <point x="400" y="427"/>
      <point x="400" y="249" type="curve" smooth="yes"/>
      <point x="400" y="64"/>
      <point x="455" y="-9"/>
      <point x="588" y="-9" type="curve" smooth="yes"/>
      <point x="671" y="-9"/>
      <point x="742" y="11"/>
    </contour>
  </outline>
</glyph>
<glyph name="Tbar" format="1">
  <advance width="540"/>
  <unicode hex="0166"/>
  <outline>
    <contour>
      <point x="475" y="262" type="line"/>
      <point x="475" y="343" type="line"/>
      <point x="65" y="343" type="line"/>
      <point x="65" y="262" type="line"/>
    </contour>
    <component base="T" xOffset="7"/>
  </outline>
</glyph>
<glyph name="tbar" format="1">
  <advance width="387"/>
  <unicode hex="0167"/>
  <outline>
    <contour>
      <point x="364" y="227" type="line"/>
      <point x="364" y="308" type="line"/>
      <point x="24" y="308" type="line"/>
      <point x="24" y="227" type="line"/>
    </contour>
    <component base="t" xOffset="6"/>
  </outline>
</glyph>
<glyph name="uni018F" format="1">
  <advance width="589"/>
  <unicode hex="018F"/>
  <outline>
    <contour>
      <point x="553" y="314" type="curve" smooth="yes"/>
      <point x="553" y="536"/>
      <point x="477" y="637"/>
      <point x="266" y="637" type="curve"/>
      <point x="188" y="637"/>
      <point x="127" y="625"/>
      <point x="91" y="614" type="curve"/>
      <point x="91" y="508" type="line"/>
      <point x="136" y="519"/>
      <point x="191" y="529"/>
      <point x="252" y="529" type="curve" smooth="yes"/>
      <point x="389" y="529"/>
      <point x="430" y="477"/>
      <point x="430" y="313" type="curve" smooth="yes"/>
      <point x="430" y="155"/>
      <point x="396" y="100"/>
      <point x="284" y="99" type="curve"/>
      <point x="196" y="100"/>
      <point x="151" y="141"/>
      <point x="151" y="232" type="curve"/>
      <point x="151" y="248"/>
      <point x="151" y="255"/>
      <point x="152" y="268" type="curve"/>
      <point x="470" y="268" type="line"/>
      <point x="470" y="368" type="line"/>
      <point x="39" y="368" type="line"/>
      <point x="34" y="331"/>
      <point x="32" y="298"/>
      <point x="32" y="247" type="curve"/>
      <point x="32" y="73"/>
      <point x="115" y="-9"/>
      <point x="279" y="-9" type="curve"/>
      <point x="462" y="-9"/>
      <point x="553" y="76"/>
    </contour>
  </outline>
</glyph>
<glyph name="florin" format="1">
  <advance width="430"/>
  <unicode hex="0192"/>
  <outline>
    <contour>
      <point x="412" y="628" type="line"/>
      <point x="396" y="630"/>
      <point x="359" y="637"/>
      <point x="319" y="637" type="curve"/>
      <point x="191" y="637"/>
      <point x="150" y="585"/>
      <point x="132" y="470" type="curve" smooth="yes"/>
      <point x="32" y="-152" type="line"/>
      <point x="152" y="-152" type="line"/>
      <point x="250" y="451" type="line" smooth="yes"/>
      <point x="259" y="510"/>
      <point x="275" y="531"/>
      <point x="338" y="531" type="curve"/>
      <point x="367" y="531"/>
      <point x="398" y="528"/>
      <point x="412" y="526" type="curve"/>
    </contour>
    <contour>
      <point x="32" y="296" type="line"/>
      <point x="388" y="296" type="line"/>
      <point x="388" y="378" type="line"/>
      <point x="32" y="378" type="line"/>
    </contour>
  </outline>
</glyph>
<glyph name="uni01B5" format="1">
  <advance width="517"/>
  <unicode hex="01B5"/>
  <outline>
    <contour>
      <point x="472" y="281" type="line"/>
      <point x="472" y="362" type="line"/>
      <point x="49" y="362" type="line"/>
      <point x="49" y="281" type="line"/>
    </contour>
    <component base="Z" xOffset="5"/>
  </outline>
</glyph>
<glyph name="uni01B6" format="1">
  <advance width="434"/>
  <unicode hex="01B6"/>
  <outline>
    <contour>
      <point x="390" y="219" type="line"/>
      <point x="390" y="300" type="line"/>
      <point x="48" y="300" type="line"/>
      <point x="48" y="219" type="line"/>
    </contour>
    <component base="z" xOffset="4"/>
  </outline>
</glyph>
<glyph name="uni0237" format="1">
  <advance width="233"/>
  <unicode hex="0237"/>
  <outline>
    <contour>
      <point x="-59" y="-156" type="line"/>
      <point x="-42" y="-158"/>
      <point x="-26" y="-162"/>
      <point x="15" y="-162" type="curve"/>
      <point x="117" y="-162"/>
      <point x="179" y="-109"/>
      <point x="179" y="5" type="curve"/>
      <point x="179" y="494" type="line"/>
      <point x="63" y="494" type="line"/>
      <point x="63" y="19" type="line"/>
      <point x="63" y="-40"/>
      <point x="42" y="-61"/>
      <point x="-23" y="-61" type="curve"/>
      <point x="-36" y="-61"/>
      <point x="-47" y="-60"/>
      <point x="-59" y="-58" type="curve"/>
    </contour>
    <contour>
      <point x="121" y="520" type="move" name="top"/>
    </contour>
  </outline>
</glyph>
<glyph name="uni0259" format="1">
  <advance width="499"/>
  <unicode hex="0259"/>
  <outline>
    <contour>
      <point x="240" y="94" type="curve"/>
      <point x="164" y="94"/>
      <point x="141" y="118"/>
      <point x="140" y="184" type="curve"/>
      <point x="140" y="193"/>
      <point x="140" y="205"/>
      <point x="140" y="212" type="curve"/>
      <point x="349" y="212" type="line"/>
      <point x="349" y="124"/>
      <point x="324" y="94"/>
    </contour>
    <contour>
      <point x="55" y="468" type="curve"/>
      <point x="55" y="377" type="line"/>
      <point x="82" y="386"/>
      <point x="152" y="401"/>
      <point x="226" y="401" type="curve" smooth="yes"/>
      <point x="311" y="401"/>
      <point x="347" y="377"/>
      <point x="349" y="294" type="curve"/>
      <point x="39" y="294" type="line"/>
      <point x="35" y="263"/>
      <point x="34" y="241"/>
      <point x="34" y="201" type="curve"/>
      <point x="34" y="53"/>
      <point x="86" y="-9"/>
      <point x="240" y="-9" type="curve"/>
      <point x="396" y="-9"/>
      <point x="466" y="69"/>
      <point x="466" y="251" type="curve" smooth="yes"/>
      <point x="466" y="431"/>
      <point x="400" y="504"/>
      <point x="245" y="504" type="curve" smooth="yes"/>
      <point x="158" y="504"/>
      <point x="82" y="485"/>
    </contour>
  </outline>
</glyph>
<glyph name="circumflex" format="1">
  <advance width="438"/>
  <unicode hex="02C6"/>
  <outline>
    <contour>
      <point x="296" y="558" type="line"/>
      <point x="388" y="558" type="line"/>
      <point x="273" y="684" type="line"/>
      <point x="165" y="684" type="line"/>
      <point x="50" y="558" type="line"/>
      <point x="143" y="558" type="line"/>
      <point x="219" y="623" type="line"/>
    </contour>
    <contour>
      <point x="219" y="530" type="move" name="_top"/>
    </contour>
  </outline>
</glyph>
<glyph name="caron" format="1">
  <advance width="438"/>
  <unicode hex="02C7"/>
  <outline>
    <component base="circumflex" xScale="-1.0" yScale="-1.0" xOffset="438" yOffset="1242"/>
    <contour>
      <point x="220" y="530" type="move" name="_top"/>
    </contour>
  </outline>
</glyph>
<glyph name="breve" format="1">
  <advance width="383"/>
  <unicode hex="02D8"/>
  <outline>
    <contour>
      <point x="333" y="684" type="curve"/>
      <point x="261" y="684" type="line"/>
      <point x="261" y="646"/>
      <point x="236" y="621"/>
      <point x="192" y="621" type="curve" smooth="yes"/>
      <point x="147" y="621"/>
      <point x="123" y="646"/>
      <point x="123" y="684" type="curve"/>
      <point x="50" y="684" type="line"/>
      <point x="50" y="604"/>
      <point x="103" y="551"/>
      <point x="192" y="551" type="curve" smooth="yes"/>
      <point x="281" y="551"/>
      <point x="333" y="604"/>
    </contour>
    <contour>
      <point x="192" y="530" type="move" name="_top"/>
    </contour>
  </outline>
</glyph>
<glyph name="ring" format="1">
  <advance width="333"/>
  <unicode hex="02DA"/>
  <outline>
    <contour>
      <point x="165" y="602" type="curve" smooth="yes"/>
      <point x="132" y="602"/>
      <point x="113" y="617"/>
      <point x="113" y="643" type="curve" smooth="yes"/>
      <point x="113" y="668"/>
      <point x="132" y="684"/>
      <point x="165" y="684" type="curve" smooth="yes"/>
      <point x="199" y="684"/>
      <point x="219" y="668"/>
      <point x="219" y="643" type="curve" smooth="yes"/>
      <point x="219" y="617"/>
      <point x="199" y="602"/>
    </contour>
    <contour>
      <point x="165" y="543" type="curve" smooth="yes"/>
      <point x="237" y="543"/>
      <point x="281" y="582"/>
      <point x="281" y="643" type="curve" smooth="yes"/>
      <point x="281" y="702"/>
      <point x="237" y="740"/>
      <point x="165" y="740" type="curve" smooth="yes"/>
      <point x="95" y="740"/>
      <point x="50" y="702"/>
      <point x="50" y="643" type="curve" smooth="yes"/>
      <point x="50" y="582"/>
      <point x="94" y="543"/>
    </contour>
    <contour>
      <point x="165" y="530" type="move" name="_top"/>
    </contour>
  </outline>
</glyph>
<glyph name="ogonek" format="1">
  <advance width="320"/>
  <unicode hex="02DB"/>
  <outline>
    <contour>
      <point x="270" y="9" type="curve"/>
      <point x="221" y="31" type="line"/>
      <point x="200" y="27"/>
      <point x="54" y="14"/>
      <point x="54" y="-100" type="curve"/>
      <point x="54" y="-159"/>
      <point x="89" y="-195"/>
      <point x="164" y="-195" type="curve"/>
      <point x="205" y="-195"/>
      <point x="241" y="-185"/>
      <point x="245" y="-184" type="curve"/>
      <point x="245" y="-113" type="line"/>
      <point x="233" y="-116"/>
      <point x="211" y="-120"/>
      <point x="193" y="-120" type="curve"/>
      <point x="157" y="-120"/>
      <point x="138" y="-109"/>
      <point x="138" y="-79" type="curve"/>
      <point x="138" y="-29"/>
      <point x="214" y="-2"/>
    </contour>
    <contour>
      <point x="270" y="9" type="move" name="_ogonek"/>
    </contour>
  </outline>
</glyph>
<glyph name="tilde" format="1">
  <advance width="399"/>
  <unicode hex="02DC"/>
  <outline>
    <contour>
      <point x="349" y="683" type="curve"/>
      <point x="279" y="683" type="line"/>
      <point x="279" y="657"/>
      <point x="275" y="628"/>
      <point x="254" y="628" type="curve"/>
      <point x="226" y="628"/>
      <point x="189" y="687"/>
      <point x="132" y="687" type="curve"/>
      <point x="68" y="687"/>
      <point x="50" y="618"/>
      <point x="50" y="558" type="curve"/>
      <point x="120" y="558" type="line"/>
      <point x="120" y="583"/>
      <point x="124" y="614"/>
      <point x="147" y="614" type="curve"/>
      <point x="175" y="614"/>
      <point x="211" y="554"/>
      <point x="268" y="554" type="curve"/>
      <point x="332" y="554"/>
      <point x="349" y="623"/>
    </contour>
    <contour>
      <point x="200" y="530" type="move" name="_top"/>
    </contour>
  </outline>
</glyph>
<glyph name="hungarumlaut" format="1">
  <advance width="512"/>
  <unicode hex="02DD"/>
  <outline>
    <contour>
      <point x="275" y="684" type="line"/>
      <point x="156" y="684" type="line"/>
      <point x="53" y="558" type="line"/>
      <point x="144" y="558" type="line"/>
    </contour>
    <contour>
      <point x="459" y="684" type="line"/>
      <point x="341" y="684" type="line"/>
      <point x="237" y="558" type="line"/>
      <point x="329" y="558" type="line"/>
    </contour>
    <contour>
      <point x="223" y="530" type="move" name="_top"/>
    </contour>
  </outline>
</glyph>
<glyph name="uni0312" format="1">
  <advance width="205"/>
  <unicode hex="0312"/>
  <outline>
    <contour>
      <point x="70" y="680" type="curve" smooth="yes"/>
      <point x="50" y="558" type="line"/>
      <point x="153" y="558" type="line"/>
      <point x="155" y="722" type="line"/>
      <point x="121" y="722" type="line" smooth="yes"/>
      <point x="93" y="722"/>
      <point x="74" y="707"/>
    </contour>
    <contour>
      <point x="101" y="530" type="move" name="_top"/>
    </contour>
  </outline>
</glyph>
<glyph name="uni0326" format="1">
  <advance width="205"/>
  <unicode hex="0326"/>
  <outline>
    <contour>
      <point x="135" y="-179" type="curve" smooth="yes"/>
      <point x="155" y="-57" type="line"/>
      <point x="52" y="-57" type="line"/>
      <point x="50" y="-221" type="line"/>
      <point x="84" y="-221" type="line" smooth="yes"/>
      <point x="112" y="-221"/>
      <point x="130" y="-206"/>
    </contour>
    <contour>
      <point x="105" y="0" type="move" name="_bottom"/>
    </contour>
  </outline>
</glyph>
<glyph name="uni0394" format="1">
  <advance width="613"/>
  <unicode hex="0394"/>
  <outline>
    <contour>
      <point x="522" y="0" type="line"/>
      <point x="593" y="0" type="line"/>
      <point x="593" y="113" type="line"/>
      <point x="369" y="627" type="line"/>
      <point x="249" y="627" type="line"/>
    </contour>
    <contour>
      <point x="91" y="0" type="line"/>
      <point x="364" y="627" type="line"/>
      <point x="245" y="627" type="line"/>
      <point x="20" y="113" type="line"/>
      <point x="20" y="0" type="line"/>
    </contour>
    <contour>
      <point x="77" y="113" type="line"/>
      <point x="77" y="0" type="line"/>
      <point x="530" y="0" type="line"/>
      <point x="530" y="113" type="line"/>
    </contour>
  </outline>
</glyph>
<glyph name="uni03A9" format="1">
  <advance width="681"/>
  <unicode hex="03A9"/>
  <outline>
    <contour>
      <point x="300" y="0" type="line"/>
      <point x="300" y="213" type="line"/>
      <point x="193" y="213" type="line"/>
      <point x="193" y="0" type="line"/>
    </contour>
    <contour>
      <point x="61" y="113" type="line"/>
      <point x="61" y="0" type="line"/>
      <point x="300" y="0" type="line"/>
      <point x="300" y="113" type="line"/>
    </contour>
    <contour>
      <point x="300" y="129" type="curve"/>
      <point x="300" y="213" type="line"/>
      <point x="233" y="224"/>
      <point x="160" y="271"/>
      <point x="160" y="374" type="curve"/>
      <point x="160" y="471"/>
      <point x="220" y="531"/>
      <point x="341" y="531" type="curve" smooth="yes"/>
      <point x="461" y="531"/>
      <point x="521" y="471"/>
      <point x="521" y="374" type="curve"/>
      <point x="521" y="270"/>
      <point x="450" y="226"/>
      <point x="382" y="213" type="curve"/>
      <point x="382" y="129" type="line"/>
      <point x="548" y="137"/>
      <point x="649" y="234"/>
      <point x="649" y="379" type="curve"/>
      <point x="649" y="535"/>
      <point x="547" y="647"/>
      <point x="341" y="647" type="curve" smooth="yes"/>
      <point x="134" y="647"/>
      <point x="32" y="534"/>
      <point x="32" y="379" type="curve"/>
      <point x="32" y="234"/>
      <point x="131" y="136"/>
    </contour>
    <contour>
      <point x="382" y="0" type="line"/>
      <point x="489" y="0" type="line"/>
      <point x="489" y="213" type="line"/>
      <point x="382" y="213" type="line"/>
    </contour>
    <contour>
      <point x="621" y="113" type="line"/>
      <point x="382" y="113" type="line"/>
      <point x="382" y="0" type="line"/>
      <point x="621" y="0" type="line"/>
    </contour>
  </outline>
</glyph>
<glyph name="uni03BC" format="1">
  <advance width="544"/>
  <unicode hex="03BC"/>
  <outline>
    <contour>
      <point x="230" y="-9" type="curve" smooth="yes"/>
      <point x="284" y="-9"/>
      <point x="335" y="11"/>
      <point x="378" y="38" type="curve"/>
      <point x="382" y="0" type="line"/>
      <point x="489" y="0" type="line"/>
      <point x="489" y="494" type="line"/>
      <point x="373" y="494" type="line"/>
      <point x="373" y="125" type="line"/>
      <point x="338" y="110"/>
      <point x="295" y="100"/>
      <point x="253" y="100" type="curve" smooth="yes"/>
      <point x="194" y="100"/>
      <point x="171" y="120"/>
      <point x="171" y="172" type="curve" smooth="yes"/>
      <point x="171" y="494" type="line"/>
      <point x="55" y="494" type="line"/>
      <point x="55" y="60" type="line" smooth="yes"/>
      <point x="55" y="-14"/>
      <point x="55" y="-86"/>
      <point x="81" y="-152" type="curve"/>
      <point x="199" y="-152" type="line"/>
      <point x="175" y="-103"/>
      <point x="171" y="-48"/>
      <point x="171" y="12" type="curve"/>
      <point x="179" y="-3"/>
      <point x="198" y="-9"/>
    </contour>
  </outline>
</glyph>
<glyph name="pi" format="1">
  <advance width="589"/>
  <unicode hex="03C0"/>
  <outline>
    <contour>
      <point x="25" y="494" type="line"/>
      <point x="25" y="386" type="line"/>
      <point x="562" y="386" type="line"/>
      <point x="562" y="494" type="line"/>
    </contour>
    <contour>
      <point x="464" y="173" type="curve" smooth="yes"/>
      <point x="464" y="419" type="line"/>
      <point x="348" y="419" type="line"/>
      <point x="348" y="144" type="line" smooth="yes"/>
      <point x="348" y="54"/>
      <point x="402" y="0"/>
      <point x="492" y="0" type="curve" smooth="yes"/>
      <point x="543" y="0" type="line"/>
      <point x="543" y="110" type="line"/>
      <point x="529" y="110" type="line" smooth="yes"/>
      <point x="486" y="110"/>
      <point x="464" y="129"/>
    </contour>
    <contour>
      <point x="168" y="0" type="line"/>
      <point x="209" y="109"/>
      <point x="241" y="249"/>
      <point x="235" y="419" type="curve"/>
      <point x="120" y="419" type="line"/>
      <point x="130" y="262"/>
      <point x="85" y="110"/>
      <point x="38" y="0" type="curve"/>
    </contour>
  </outline>
</glyph>
<glyph name="uni1E9E" format="1">
  <advance width="650"/>
  <unicode hex="1E9E"/>
  <outline>
    <contour>
      <point x="311" y="637" type="curve"/>
      <point x="136" y="637"/>
      <point x="56" y="568"/>
      <point x="56" y="421" type="curve" smooth="yes"/>
      <point x="56" y="0" type="line"/>
      <point x="176" y="0" type="line"/>
      <point x="176" y="420" type="line" smooth="yes"/>
      <point x="176" y="503"/>
      <point x="217" y="532"/>
      <point x="302" y="532" type="curve"/>
      <point x="342" y="532"/>
      <point x="399" y="528"/>
      <point x="415" y="524" type="curve"/>
      <point x="354" y="285" type="line"/>
      <point x="462" y="258" type="line" smooth="yes"/>
      <point x="496" y="249"/>
      <point x="505" y="236"/>
      <point x="505" y="192" type="curve" smooth="yes"/>
      <point x="505" y="124"/>
      <point x="479" y="97"/>
      <point x="419" y="97" type="curve" smooth="yes"/>
      <point x="368" y="97"/>
      <point x="329" y="102"/>
      <point x="301" y="107" type="curve"/>
      <point x="301" y="3" type="line"/>
      <point x="336" y="-5"/>
      <point x="387" y="-10"/>
      <point x="445" y="-10" type="curve" smooth="yes"/>
      <point x="551" y="-10"/>
      <point x="623" y="41"/>
      <point x="623" y="195" type="curve" smooth="yes"/>
      <point x="623" y="293"/>
      <point x="597" y="326"/>
      <point x="534" y="343" type="curve" smooth="yes"/>
      <point x="480" y="358" type="line"/>
      <point x="544" y="603" type="line"/>
      <point x="491" y="622"/>
      <point x="410" y="637"/>
    </contour>
  </outline>
</glyph>
<glyph name="emdash" format="1">
  <advance width="776"/>
  <unicode hex="2014"/>
  <outline>
    <contour>
      <point x="733" y="274" type="line"/>
      <point x="733" y="363" type="line"/>
      <point x="44" y="363" type="line"/>
      <point x="44" y="274" type="line"/>
    </contour>
  </outline>
</glyph>
<glyph name="quoteright" format="1">
  <advance width="170"/>
  <unicode hex="2019"/>
  <outline>
    <contour>
      <point x="120" y="461" type="curve" smooth="yes"/>
      <point x="148" y="627" type="line"/>
      <point x="42" y="627" type="line"/>
      <point x="39" y="420" type="line"/>
      <point x="71" y="420" type="line" smooth="yes"/>
      <point x="98" y="420"/>
      <point x="116" y="435"/>
    </contour>
  </outline>
</glyph>
<glyph name="dagger" format="1">
  <advance width="347"/>
  <unicode hex="2020"/>
  <outline>
    <contour>
      <point x="160" y="509" type="line"/>
      <point x="160" y="447" type="line"/>
      <point x="326" y="438" type="line"/>
      <point x="326" y="519" type="line"/>
    </contour>
    <contour>
      <point x="219" y="221" type="line"/>
      <point x="208" y="478" type="line"/>
      <point x="140" y="478" type="line"/>
      <point x="128" y="221" type="line"/>
    </contour>
    <contour>
      <point x="187" y="447" type="line"/>
      <point x="187" y="509" type="line"/>
      <point x="21" y="519" type="line"/>
      <point x="21" y="438" type="line"/>
    </contour>
    <contour>
      <point x="140" y="467" type="line"/>
      <point x="208" y="467" type="line"/>
      <point x="217" y="627" type="line"/>
      <point x="130" y="627" type="line"/>
    </contour>
  </outline>
</glyph>
<glyph name="daggerdbl" format="1">
  <advance width="376"/>
  <unicode hex="2021"/>
  <outline>
    <contour>
      <point x="175" y="509" type="line"/>
      <point x="175" y="447" type="line"/>
      <point x="341" y="438" type="line"/>
      <point x="341" y="519" type="line"/>
    </contour>
    <contour>
      <point x="222" y="247" type="line"/>
      <point x="222" y="478" type="line"/>
      <point x="154" y="478" type="line"/>
      <point x="154" y="247" type="line"/>
    </contour>
    <contour>
      <point x="202" y="447" type="line"/>
      <point x="202" y="509" type="line"/>
      <point x="36" y="519" type="line"/>
      <point x="36" y="438" type="line"/>
    </contour>
    <contour>
      <point x="154" y="467" type="line"/>
      <point x="222" y="467" type="line"/>
      <point x="231" y="627" type="line"/>
      <point x="144" y="627" type="line"/>
    </contour>
    <contour>
      <point x="202" y="237" type="line"/>
      <point x="202" y="299" type="line"/>
      <point x="36" y="308" type="line"/>
      <point x="36" y="227" type="line"/>
    </contour>
    <contour>
      <point x="175" y="298" type="line"/>
      <point x="175" y="236" type="line"/>
      <point x="341" y="227" type="line"/>
      <point x="341" y="308" type="line"/>
    </contour>
    <contour>
      <point x="222" y="279" type="line"/>
      <point x="153" y="279" type="line"/>
      <point x="144" y="118" type="line"/>
      <point x="231" y="118" type="line"/>
    </contour>
  </outline>
</glyph>
<glyph name="ellipsis" format="1">
  <advance width="556"/>
  <unicode hex="2026"/>
  <outline>
    <contour>
      <point x="229" y="0" type="line"/>
      <point x="327" y="0" type="line"/>
      <point x="327" y="111" type="line"/>
      <point x="229" y="111" type="line"/>
    </contour>
    <contour>
      <point x="38" y="0" type="line"/>
      <point x="136" y="0" type="line"/>
      <point x="136" y="111" type="line"/>
      <point x="38" y="111" type="line"/>
    </contour>
    <contour>
      <point x="420" y="0" type="line"/>
      <point x="519" y="0" type="line"/>
      <point x="519" y="111" type="line"/>
      <point x="420" y="111" type="line"/>
    </contour>
  </outline>
</glyph>
<glyph name="perthousand" format="1">
  <advance width="953"/>
  <unicode hex="2030"/>
  <outline>
    <contour>
      <point x="152" y="566" type="curve"/>
      <point x="189" y="566"/>
      <point x="201" y="543"/>
      <point x="201" y="477" type="curve"/>
      <point x="201" y="412"/>
      <point x="189" y="391"/>
      <point x="152" y="391" type="curve"/>
      <point x="114" y="391"/>
      <point x="102" y="412"/>
      <point x="102" y="477" type="curve"/>
      <point x="102" y="543"/>
      <point x="114" y="566"/>
    </contour>
    <contour>
      <point x="152" y="320" type="curve"/>
      <point x="245" y="320"/>
      <point x="281" y="364"/>
      <point x="281" y="477" type="curve"/>
      <point x="281" y="590"/>
      <point x="245" y="633"/>
      <point x="152" y="633" type="curve"/>
      <point x="58" y="633"/>
      <point x="21" y="590"/>
      <point x="21" y="477" type="curve"/>
      <point x="21" y="364"/>
      <point x="58" y="320"/>
    </contour>
    <contour>
      <point x="503" y="241" type="curve"/>
      <point x="540" y="241"/>
      <point x="552" y="218"/>
      <point x="552" y="152" type="curve"/>
      <point x="552" y="87"/>
      <point x="540" y="66"/>
      <point x="503" y="66" type="curve"/>
      <point x="465" y="66"/>
      <point x="453" y="87"/>
      <point x="453" y="152" type="curve"/>
      <point x="453" y="218"/>
      <point x="465" y="241"/>
    </contour>
    <contour>
      <point x="503" y="-5" type="curve"/>
      <point x="596" y="-5"/>
      <point x="633" y="39"/>
      <point x="633" y="152" type="curve"/>
      <point x="633" y="264"/>
      <point x="596" y="308"/>
      <point x="503" y="308" type="curve"/>
      <point x="409" y="308"/>
      <point x="372" y="264"/>
      <point x="372" y="152" type="curve"/>
      <point x="372" y="39"/>
      <point x="409" y="-5"/>
    </contour>
    <contour>
      <point x="802" y="241" type="curve"/>
      <point x="839" y="241"/>
      <point x="852" y="218"/>
      <point x="852" y="152" type="curve"/>
      <point x="852" y="87"/>
      <point x="839" y="66"/>
      <point x="802" y="66" type="curve"/>
      <point x="765" y="66"/>
      <point x="752" y="87"/>
      <point x="752" y="152" type="curve"/>
      <point x="752" y="218"/>
      <point x="765" y="241"/>
    </contour>
    <contour>
      <point x="802" y="-5" type="curve"/>
      <point x="895" y="-5"/>
      <point x="932" y="39"/>
      <point x="932" y="152" type="curve"/>
      <point x="932" y="264"/>
      <point x="895" y="308"/>
      <point x="802" y="308" type="curve"/>
      <point x="708" y="308"/>
      <point x="671" y="264"/>
      <point x="671" y="152" type="curve"/>
      <point x="671" y="39"/>
      <point x="708" y="-5"/>
    </contour>
    <component base="fraction" xOffset="242"/>
  </outline>
</glyph>
<glyph name="guilsinglleft" format="1">
  <advance width="311"/>
  <unicode hex="2039"/>
  <outline>
    <contour>
      <point x="290" y="494" type="line"/>
      <point x="166" y="494" type="line"/>
      <point x="17" y="281" type="line"/>
      <point x="120" y="250" type="line"/>
    </contour>
    <contour>
      <point x="166" y="64" type="line"/>
      <point x="290" y="64" type="line"/>
      <point x="120" y="315" type="line"/>
      <point x="17" y="281" type="line"/>
    </contour>
  </outline>
</glyph>
<glyph name="fraction" format="1">
  <advance width="168"/>
  <unicode hex="2044"/>
  <outline>
    <contour>
      <point x="-25" y="0" type="line"/>
      <point x="275" y="627" type="line"/>
      <point x="193" y="627" type="line"/>
      <point x="-107" y="0" type="line"/>
    </contour>
  </outline>
</glyph>
<glyph name="uni2070" format="1">
  <advance width="361"/>
  <unicode hex="2070"/>
  <outline>
    <contour>
      <point x="181" y="554" type="curve"/>
      <point x="233" y="554"/>
      <point x="244" y="538"/>
      <point x="244" y="450" type="curve"/>
      <point x="244" y="362"/>
      <point x="233" y="346"/>
      <point x="181" y="346" type="curve"/>
      <point x="129" y="346"/>
      <point x="116" y="362"/>
      <point x="116" y="450" type="curve"/>
      <point x="116" y="538"/>
      <point x="129" y="554"/>
    </contour>
    <contour>
      <point x="181" y="265" type="curve"/>
      <point x="287" y="265"/>
      <point x="333" y="303"/>
      <point x="333" y="450" type="curve"/>
      <point x="333" y="594"/>
      <point x="299" y="633"/>
      <point x="181" y="633" type="curve"/>
      <point x="75" y="633"/>
      <point x="28" y="594"/>
      <point x="28" y="450" type="curve"/>
      <point x="28" y="303"/>
      <point x="62" y="265"/>
    </contour>
  </outline>
</glyph>
<glyph name="uni2074" format="1">
  <advance width="333"/>
  <unicode hex="2074"/>
  <outline>
    <contour>
      <point x="314" y="351" type="line"/>
      <point x="314" y="427" type="line"/>
      <point x="271" y="427" type="line"/>
      <point x="271" y="565" type="line"/>
      <point x="188" y="565" type="line"/>
      <point x="188" y="427" type="line"/>
      <point x="110" y="427" type="line"/>
      <point x="149" y="627" type="line"/>
      <point x="67" y="627" type="line"/>
      <point x="23" y="428" type="line"/>
      <point x="23" y="351" type="line"/>
      <point x="185" y="351" type="line"/>
      <point x="185" y="270" type="line"/>
      <point x="271" y="270" type="line"/>
      <point x="271" y="351" type="line"/>
    </contour>
  </outline>
</glyph>
<glyph name="uni2075" format="1">
  <advance width="289"/>
  <unicode hex="2075"/>
  <outline>
    <contour>
      <point x="144" y="265" type="curve"/>
      <point x="219" y="265"/>
      <point x="268" y="303"/>
      <point x="268" y="378" type="curve" smooth="yes"/>
      <point x="268" y="467"/>
      <point x="220" y="485"/>
      <point x="165" y="485" type="curve" smooth="yes"/>
      <point x="152" y="485"/>
      <point x="138" y="485"/>
      <point x="125" y="483" type="curve"/>
      <point x="125" y="552" type="line"/>
      <point x="244" y="552" type="line"/>
      <point x="244" y="627" type="line"/>
      <point x="42" y="627" type="line"/>
      <point x="42" y="412" type="line"/>
      <point x="64" y="415"/>
      <point x="93" y="417"/>
      <point x="118" y="417" type="curve" smooth="yes"/>
      <point x="167" y="417"/>
      <point x="183" y="410"/>
      <point x="183" y="379" type="curve" smooth="yes"/>
      <point x="183" y="353"/>
      <point x="167" y="343"/>
      <point x="120" y="343" type="curve"/>
      <point x="84" y="343"/>
      <point x="56" y="345"/>
      <point x="26" y="350" type="curve"/>
      <point x="26" y="277" type="line"/>
      <point x="49" y="268"/>
      <point x="92" y="265"/>
    </contour>
  </outline>
</glyph>
<glyph name="uni2076" format="1">
  <advance width="322"/>
  <unicode hex="2076"/>
  <outline>
    <contour>
      <point x="27" y="439" type="curve"/>
      <point x="27" y="308"/>
      <point x="64" y="265"/>
      <point x="171" y="265" type="curve"/>
      <point x="253" y="265"/>
      <point x="303" y="312"/>
      <point x="303" y="392" type="curve"/>
      <point x="303" y="470"/>
      <point x="270" y="507"/>
      <point x="202" y="507" type="curve"/>
      <point x="153" y="507"/>
      <point x="126" y="494"/>
      <point x="105" y="483" type="curve"/>
      <point x="105" y="424" type="line"/>
      <point x="118" y="430"/>
      <point x="146" y="437"/>
      <point x="172" y="437" type="curve"/>
      <point x="209" y="437"/>
      <point x="223" y="429"/>
      <point x="223" y="388" type="curve"/>
      <point x="223" y="354"/>
      <point x="205" y="337"/>
      <point x="168" y="337" type="curve"/>
      <point x="121" y="337"/>
      <point x="110" y="357"/>
      <point x="110" y="432" type="curve"/>
      <point x="110" y="535"/>
      <point x="129" y="563"/>
      <point x="204" y="563" type="curve"/>
      <point x="226" y="563"/>
      <point x="252" y="561"/>
      <point x="264" y="560" type="curve"/>
      <point x="264" y="628" type="line"/>
      <point x="253" y="631"/>
      <point x="226" y="633"/>
      <point x="204" y="633" type="curve"/>
      <point x="81" y="633"/>
      <point x="27" y="573"/>
    </contour>
  </outline>
</glyph>
<glyph name="uni2077" format="1">
  <advance width="288"/>
  <unicode hex="2077"/>
  <outline>
    <contour>
      <point x="270" y="549" type="line"/>
      <point x="270" y="627" type="line"/>
      <point x="23" y="627" type="line"/>
      <point x="23" y="549" type="line"/>
      <point x="176" y="549" type="line"/>
      <point x="19" y="270" type="line"/>
      <point x="118" y="270" type="line"/>
    </contour>
  </outline>
</glyph>
<glyph name="uni2078" format="1">
  <advance width="328"/>
  <unicode hex="2078"/>
  <outline>
    <contour>
      <point x="164" y="265" type="curve"/>
      <point x="261" y="265"/>
      <point x="302" y="296"/>
      <point x="302" y="367" type="curve"/>
      <point x="302" y="410"/>
      <point x="279" y="444"/>
      <point x="235" y="455" type="curve"/>
      <point x="279" y="468"/>
      <point x="295" y="499"/>
      <point x="295" y="538" type="curve"/>
      <point x="295" y="607"/>
      <point x="259" y="633"/>
      <point x="164" y="633" type="curve"/>
      <point x="73" y="633"/>
      <point x="33" y="605"/>
      <point x="33" y="538" type="curve"/>
      <point x="33" y="499"/>
      <point x="49" y="469"/>
      <point x="93" y="455" type="curve"/>
      <point x="48" y="444"/>
      <point x="26" y="409"/>
      <point x="26" y="367" type="curve"/>
      <point x="26" y="293"/>
      <point x="64" y="265"/>
    </contour>
    <contour>
      <point x="164" y="563" type="curve"/>
      <point x="203" y="563"/>
      <point x="219" y="553"/>
      <point x="219" y="525" type="curve"/>
      <point x="219" y="497"/>
      <point x="205" y="485"/>
      <point x="164" y="485" type="curve"/>
      <point x="123" y="485"/>
      <point x="110" y="497"/>
      <point x="110" y="525" type="curve"/>
      <point x="110" y="553"/>
      <point x="124" y="563"/>
    </contour>
    <contour>
      <point x="164" y="418" type="curve"/>
      <point x="205" y="418"/>
      <point x="222" y="407"/>
      <point x="222" y="379" type="curve"/>
      <point x="222" y="349"/>
      <point x="205" y="338"/>
      <point x="164" y="338" type="curve"/>
      <point x="122" y="338"/>
      <point x="107" y="349"/>
      <point x="107" y="380" type="curve"/>
      <point x="107" y="407"/>
      <point x="122" y="418"/>
    </contour>
  </outline>
</glyph>
<glyph name="uni2079" format="1">
  <advance width="324"/>
  <unicode hex="2079"/>
  <outline>
    <contour>
      <point x="297" y="458" type="curve"/>
      <point x="297" y="590"/>
      <point x="262" y="633"/>
      <point x="156" y="633" type="curve"/>
      <point x="71" y="633"/>
      <point x="20" y="586"/>
      <point x="20" y="507" type="curve"/>
      <point x="20" y="429"/>
      <point x="55" y="391"/>
      <point x="125" y="391" type="curve"/>
      <point x="170" y="391"/>
      <point x="197" y="405"/>
      <point x="218" y="415" type="curve"/>
      <point x="218" y="476" type="line"/>
      <point x="206" y="470"/>
      <point x="188" y="461"/>
      <point x="154" y="461" type="curve"/>
      <point x="115" y="461"/>
      <point x="102" y="469"/>
      <point x="102" y="511" type="curve"/>
      <point x="102" y="544"/>
      <point x="119" y="560"/>
      <point x="156" y="560" type="curve"/>
      <point x="204" y="560"/>
      <point x="213" y="542"/>
      <point x="213" y="466" type="curve"/>
      <point x="213" y="364"/>
      <point x="194" y="337"/>
      <point x="119" y="337" type="curve"/>
      <point x="91" y="337"/>
      <point x="71" y="338"/>
      <point x="56" y="340" type="curve"/>
      <point x="56" y="270" type="line"/>
      <point x="67" y="267"/>
      <point x="99" y="265"/>
      <point x="119" y="265" type="curve"/>
      <point x="243" y="265"/>
      <point x="297" y="325"/>
    </contour>
  </outline>
</glyph>
<glyph name="Euro" format="1">
  <advance width="541"/>
  <unicode hex="20AC"/>
  <outline>
    <contour>
      <point x="24" y="417" type="line"/>
      <point x="24" y="346" type="line"/>
      <point x="457" y="346" type="line"/>
      <point x="457" y="417" type="line"/>
    </contour>
    <contour>
      <point x="24" y="293" type="line"/>
      <point x="24" y="221" type="line"/>
      <point x="457" y="221" type="line"/>
      <point x="457" y="293" type="line"/>
    </contour>
    <contour>
      <point x="512" y="137" type="line"/>
      <point x="470" y="119"/>
      <point x="414" y="104"/>
      <point x="366" y="104" type="curve"/>
      <point x="255" y="104"/>
      <point x="225" y="136"/>
      <point x="225" y="315" type="curve" smooth="yes"/>
      <point x="225" y="492"/>
      <point x="256" y="529"/>
      <point x="376" y="529" type="curve"/>
      <point x="419" y="529"/>
      <point x="459" y="526"/>
      <point x="498" y="522" type="curve"/>
      <point x="498" y="627" type="line"/>
      <point x="462" y="634"/>
      <point x="419" y="637"/>
      <point x="376" y="637" type="curve"/>
      <point x="184" y="637"/>
      <point x="101" y="552"/>
      <point x="101" y="315" type="curve" smooth="yes"/>
      <point x="101" y="65"/>
      <point x="172" y="-9"/>
      <point x="341" y="-9" type="curve"/>
      <point x="423" y="-9"/>
      <point x="475" y="11"/>
      <point x="512" y="30" type="curve"/>
    </contour>
  </outline>
</glyph>
<glyph name="uni20BA" format="1">
  <advance width="551"/>
  <unicode hex="20BA"/>
  <outline>
    <contour>
      <point x="412" y="274" type="line"/>
      <point x="412" y="153"/>
      <point x="378" y="113"/>
      <point x="277" y="113" type="curve" smooth="yes"/>
      <point x="226" y="113" type="line"/>
      <point x="226" y="627" type="line"/>
      <point x="106" y="627" type="line"/>
      <point x="106" y="0" type="line"/>
      <point x="277" y="0" type="line" smooth="yes"/>
      <point x="448" y="0"/>
      <point x="532" y="90"/>
      <point x="532" y="274" type="curve"/>
    </contour>
    <contour>
      <point x="36" y="405" type="line"/>
      <point x="36" y="331" type="line"/>
      <point x="421" y="450" type="line"/>
      <point x="421" y="524" type="line"/>
    </contour>
    <contour>
      <point x="36" y="276" type="line"/>
      <point x="36" y="202" type="line"/>
      <point x="421" y="321" type="line"/>
      <point x="421" y="395" type="line"/>
    </contour>
    <contour>
      <point x="310" y="645" type="move" name="top"/>
    </contour>
  </outline>
</glyph>
<glyph name="uni2120" format="1">
  <advance width="760"/>
  <unicode hex="2120"/>
  <outline>
    <contour>
      <point x="116" y="428" type="curve" smooth="yes"/>
      <point x="189" y="411" type="line" smooth="yes"/>
      <point x="209" y="407"/>
      <point x="218" y="402"/>
      <point x="218" y="382" type="curve"/>
      <point x="218" y="355"/>
      <point x="209" y="343"/>
      <point x="162" y="343" type="curve"/>
      <point x="109" y="343"/>
      <point x="66" y="351"/>
      <point x="41" y="358" type="curve"/>
      <point x="41" y="283" type="line"/>
      <point x="61" y="275"/>
      <point x="107" y="268"/>
      <point x="162" y="268" type="curve"/>
      <point x="282" y="268"/>
      <point x="301" y="324"/>
      <point x="301" y="383" type="curve"/>
      <point x="301" y="458"/>
      <point x="269" y="469"/>
      <point x="218" y="481" type="curve" smooth="yes"/>
      <point x="145" y="496" type="line" smooth="yes"/>
      <point x="126" y="501"/>
      <point x="120" y="508"/>
      <point x="120" y="524" type="curve"/>
      <point x="120" y="552"/>
      <point x="132" y="564"/>
      <point x="176" y="564" type="curve" smooth="yes"/>
      <point x="225" y="564"/>
      <point x="251" y="557"/>
      <point x="272" y="554" type="curve"/>
      <point x="272" y="626" type="line"/>
      <point x="254" y="631"/>
      <point x="226" y="636"/>
      <point x="178" y="636" type="curve" smooth="yes"/>
      <point x="84" y="636"/>
      <point x="40" y="599"/>
      <point x="40" y="518" type="curve"/>
      <point x="40" y="452"/>
      <point x="75" y="437"/>
    </contour>
    <contour>
      <point x="712" y="276" type="line"/>
      <point x="712" y="627" type="line"/>
      <point x="612" y="627" type="line"/>
      <point x="528" y="447" type="line"/>
      <point x="444" y="627" type="line"/>
      <point x="341" y="627" type="line"/>
      <point x="341" y="276" type="line"/>
      <point x="420" y="276" type="line"/>
      <point x="420" y="495" type="line"/>
      <point x="493" y="344" type="line"/>
      <point x="559" y="344" type="line"/>
      <point x="632" y="495" type="line"/>
      <point x="632" y="276" type="line"/>
    </contour>
  </outline>
</glyph>
<glyph name="trademark" format="1">
  <advance width="771"/>
  <unicode hex="2122"/>
  <outline>
    <contour>
      <point x="315" y="551" type="line"/>
      <point x="315" y="627" type="line"/>
      <point x="18" y="627" type="line"/>
      <point x="18" y="551" type="line"/>
      <point x="125" y="551" type="line"/>
      <point x="125" y="276" type="line"/>
      <point x="209" y="276" type="line"/>
      <point x="209" y="551" type="line"/>
    </contour>
    <contour>
      <point x="721" y="276" type="line"/>
      <point x="721" y="627" type="line"/>
      <point x="622" y="627" type="line"/>
      <point x="538" y="447" type="line"/>
      <point x="454" y="627" type="line"/>
      <point x="351" y="627" type="line"/>
      <point x="351" y="276" type="line"/>
      <point x="430" y="276" type="line"/>
      <point x="430" y="495" type="line"/>
      <point x="503" y="344" type="line"/>
      <point x="569" y="344" type="line"/>
      <point x="642" y="495" type="line"/>
      <point x="642" y="276" type="line"/>
    </contour>
  </outline>
</glyph>
<glyph name="arrowup" format="1">
  <advance width="663"/>
  <unicode hex="2191"/>
  <outline>
    <contour>
      <point x="645" y="345" type="line"/>
      <point x="645" y="474" type="line"/>
      <point x="330" y="646" type="line"/>
      <point x="18" y="474" type="line"/>
      <point x="18" y="345" type="line"/>
      <point x="207" y="449" type="line" smooth="yes"/>
      <point x="227" y="460"/>
      <point x="257" y="476"/>
      <point x="273" y="487" type="curve"/>
      <point x="275" y="486" type="line"/>
      <point x="273" y="460"/>
      <point x="273" y="442"/>
      <point x="273" y="387" type="curve" smooth="yes"/>
      <point x="273" y="0" type="line"/>
      <point x="389" y="0" type="line"/>
      <point x="389" y="387" type="line" smooth="yes"/>
      <point x="389" y="442"/>
      <point x="389" y="460"/>
      <point x="387" y="486" type="curve"/>
      <point x="390" y="487" type="line"/>
      <point x="405" y="476"/>
      <point x="432" y="460"/>
      <point x="453" y="449" type="curve" smooth="yes"/>
    </contour>
  </outline>
</glyph>
<glyph name="partialdiff" format="1">
  <advance width="544"/>
  <unicode hex="2202"/>
  <outline>
    <contour>
      <point x="396" y="430" type="curve"/>
      <point x="396" y="259"/>
      <point x="366" y="101"/>
      <point x="241" y="101" type="curve"/>
      <point x="166" y="101"/>
      <point x="137" y="140"/>
      <point x="137" y="205" type="curve" smooth="yes"/>
      <point x="137" y="281"/>
      <point x="170" y="346"/>
      <point x="263" y="346" type="curve"/>
      <point x="322" y="346"/>
      <point x="360" y="333"/>
      <point x="414" y="300" type="curve"/>
      <point x="419" y="396" type="line"/>
      <point x="354" y="430"/>
      <point x="306" y="439"/>
      <point x="247" y="439" type="curve"/>
      <point x="96" y="439"/>
      <point x="19" y="338"/>
      <point x="19" y="193" type="curve" smooth="yes"/>
      <point x="19" y="70"/>
      <point x="84" y="-10"/>
      <point x="219" y="-10" type="curve"/>
      <point x="466" y="-10"/>
      <point x="509" y="248"/>
      <point x="509" y="432" type="curve"/>
      <point x="509" y="610"/>
      <point x="439" y="674"/>
      <point x="274" y="674" type="curve"/>
      <point x="222" y="674"/>
      <point x="172" y="669"/>
      <point x="116" y="657" type="curve"/>
      <point x="116" y="561" type="line"/>
      <point x="164" y="572"/>
      <point x="213" y="577"/>
      <point x="253" y="577" type="curve"/>
      <point x="366" y="577"/>
      <point x="396" y="540"/>
    </contour>
  </outline>
</glyph>
<glyph name="product" format="1">
  <advance width="603"/>
  <unicode hex="220F"/>
  <outline>
    <contour>
      <point x="224" y="-152" type="line"/>
      <point x="224" y="539" type="line"/>
      <point x="104" y="539" type="line"/>
      <point x="104" y="-152" type="line"/>
    </contour>
    <contour>
      <point x="499" y="-152" type="line"/>
      <point x="499" y="539" type="line"/>
      <point x="379" y="539" type="line"/>
      <point x="379" y="-152" type="line"/>
    </contour>
    <contour>
      <point x="18" y="627" type="line"/>
      <point x="18" y="515" type="line"/>
      <point x="585" y="515" type="line"/>
      <point x="585" y="627" type="line"/>
    </contour>
  </outline>
</glyph>
<glyph name="summation" format="1">
  <advance width="525"/>
  <unicode hex="2211"/>
  <outline>
    <contour>
      <point x="18" y="-40" type="line"/>
      <point x="18" y="-152" type="line"/>
      <point x="505" y="-152" type="line"/>
      <point x="505" y="-40" type="line"/>
      <point x="179" y="-40" type="line"/>
      <point x="421" y="238" type="line"/>
      <point x="206" y="515" type="line"/>
      <point x="485" y="515" type="line"/>
      <point x="485" y="627" type="line"/>
      <point x="43" y="627" type="line"/>
      <point x="43" y="515" type="line"/>
      <point x="268" y="238" type="line"/>
    </contour>
  </outline>
</glyph>
<glyph name="radical" format="1">
  <advance width="656"/>
  <unicode hex="221A"/>
  <outline>
    <contour>
      <point x="248" y="-152" type="line"/>
      <point x="321" y="-152" type="line"/>
      <point x="321" y="-41" type="line"/>
      <point x="195" y="327" type="line"/>
      <point x="57" y="327" type="line"/>
    </contour>
    <contour>
      <point x="380" y="-152" type="line"/>
      <point x="662" y="779" type="line"/>
      <point x="534" y="779" type="line"/>
      <point x="290" y="-41" type="line"/>
      <point x="290" y="-152" type="line"/>
    </contour>
    <contour>
      <point x="6" y="327" type="line"/>
      <point x="6" y="215" type="line"/>
      <point x="166" y="215" type="line"/>
      <point x="166" y="327" type="line"/>
    </contour>
  </outline>
</glyph>
<glyph name="infinity" format="1">
  <advance width="947"/>
  <unicode hex="221E"/>
  <outline>
    <contour>
      <point x="698" y="107" type="curve" smooth="yes"/>
      <point x="829" y="107"/>
      <point x="914" y="199"/>
      <point x="914" y="317" type="curve" smooth="yes"/>
      <point x="914" y="434"/>
      <point x="831" y="526"/>
      <point x="698" y="526" type="curve" smooth="yes"/>
      <point x="641" y="526"/>
      <point x="588" y="505"/>
      <point x="548" y="465" type="curve" smooth="yes"/>
      <point x="473" y="392" type="line"/>
      <point x="398" y="465" type="line" smooth="yes"/>
      <point x="358" y="505"/>
      <point x="305" y="526"/>
      <point x="248" y="526" type="curve" smooth="yes"/>
      <point x="117" y="526"/>
      <point x="33" y="434"/>
      <point x="33" y="317" type="curve" smooth="yes"/>
      <point x="33" y="199"/>
      <point x="115" y="107"/>
      <point x="248" y="107" type="curve" smooth="yes"/>
      <point x="305" y="107"/>
      <point x="358" y="128"/>
      <point x="398" y="169" type="curve" smooth="yes"/>
      <point x="473" y="242" type="line"/>
      <point x="548" y="169" type="line" smooth="yes"/>
      <point x="588" y="129"/>
      <point x="641" y="107"/>
    </contour>
    <contour>
      <point x="547" y="317" type="line"/>
      <point x="622" y="390" type="line" smooth="yes"/>
      <point x="643" y="411"/>
      <point x="670" y="421"/>
      <point x="698" y="421" type="curve" smooth="yes"/>
      <point x="758" y="421"/>
      <point x="803" y="380"/>
      <point x="803" y="317" type="curve" smooth="yes"/>
      <point x="803" y="254"/>
      <point x="758" y="213"/>
      <point x="698" y="213" type="curve" smooth="yes"/>
      <point x="670" y="213"/>
      <point x="643" y="224"/>
      <point x="622" y="243" type="curve" smooth="yes"/>
    </contour>
    <contour>
      <point x="324" y="390" type="curve" smooth="yes"/>
      <point x="398" y="317" type="line"/>
      <point x="324" y="243" type="line" smooth="yes"/>
      <point x="304" y="223"/>
      <point x="277" y="213"/>
      <point x="248" y="213" type="curve" smooth="yes"/>
      <point x="189" y="213"/>
      <point x="144" y="254"/>
      <point x="144" y="317" type="curve" smooth="yes"/>
      <point x="144" y="380"/>
      <point x="189" y="421"/>
      <point x="248" y="421" type="curve" smooth="yes"/>
      <point x="277" y="421"/>
      <point x="304" y="411"/>
    </contour>
  </outline>
</glyph>
<glyph name="integral" format="1">
  <advance width="465"/>
  <unicode hex="222B"/>
  <outline>
    <contour>
      <point x="255" y="24" type="curve" smooth="yes"/>
      <point x="328" y="591" type="line" smooth="yes"/>
      <point x="335" y="646"/>
      <point x="356" y="667"/>
      <point x="410" y="667" type="curve" smooth="yes"/>
      <point x="462" y="667" type="line"/>
      <point x="462" y="779" type="line"/>
      <point x="398" y="779" type="line" smooth="yes"/>
      <point x="276" y="779"/>
      <point x="225" y="728"/>
      <point x="209" y="604" type="curve" smooth="yes"/>
      <point x="136" y="37" type="line" smooth="yes"/>
      <point x="129" y="-19"/>
      <point x="108" y="-40"/>
      <point x="55" y="-40" type="curve" smooth="yes"/>
      <point x="4" y="-40" type="line"/>
      <point x="4" y="-152" type="line"/>
      <point x="67" y="-152" type="line" smooth="yes"/>
      <point x="189" y="-152"/>
      <point x="239" y="-100"/>
    </contour>
  </outline>
</glyph>
<glyph name="approxequal" format="1">
  <advance width="500"/>
  <unicode hex="2248"/>
  <outline>
    <contour>
      <point x="463" y="151" type="curve"/>
      <point x="463" y="261" type="line"/>
      <point x="429" y="230"/>
      <point x="397" y="219"/>
      <point x="367" y="219" type="curve" smooth="yes"/>
      <point x="285" y="219"/>
      <point x="218" y="303"/>
      <point x="133" y="303" type="curve" smooth="yes"/>
      <point x="103" y="303"/>
      <point x="71" y="292"/>
      <point x="37" y="262" type="curve"/>
      <point x="37" y="152" type="line"/>
      <point x="71" y="183"/>
      <point x="103" y="194"/>
      <point x="133" y="194" type="curve" smooth="yes"/>
      <point x="215" y="194"/>
      <point x="283" y="110"/>
      <point x="367" y="110" type="curve" smooth="yes"/>
      <point x="397" y="110"/>
      <point x="430" y="120"/>
    </contour>
    <contour>
      <point x="463" y="361" type="curve"/>
      <point x="463" y="471" type="line"/>
      <point x="429" y="440"/>
      <point x="397" y="429"/>
      <point x="367" y="429" type="curve" smooth="yes"/>
      <point x="285" y="429"/>
      <point x="218" y="513"/>
      <point x="133" y="513" type="curve" smooth="yes"/>
      <point x="103" y="513"/>
      <point x="71" y="502"/>
      <point x="37" y="472" type="curve"/>
      <point x="37" y="362" type="line"/>
      <point x="71" y="393"/>
      <point x="103" y="404"/>
      <point x="133" y="404" type="curve" smooth="yes"/>
      <point x="215" y="404"/>
      <point x="283" y="320"/>
      <point x="367" y="320" type="curve" smooth="yes"/>
      <point x="397" y="320"/>
      <point x="430" y="330"/>
    </contour>
  </outline>
</glyph>
<glyph name="notequal" format="1">
  <advance width="500"/>
  <unicode hex="2260"/>
  <outline>
    <contour>
      <point x="189" y="57" type="line"/>
      <point x="370" y="567" type="line"/>
      <point x="304" y="567" type="line"/>
      <point x="124" y="57" type="line"/>
    </contour>
    <component base="minus" yOffset="-115"/>
    <component base="minus" yOffset="95"/>
  </outline>
</glyph>
<glyph name="lessequal" format="1">
  <advance width="500"/>
  <unicode hex="2264"/>
  <outline>
    <contour>
      <point x="463" y="500" type="line"/>
      <point x="463" y="622" type="line"/>
      <point x="37" y="327" type="line"/>
      <point x="100" y="258" type="line"/>
    </contour>
    <contour>
      <point x="463" y="227" type="line"/>
      <point x="463" y="327" type="line"/>
      <point x="37" y="327" type="line"/>
      <point x="37" y="227" type="line"/>
    </contour>
    <component base="minus" yOffset="-222"/>
  </outline>
</glyph>
<glyph name="lozenge" format="1">
  <advance width="617"/>
  <unicode hex="25CA"/>
  <outline>
    <contour>
      <point x="312" y="-19" type="line"/>
      <point x="141" y="321" type="line"/>
      <point x="306" y="657" type="line"/>
      <point x="477" y="312" type="line"/>
    </contour>
    <contour>
      <point x="255" y="-152" type="line"/>
      <point x="363" y="-152" type="line"/>
      <point x="605" y="316" type="line"/>
      <point x="364" y="784" type="line"/>
      <point x="254" y="784" type="line"/>
      <point x="13" y="316" type="line"/>
    </contour>
  </outline>
</glyph>
<glyph name="breve.uc" format="1">
  <advance width="383"/>
  <outline>
    <contour>
      <point x="333" y="674" type="curve"/>
      <point x="261" y="674" type="line"/>
      <point x="261" y="640"/>
      <point x="236" y="619"/>
      <point x="192" y="619" type="curve" smooth="yes"/>
      <point x="147" y="619"/>
      <point x="123" y="640"/>
      <point x="123" y="674" type="curve"/>
      <point x="50" y="674" type="line"/>
      <point x="50" y="600"/>
      <point x="103" y="551"/>
      <point x="192" y="551" type="curve" smooth="yes"/>
      <point x="281" y="551"/>
      <point x="333" y="599"/>
    </contour>
    <contour>
      <point x="192" y="530" type="move" name="_top"/>
    </contour>
  </outline>
</glyph>
<glyph name="caron.alt" format="1">
  <advance width="268"/>
  <outline>
    <contour>
      <point x="125" y="527" type="curve" smooth="yes"/>
      <point x="145" y="665" type="line"/>
      <point x="42" y="665" type="line"/>
      <point x="40" y="485" type="line"/>
      <point x="74" y="485" type="line" smooth="yes"/>
      <point x="102" y="485"/>
      <point x="122" y="501"/>
    </contour>
    <contour>
      <point x="42" y="665" type="move" name="_caronalt"/>
    </contour>
  </outline>
</glyph>
<glyph name="caron.uc" format="1">
  <advance width="438"/>
  <outline>
    <component base="circumflex.uc" xScale="-1.0" yScale="-1.0" xOffset="438" yOffset="1232"/>
    <contour>
      <point x="220" y="530" type="move" name="_top"/>
    </contour>
  </outline>
</glyph>
<glyph name="circumflex.uc" format="1">
  <advance width="438"/>
  <outline>
    <contour>
      <point x="296" y="558" type="line"/>
      <point x="388" y="558" type="line"/>
      <point x="273" y="674" type="line"/>
      <point x="165" y="674" type="line"/>
      <point x="50" y="558" type="line"/>
      <point x="143" y="558" type="line"/>
      <point x="219" y="613" type="line"/>
    </contour>
    <contour>
      <point x="219" y="530" type="move" name="_top"/>
    </contour>
  </outline>
</glyph>
<glyph name="eight.tf" format="1">
  <advance width="500"/>
  <outline>
    <contour>
      <point x="250" y="-9" type="curve"/>
      <point x="398" y="-9"/>
      <point x="463" y="46"/>
      <point x="463" y="170" type="curve"/>
      <point x="463" y="250"/>
      <point x="426" y="308"/>
      <point x="355" y="324" type="curve"/>
      <point x="425" y="344"/>
      <point x="453" y="399"/>
      <point x="453" y="474" type="curve"/>
      <point x="453" y="591"/>
      <point x="396" y="638"/>
      <point x="250" y="638" type="curve"/>
      <point x="110" y="638"/>
      <point x="49" y="586"/>
      <point x="49" y="473" type="curve"/>
      <point x="48" y="398"/>
      <point x="76" y="343"/>
      <point x="147" y="324" type="curve"/>
      <point x="74" y="307"/>
      <point x="38" y="247"/>
      <point x="38" y="167" type="curve"/>
      <point x="38" y="42"/>
      <point x="98" y="-9"/>
    </contour>
    <contour>
      <point x="250" y="537" type="curve"/>
      <point x="319" y="537"/>
      <point x="346" y="513"/>
      <point x="346" y="456" type="curve"/>
      <point x="346" y="398"/>
      <point x="322" y="367"/>
      <point x="250" y="367" type="curve"/>
      <point x="179" y="367"/>
      <point x="156" y="398"/>
      <point x="156" y="455" type="curve"/>
      <point x="156" y="513"/>
      <point x="182" y="537"/>
    </contour>
    <contour>
      <point x="250" y="271" type="curve"/>
      <point x="322" y="271"/>
      <point x="351" y="246"/>
      <point x="351" y="186" type="curve"/>
      <point x="351" y="122"/>
      <point x="322" y="96"/>
      <point x="250" y="96" type="curve"/>
      <point x="179" y="96"/>
      <point x="151" y="121"/>
      <point x="151" y="184" type="curve"/>
      <point x="151" y="245"/>
      <point x="179" y="271"/>
    </contour>
  </outline>
</glyph>
<glyph name="f.alt" format="1">
  <advance width="330"/>
  <outline>
    <contour>
      <point x="332" y="666" type="line"/>
      <point x="317" y="669"/>
      <point x="288" y="675"/>
      <point x="249" y="675" type="curve"/>
      <point x="140" y="675"/>
      <point x="88" y="615"/>
      <point x="88" y="499" type="curve"/>
      <point x="88" y="0" type="line"/>
      <point x="204" y="0" type="line"/>
      <point x="204" y="508" type="line"/>
      <point x="204" y="560"/>
      <point x="219" y="579"/>
      <point x="274" y="579" type="curve"/>
      <point x="296" y="579"/>
      <point x="320" y="576"/>
      <point x="332" y="574" type="curve"/>
    </contour>
    <contour>
      <point x="22" y="397" type="line"/>
      <point x="317" y="397" type="line"/>
      <point x="317" y="494" type="line"/>
      <point x="22" y="494" type="line"/>
    </contour>
  </outline>
</glyph>
<glyph name="five.osf" format="1">
  <advance width="448"/>
  <outline>
    <contour>
      <point x="219" y="-161" type="curve"/>
      <point x="347" y="-161"/>
      <point x="422" y="-95"/>
      <point x="422" y="40" type="curve" smooth="yes"/>
      <point x="422" y="196"/>
      <point x="345" y="229"/>
      <point x="249" y="229" type="curve" smooth="yes"/>
      <point x="222" y="229"/>
      <point x="199" y="227"/>
      <point x="178" y="225" type="curve"/>
      <point x="178" y="386" type="line"/>
      <point x="382" y="386" type="line"/>
      <point x="382" y="494" type="line"/>
      <point x="58" y="494" type="line"/>
      <point x="58" y="119" type="line"/>
      <point x="100" y="128"/>
      <point x="140" y="130"/>
      <point x="183" y="130" type="curve" smooth="yes"/>
      <point x="267" y="130"/>
      <point x="302" y="115"/>
      <point x="302" y="42" type="curve" smooth="yes"/>
      <point x="302" y="-24"/>
      <point x="270" y="-49"/>
      <point x="187" y="-49" type="curve"/>
      <point x="124" y="-49"/>
      <point x="76" y="-44"/>
      <point x="31" y="-34" type="curve"/>
      <point x="31" y="-141" type="line"/>
      <point x="67" y="-154"/>
      <point x="131" y="-161"/>
    </contour>
  </outline>
</glyph>
<glyph name="five.tf" format="1">
  <advance width="500"/>
  <outline>
    <contour>
      <point x="244" y="-9" type="curve"/>
      <point x="382" y="-9"/>
      <point x="463" y="54"/>
      <point x="463" y="187" type="curve" smooth="yes"/>
      <point x="463" y="340"/>
      <point x="378" y="372"/>
      <point x="273" y="372" type="curve" smooth="yes"/>
      <point x="242" y="372"/>
      <point x="211" y="370"/>
      <point x="194" y="368" type="curve"/>
      <point x="194" y="520" type="line"/>
      <point x="419" y="520" type="line"/>
      <point x="419" y="628" type="line"/>
      <point x="74" y="628" type="line"/>
      <point x="74" y="262" type="line"/>
      <point x="121" y="270"/>
      <point x="158" y="271"/>
      <point x="208" y="273" type="curve" smooth="yes"/>
      <point x="301" y="273"/>
      <point x="343" y="257"/>
      <point x="343" y="189" type="curve" smooth="yes"/>
      <point x="343" y="127"/>
      <point x="305" y="104"/>
      <point x="212" y="104" type="curve"/>
      <point x="144" y="104"/>
      <point x="92" y="109"/>
      <point x="44" y="118" type="curve"/>
      <point x="44" y="12" type="line"/>
      <point x="84" y="-3"/>
      <point x="157" y="-9"/>
    </contour>
  </outline>
</glyph>
<glyph name="four.osf" format="1">
  <advance width="529"/>
  <outline>
    <contour>
      <point x="506" y="8" type="line"/>
      <point x="506" y="113" type="line"/>
      <point x="429" y="113" type="line"/>
      <point x="429" y="381" type="line"/>
      <point x="309" y="381" type="line"/>
      <point x="309" y="113" type="line"/>
      <point x="158" y="113" type="line"/>
      <point x="225" y="494" type="line"/>
      <point x="110" y="494" type="line"/>
      <point x="36" y="113" type="line"/>
      <point x="36" y="8" type="line"/>
      <point x="309" y="8" type="line"/>
      <point x="309" y="-152" type="line"/>
      <point x="429" y="-152" type="line"/>
      <point x="429" y="8" type="line"/>
    </contour>
  </outline>
</glyph>
<glyph name="four.tf" format="1">
  <advance width="500"/>
  <outline>
    <contour>
      <point x="479" y="154" type="line"/>
      <point x="479" y="259" type="line"/>
      <point x="408" y="259" type="line"/>
      <point x="408" y="518" type="line"/>
      <point x="288" y="518" type="line"/>
      <point x="288" y="259" type="line"/>
      <point x="151" y="259" type="line"/>
      <point x="215" y="628" type="line"/>
      <point x="100" y="628" type="line"/>
      <point x="30" y="259" type="line"/>
      <point x="30" y="154" type="line"/>
      <point x="288" y="154" type="line"/>
      <point x="288" y="0" type="line"/>
      <point x="408" y="0" type="line"/>
      <point x="408" y="154" type="line"/>
    </contour>
  </outline>
</glyph>
<glyph name="grave.uc" format="1">
  <advance width="335"/>
  <outline>
    <contour>
      <point x="52" y="674" type="line"/>
      <point x="189" y="558" type="line"/>
      <point x="285" y="558" type="line"/>
      <point x="183" y="674" type="line"/>
    </contour>
    <contour>
      <point x="203" y="530" type="move" name="_top"/>
    </contour>
  </outline>
</glyph>
<glyph name="hungarumlaut.uc" format="1">
  <advance width="512"/>
  <outline>
    <contour>
      <point x="273" y="674" type="line"/>
      <point x="154" y="674" type="line"/>
      <point x="53" y="558" type="line"/>
      <point x="144" y="558" type="line"/>
    </contour>
    <contour>
      <point x="457" y="674" type="line"/>
      <point x="338" y="674" type="line"/>
      <point x="236" y="558" type="line"/>
      <point x="328" y="558" type="line"/>
    </contour>
    <contour>
      <point x="223" y="530" type="move" name="_top"/>
    </contour>
  </outline>
</glyph>
<glyph name="macron.uc" format="1">
  <advance width="349"/>
  <outline>
    <contour>
      <point x="300" y="563" type="line"/>
      <point x="300" y="636" type="line"/>
      <point x="51" y="636" type="line"/>
      <point x="51" y="563" type="line"/>
    </contour>
    <contour>
      <point x="175" y="530" type="move" name="_top"/>
    </contour>
  </outline>
</glyph>
<glyph name="nine.osf" format="1">
  <advance width="507"/>
  <outline>
    <contour>
      <point x="470" y="189" type="curve"/>
      <point x="470" y="427"/>
      <point x="412" y="504"/>
      <point x="245" y="504" type="curve"/>
      <point x="106" y="504"/>
      <point x="24" y="422"/>
      <point x="24" y="280" type="curve"/>
      <point x="24" y="139"/>
      <point x="83" y="77"/>
      <point x="198" y="77" type="curve"/>
      <point x="272" y="77"/>
      <point x="322" y="101"/>
      <point x="359" y="125" type="curve"/>
      <point x="359" y="215" type="line"/>
      <point x="334" y="197"/>
      <point x="297" y="177"/>
      <point x="239" y="177" type="curve"/>
      <point x="169" y="177"/>
      <point x="141" y="200"/>
      <point x="141" y="286" type="curve"/>
      <point x="141" y="359"/>
      <point x="176" y="398"/>
      <point x="245" y="398" type="curve"/>
      <point x="330" y="398"/>
      <point x="350" y="355"/>
      <point x="350" y="200" type="curve"/>
      <point x="350" y="6"/>
      <point x="316" y="-54"/>
      <point x="184" y="-54" type="curve"/>
      <point x="140" y="-54"/>
      <point x="106" y="-51"/>
      <point x="84" y="-48" type="curve"/>
      <point x="84" y="-153" type="line"/>
      <point x="102" y="-157"/>
      <point x="146" y="-161"/>
      <point x="184" y="-161" type="curve"/>
      <point x="387" y="-161"/>
      <point x="470" y="-52"/>
    </contour>
  </outline>
</glyph>
<glyph name="nine.tf" format="1">
  <advance width="500"/>
  <outline>
    <contour>
      <point x="464" y="332" type="curve"/>
      <point x="464" y="563"/>
      <point x="406" y="638"/>
      <point x="242" y="638" type="curve"/>
      <point x="106" y="638"/>
      <point x="26" y="558"/>
      <point x="26" y="420" type="curve"/>
      <point x="26" y="282"/>
      <point x="83" y="221"/>
      <point x="195" y="221" type="curve"/>
      <point x="265" y="221"/>
      <point x="313" y="243"/>
      <point x="352" y="268" type="curve"/>
      <point x="352" y="358" type="line"/>
      <point x="328" y="340"/>
      <point x="294" y="321"/>
      <point x="237" y="321" type="curve"/>
      <point x="169" y="321"/>
      <point x="143" y="343"/>
      <point x="143" y="426" type="curve"/>
      <point x="143" y="495"/>
      <point x="176" y="531"/>
      <point x="242" y="531" type="curve"/>
      <point x="324" y="531"/>
      <point x="344" y="490"/>
      <point x="344" y="343" type="curve"/>
      <point x="344" y="155"/>
      <point x="311" y="99"/>
      <point x="183" y="99" type="curve"/>
      <point x="140" y="99"/>
      <point x="106" y="101"/>
      <point x="84" y="104" type="curve"/>
      <point x="84" y="-1" type="line"/>
      <point x="102" y="-5"/>
      <point x="146" y="-9"/>
      <point x="183" y="-9" type="curve"/>
      <point x="381" y="-9"/>
      <point x="464" y="97"/>
    </contour>
  </outline>
</glyph>
<glyph name="ogonek.alt" format="1">
  <advance width="327"/>
  <outline>
    <contour>
      <point x="269" y="43" type="curve"/>
      <point x="222" y="64" type="line"/>
      <point x="182" y="48"/>
      <point x="70" y="-5"/>
      <point x="70" y="-94" type="curve"/>
      <point x="70" y="-152"/>
      <point x="104" y="-188"/>
      <point x="179" y="-188" type="curve"/>
      <point x="218" y="-188"/>
      <point x="254" y="-178"/>
      <point x="259" y="-177" type="curve"/>
      <point x="259" y="-108" type="line"/>
      <point x="246" y="-111"/>
      <point x="224" y="-115"/>
      <point x="205" y="-115" type="curve"/>
      <point x="170" y="-115"/>
      <point x="151" y="-103"/>
      <point x="151" y="-75" type="curve"/>
      <point x="151" y="-27"/>
      <point x="208" y="8"/>
    </contour>
    <contour>
      <point x="269" y="43" type="move" name="_ogonekalt"/>
    </contour>
  </outline>
</glyph>
<glyph name="one.tf" format="1">
  <advance width="500"/>
  <outline>
    <contour>
      <point x="222" y="0" type="line"/>
      <point x="342" y="0" type="line"/>
      <point x="342" y="637" type="line"/>
      <point x="222" y="598" type="line"/>
    </contour>
    <contour>
      <point x="55" y="503" type="line"/>
      <point x="225" y="522" type="line"/>
      <point x="342" y="637" type="line"/>
      <point x="55" y="604" type="line"/>
    </contour>
    <contour>
      <point x="49" y="113" type="line"/>
      <point x="49" y="0" type="line"/>
      <point x="467" y="0" type="line"/>
      <point x="467" y="113" type="line"/>
    </contour>
  </outline>
</glyph>
<glyph name="ring.uc" format="1">
  <advance width="333"/>
  <outline>
    <contour>
      <point x="165" y="605" type="curve" smooth="yes"/>
      <point x="132" y="605"/>
      <point x="113" y="618"/>
      <point x="113" y="639" type="curve" smooth="yes"/>
      <point x="113" y="660"/>
      <point x="132" y="673"/>
      <point x="165" y="673" type="curve" smooth="yes"/>
      <point x="199" y="673"/>
      <point x="219" y="660"/>
      <point x="219" y="639" type="curve" smooth="yes"/>
      <point x="219" y="618"/>
      <point x="199" y="605"/>
    </contour>
    <contour>
      <point x="165" y="551" type="curve" smooth="yes"/>
      <point x="237" y="551"/>
      <point x="281" y="586"/>
      <point x="281" y="639" type="curve" smooth="yes"/>
      <point x="281" y="691"/>
      <point x="237" y="725"/>
      <point x="165" y="725" type="curve" smooth="yes"/>
      <point x="95" y="725"/>
      <point x="50" y="691"/>
      <point x="50" y="639" type="curve" smooth="yes"/>
      <point x="50" y="586"/>
      <point x="94" y="551"/>
    </contour>
    <contour>
      <point x="165" y="530" type="move" name="_top"/>
    </contour>
  </outline>
</glyph>
<glyph name="seven.osf" format="1">
  <advance width="444"/>
  <outline>
    <contour>
      <point x="423" y="386" type="line"/>
      <point x="423" y="494" type="line"/>
      <point x="24" y="494" type="line"/>
      <point x="24" y="386" type="line"/>
      <point x="295" y="386" type="line"/>
      <point x="23" y="-152" type="line"/>
      <point x="158" y="-152" type="line"/>
    </contour>
  </outline>
</glyph>
<glyph name="six.tf" format="1">
  <advance width="500"/>
  <outline>
    <contour>
      <point x="37" y="297" type="curve"/>
      <point x="37" y="69"/>
      <point x="96" y="-9"/>
      <point x="263" y="-9" type="curve"/>
      <point x="396" y="-9"/>
      <point x="475" y="73"/>
      <point x="475" y="212" type="curve"/>
      <point x="475" y="349"/>
      <point x="420" y="410"/>
      <point x="311" y="410" type="curve"/>
      <point x="231" y="410"/>
      <point x="186" y="386"/>
      <point x="148" y="364" type="curve"/>
      <point x="148" y="275" type="line"/>
      <point x="174" y="293"/>
      <point x="222" y="310"/>
      <point x="267" y="310" type="curve"/>
      <point x="333" y="310"/>
      <point x="359" y="289"/>
      <point x="359" y="207" type="curve"/>
      <point x="359" y="136"/>
      <point x="326" y="99"/>
      <point x="260" y="99" type="curve"/>
      <point x="178" y="99"/>
      <point x="157" y="141"/>
      <point x="157" y="287" type="curve"/>
      <point x="157" y="475"/>
      <point x="190" y="533"/>
      <point x="317" y="533" type="curve"/>
      <point x="359" y="533"/>
      <point x="392" y="530"/>
      <point x="412" y="528" type="curve"/>
      <point x="412" y="630" type="line"/>
      <point x="395" y="635"/>
      <point x="352" y="638"/>
      <point x="317" y="638" type="curve"/>
      <point x="119" y="638"/>
      <point x="37" y="532"/>
    </contour>
  </outline>
</glyph>
